<svg width="29" height="26" viewBox="0 0 29 26" fill="none" xmlns="http://www.w3.org/2000/svg">
<path d="M12.9879 9.88947C12.7916 5.96356 13.1057 -1.1816 15.9324 1.64506C18.1694 3.88212 18.7541 5.17495 18.1347 6.71919C19.599 4.88124 21.3377 3.21653 22.6064 3.41171C25.1583 3.8043 25.7472 8.5154 24.1768 8.90799C22.9205 9.22206 18.9422 10.7401 17.1101 11.4598C20.578 10.1512 27.6316 8.3191 28.1027 11.4598C28.5474 14.4243 22.1484 14.1243 18.3475 13.5311C22.5675 14.2696 29.358 16.0934 27.1212 18.3302C25.5587 19.8927 22.2274 20.1838 19.7085 19.4969C21.056 22.1103 21.4939 24.9049 18.6805 24.8079C14.0869 24.6495 13.7114 20.9121 13.9439 18.5467C13.3073 21.8377 11.6691 26.2913 8.66944 25.2005C4.35093 23.6302 6.11759 22.0598 11.4176 16.7598C9.38919 18.5919 4.93983 21.9028 3.36946 20.4894C2.13432 19.3778 0.277423 16.3232 1.8577 14.8466C1.08431 14.3905 0.748456 13.579 1.21021 12.245C2.34828 8.95726 4.95263 8.92788 7.02917 9.74301C4.65215 7.93773 2.53096 5.51054 4.35095 3.8043C7.49168 0.859871 10.8287 4.1969 12.9879 9.88947Z" fill="white" stroke="#FFCA05" stroke-width="0.785182" stroke-linejoin="round"/>
<ellipse cx="13.5769" cy="13.2265" rx="2.35555" ry="1.96296" fill="#FFCA05"/>
</svg>
