<svg width="240" height="77" viewBox="0 0 240 77" fill="none" xmlns="http://www.w3.org/2000/svg">
<path d="M27 21H220V53H27V21Z" fill="#FFCA05"/>
<path d="M0.0399017 43.065C-0.283937 42.5287 1.46708 41.7717 1.55931 41.139C1.96423 38.4886 3.17803 37.5065 3.86645 35.1085C4.889 31.5529 2.58757 21.0002 14.7526 21C14.7528 21 14.753 21 14.7532 21C14.8725 21 14.9932 21.001 15.1154 21.0031C17.4329 21.0401 19.9629 21.9376 22.5839 22.0708C25.2059 22.2038 42.1328 22.1041 43.0844 23.3789C44.3385 25.2272 39.9983 29.6612 40.1906 30.647C40.3232 31.321 41.862 32.1507 42.1352 33.0125C43.0158 35.7912 41.8905 37.2451 46.0705 39.7485C43.8678 40.7499 41.665 41.7512 39.4622 42.7526C40.4836 44.0591 37.5785 46.0393 37.7385 46.833C37.8701 47.4842 39.612 47.8658 39.6929 48.5445C39.7936 49.3057 37.9134 50.4747 38.1966 51.8593C38.2859 52.3041 38.5322 52.6772 38.8748 53L27 41.1252C28.3242 39.7192 28.8 36.6907 29.895 36.2267C31.3073 35.6296 33.5037 38.0993 35.3058 36.5003C35.5318 36.0004 35.7578 35.5005 35.9839 35.0006C35.8219 33.8701 35.66 32.7397 35.4981 31.6092C36.4058 31.0829 36.7961 33.3997 37.6301 33.4417C38.6114 33.4923 39.1121 31.2958 39.7725 31.3059C40.3134 31.3162 41.0469 33.0774 41.7483 32.9671C42.7709 32.8152 42.5473 30.2722 43.0975 29.7964C43.3171 29.6116 47.3763 28.2082 47.6054 28.188C49.3471 28.0877 49.4987 31.5685 50.8875 31.8728C54.7395 32.703 58.6937 29.8904 62.2567 28.8274C63.8477 28.3519 65.5077 28.5542 67.0941 29.1109C64.5954 38.0192 70.1252 44.9521 68.0571 31.0126C69.8222 32.9957 71.0737 29.2327 72.7469 29.8689C73.8291 30.284 74.5782 32.2168 76.1235 32.1662C78.8656 32.064 81.8649 26.57 82.6535 36.5003C85.8724 34.7497 88.6603 38.3518 89.8204 29.5855C90.6505 29.0499 92.7776 34.2715 93.7085 34.9809C94.589 35.649 101.344 38.0067 102.45 38.1383C103.555 38.2699 105.489 38.4131 106.42 37.644C107.589 36.6924 108.407 27.601 110.488 38.2306C112.909 37.3705 113.772 37.6747 116.023 38.9096C116.43 39.1329 116.477 40.711 116.715 40.7125C117.205 40.7125 118.04 39.5462 118.915 39.404C120.355 39.1711 121.177 42.4917 121.016 37.4198C121.966 36.5695 122.915 35.7192 123.864 34.8688C124.197 35.8477 124.53 36.8266 124.863 37.8055C125.371 36.7387 125.879 35.6719 126.386 34.6051C125.79 41.9444 129.362 37.6134 128.202 33.4021C130.042 34.9204 131.883 36.4388 133.723 37.9571C133.466 46.2984 137.763 38.9197 137.402 34.3843C137.612 34.3909 137.823 34.3975 138.033 34.4041C139.877 36.6211 141.57 34.8078 143.817 36.2959C146.063 37.784 145.852 38.5962 146.536 42.4329C147.064 42.2132 147.593 41.9935 148.122 41.7737C150.896 31.2555 150.406 49.4664 155.157 41.398C156.674 48.0086 160.416 44.5362 162.897 42.5318C163.185 42.299 163.19 41.0158 163.575 40.6202C164.515 39.6687 166.913 41.3181 166.831 37.1792C167.662 38.3768 168.492 39.5743 169.322 40.7718C170.001 40.0192 170.679 39.2666 171.358 38.5141C171.355 37.2221 171.351 35.9301 171.348 34.6381C172.714 39.0415 174.861 37.3492 175.921 38.402C176.132 38.6154 176.177 40.3977 176.832 40.8838C177.598 41.4609 179.025 40.9335 179.938 41.4903C180.292 39.516 180.647 37.5418 181.002 35.5675C182.634 34.4967 183.207 39.7077 184.166 40.1126C184.338 40.183 187.486 39.8086 187.656 39.6973C189.044 38.8155 188.651 34.3761 192.666 35.3269C193.381 35.499 193.96 37.0351 194.606 37.0968C195.748 37.2082 199.188 33.7243 199.459 30.505C200.844 34.5342 204.549 32.8872 205.641 34.0514C205.97 34.4094 206.044 36.9757 207.057 37.522C207.878 37.9674 209.991 35.9125 211.032 36.2564C212.137 36.6309 212.532 38.7868 213.027 38.9393C213.495 39.081 213.926 37.3406 214.564 37.3506C216.553 37.4114 218.355 40.2126 219.928 40.2642C219.952 40.2651 219.976 40.2653 220 40.265L207.265 53C207.237 50.7551 202.168 48.7683 199.904 46.8854C200.239 46.413 201.345 45.949 201.355 45.4537C201.517 39.3275 202.466 32.4167 203.569 26.2722C203.8 24.9766 205.368 22.806 205.918 21L220 35.0816C217.83 34.4206 216.186 35.2302 217.22 41.5998C216.228 43.6437 209.02 38.9384 207.649 38.8675C206.279 38.7973 205.192 40.89 204.115 40.9209C200.864 41.012 198.574 39.504 194.617 41.3263C193.595 41.8027 192.5 44.2819 191.894 44.253C191.165 44.2125 190.381 41.8148 189.436 41.6624C187.185 41.3183 182.989 42.107 180.829 41.6921C180.435 41.6111 180.296 39.5058 179.732 38.8477C177.536 36.2766 175.074 36.4996 175.509 43.2214C172.694 39.4052 170.09 42.8862 167.481 43.0995C161.964 43.5348 151.915 41.9658 147.11 44.7903C144.079 46.5721 144.157 49.5868 139.695 46.9853C138.705 46.4084 137.719 45.6302 136.518 44.9419C133.702 43.3221 131.119 37.7527 128.973 44.464C125.846 42.7234 123.356 43.9577 121.036 38.2182C120.762 39.5948 120.489 40.9714 120.215 42.348C119.832 42.3821 119.449 42.4161 119.065 42.4502C118.946 41.1373 118.826 39.8244 118.706 38.5116C115.96 38.158 112.476 43.5541 110.151 43.5147C106.253 43.454 96.2137 41.3576 92.5176 39.586C90.5555 38.6452 90.4498 41.4571 89.3265 35.6771C88.8876 36.0792 88.4487 36.4813 88.0098 36.8834C87.7351 38.149 87.4605 39.4146 87.1858 40.6803C84.6684 40.7309 81.6825 38.765 79.2842 38.7851C74.9142 38.8256 68.3519 42.3089 63.9634 40.0211C62.8631 39.4441 61.4876 36.8341 60.41 36.8636C58.8417 36.9041 58.4606 41.2354 56.4704 41.3164C53.0403 41.448 46.6524 36.4163 43.4104 36.801C42.4474 36.9124 41.9982 38.524 41.3333 38.6961C38.5452 39.4351 36.2562 39.3039 33.5828 41.7943C30.7122 37.6437 30.9602 32.2862 30.0706 26.8803C29.3964 22.8002 27.329 13.3447 27.0356 9.77126C26.8294 7.26074 27.5991 4.03126 27.3102 1.26782C30.7494 -0.939032 32.1943 1.49043 34.9869 5.37782C40.1442 5.22291 45.3015 5.068 50.4588 4.9131C50.928 6.42152 51.3972 7.92995 51.8664 9.43837C51.8664 9.44167 51.8664 9.44496 51.8664 9.44826C53.847 11.1891 54.6864 7.30441 55.7546 6.42262C65.9806 -2.02036 86.1076 4.58771 97.3654 5.53932C99.7913 5.74171 107.683 3.70911 109.347 6.15895C109.778 6.79697 109.898 9.12291 110.357 9.22414C114.453 7.84096 118.55 6.45778 122.646 5.07459C131.07 8.68864 139.778 5.70389 148.267 5.1471C171.231 3.63872 193.967 1.80529 216.555 2.36206C217.643 2.38981 218.804 2.30243 220 2.17296L236.333 0.213043L238.827 21C239.217 24.6033 239.989 28.5257 239.146 31.7345C238.68 33.5182 234.944 34.2614 237.728 36.6045C236.722 36.6292 235.716 36.6538 234.709 36.6784C235.924 38.7232 238.214 40.03 238.447 42.3226C238.639 44.2532 238.789 49.361 238.404 51.067C238.212 51.9519 236.331 51.6223 236.341 52.4472C236.344 52.6112 236.382 52.7969 236.447 53L238.159 67.268L220 69.4471C218.454 69.9398 215.896 71.9708 214.174 71.9708C212.408 71.9708 209.432 69.8047 208.075 70.1185C203.186 71.2321 197.862 74.443 192.653 73.5825C191.214 73.3391 189.363 70.9008 188.912 70.9689C188.032 71.1106 187.77 73.4791 187.178 73.7836C184.175 75.3223 179.493 72.5077 176.549 72.396C166.956 72.0316 156.793 73.0653 147.241 72.63C141.207 72.3567 131.178 72.7735 125.607 70.9919C124.405 70.6072 124.726 68.0124 123.717 68.0124C122.598 68.013 121.992 69.7659 121.47 69.9076C117.851 70.8997 109.864 72.6716 106.448 70.8799C105.797 70.5359 105.325 68.5027 104.935 68.5101C104.738 68.5101 104.293 69.8976 103.674 70.0394C98.2074 71.2947 94.222 70.4856 88.866 70.0098C78.6081 69.1089 66.7224 71.6901 55.9464 70.2932C53.5986 69.9895 51.9885 65.968 51.6583 66.0085C50.9338 66.0896 50.4701 68.7945 49.0027 69.4626C44.1239 71.6587 37.5532 68.7724 32.9128 70.1284C31.1798 70.6334 28.9566 72.7188 27 74.0349L8.7521 76.2246L5.96515 53C5.54025 52.3683 5.19556 51.7644 5.01013 51.2138C4.40279 49.4119 5.74969 45.1563 4.24218 44.3576C3.33141 43.8717 0.406113 43.6469 0.0399017 43.065ZM77.7698 34.4239C77.4488 39.1009 80.8224 35.214 79.5567 32.7034C79.2717 32.1381 77.8528 33.2098 77.7698 34.4239ZM209.545 37.2551C208.209 37.286 206.873 37.3169 205.537 37.3478C206.093 37.7907 206.649 38.2336 207.205 38.6765C208.008 38.4276 208.811 38.1787 209.614 37.9298C209.591 37.7049 209.568 37.48 209.545 37.2551Z" fill="#FFCA05"/>
</svg>
