<svg width="732" height="357" viewBox="0 0 732 357" fill="none" xmlns="http://www.w3.org/2000/svg">
<path d="M21 51C21 44.3726 26.3726 39 33 39H679C685.627 39 691 44.3726 691 51V302C691 308.627 685.627 314 679 314H33C26.3726 314 21 308.627 21 302V51Z" fill="#FFFDFA"/>
<path d="M533.82 271.562C581.717 270.73 627.813 278.574 675.873 278.589C676.915 278.59 677.957 278.588 679 278.583C666.529 278.303 655.217 289.309 655.288 302C653.905 249.46 648.285 196.354 649.509 143.872C650.235 112.97 651.125 81.9906 652.159 51C652.087 65.3557 665.024 77.7243 679 77.1939C656.638 76.4059 634.278 75.5447 611.944 74.6179C552.316 72.146 492.775 69.2081 433.116 65.9539C373.584 62.6997 313.924 59.13 254.344 55.384C213.877 52.8396 173.364 50.2129 132.901 47.5538C115.138 46.3883 97.4272 45.2176 79.6735 44.0426C66.4286 43.1639 53.1836 42.2853 39.9386 41.4066C38.0973 41.2827 36.3331 40.7802 35.0324 39.9825C33.7317 39.1834 32.9983 38.1604 33 37.1031C33.0026 36.0452 33.7415 35.0199 35.0466 34.2237C36.3512 33.4297 38.1187 32.9342 39.96 32.8151C53.3167 31.964 66.6734 31.113 80.0301 30.2619C94.8659 29.318 109.675 28.3722 124.507 27.4344C126.842 31.7733 130.048 35.0645 136.053 36.5179C139.117 37.2592 143.587 37.5675 146.878 36.7613C149.833 36.0368 152.059 34.7452 154.173 33.5142C156.384 32.2267 158.482 31.0043 161.183 30.5727C165.766 29.8396 170.122 27.9974 174.696 26.062C176.361 25.3576 178.057 24.6398 179.802 23.9594C193.96 23.0771 208.119 22.2017 222.276 21.3338C227.744 21.7959 232.772 22.1695 237.037 21.9915C240.863 21.8318 244.367 20.9152 247.855 19.775C250.047 19.6421 252.238 19.5091 254.43 19.3762C268.575 18.5222 282.724 17.6819 296.875 16.849C307.916 18.0066 319.488 19.1311 334.535 19.6248C341.019 19.8376 347.417 20.4637 353.568 21.0645C362.652 21.9519 371.198 22.786 378.691 22.1624C383.699 21.7455 388.967 22.3587 394.222 22.9703C401.27 23.7905 408.305 24.6092 414.682 22.9392C418.691 21.889 422.374 20.6122 425.785 19.428C431.212 17.5439 435.953 15.8958 440.247 15.7822C448.313 15.5692 455.299 14.1965 461.455 12.9857C468.86 11.5293 475.07 10.3073 480.524 11.6236C481.35 11.8232 482.297 12.0885 483.362 12.3901C488.976 13.9797 497.956 16.5221 510.846 15.1245C515.435 14.6267 519.745 13.3331 523.967 12.0638C530.113 10.216 536.081 8.42248 542.472 9.22071C543.427 9.34019 544.424 9.84068 545.332 10.2979C546.486 10.8792 547.495 11.3866 548.092 10.9452C549.843 9.65059 552.624 8.2197 555.644 6.66241C557.862 5.51832 560.214 4.30539 562.383 3.0321C578.942 2.3126 595.505 1.62339 612.073 0.970966C619.662 0.671726 627.255 0.379955 634.85 0.0957565C638.734 2.04496 642.706 3.80098 646.901 5.1295C652.385 6.86573 659.495 7.39754 668.658 8.08656C671.849 8.32649 675.291 8.58569 679 8.92097C693.397 9.0743 708.949 18.0708 715.484 33.1848C717.977 38.8085 719.161 45.037 718.968 51C717.466 66.1355 717.983 81.0655 719.06 91.0162C719.315 93.3729 719.587 95.742 719.883 98.2757C721.007 107.887 722.413 119.88 723.964 142.66C725.432 164.209 725.812 182.534 726.098 196.301C726.244 203.328 726.361 209.168 726.59 213.644C726.981 221.301 727.329 230.704 727.677 240.143C728.222 254.915 728.768 269.78 729.495 278.195C729.754 281.191 730.075 284.335 730.417 287.73C730.848 292.008 731.321 296.691 731.769 302C732.081 313.969 727.83 327.457 718.624 337.86C709.627 348.28 695.003 355.93 679 356.022C677.917 356.074 676.814 356.124 675.688 356.172C659.247 356.866 649.056 356.393 638.47 355.364C634.167 354.946 630.372 353.292 626.461 351.584C620.912 349.159 615.123 346.629 607.292 347.384C605.464 347.56 603.514 347.954 601.473 348.368C597.726 349.127 593.673 349.951 589.522 349.59C588.074 349.464 586.799 349.015 585.55 348.575C584.175 348.091 582.827 347.617 581.299 347.591C575.595 347.492 570.044 347.604 565.112 347.705C558.751 347.834 553.417 347.942 550.108 347.549C544.208 346.849 537.757 347.476 531.224 348.114C526.234 348.601 521.194 349.097 516.313 349.005C502.368 348.741 483.189 349.935 463.428 351.925C455.952 352.678 449.617 351.65 441.5 350.33C436.451 349.51 430.713 348.572 423.579 347.886C419.535 347.497 416.11 348.413 412.94 349.258C410.018 350.038 407.31 350.758 404.532 350.351C402.079 349.991 400.528 348.452 399.055 346.99C397.416 345.363 395.873 343.833 393.293 344.131C391.92 344.29 390.251 345.06 388.266 345.975C387.48 346.337 386.642 346.72 385.755 347.099C385.801 346.787 385.812 346.507 385.813 346.296C385.815 344.803 383.183 344.016 380.6 343.246C379.568 342.938 378.541 342.634 377.697 342.288C374.592 341.012 368.712 340.804 364.219 340.864C362.318 340.888 360.596 340.425 358.586 339.885C356.801 339.405 354.79 338.863 352.225 338.549C350.762 338.369 349.638 337.936 348.709 337.575C348.036 337.314 347.464 337.09 346.933 337.031C346.474 336.981 346.103 337.409 345.685 337.891C345.385 338.238 345.059 338.614 344.659 338.859C343.701 339.446 342.47 339.623 341.606 339.434C341.208 339.347 340.892 339.181 340.58 339.015C340.215 338.822 339.853 338.627 339.353 338.559C337.06 338.247 334.831 338.736 332.514 339.243C329.968 339.8 327.312 340.379 324.356 339.947C323.426 339.811 322.435 339.499 321.475 339.196C320.471 338.879 319.495 338.573 318.665 338.492C315.297 338.161 312.13 339.229 309.217 340.211C307.279 340.864 305.451 341.479 303.754 341.62C300.644 341.877 298.974 343.159 297.743 344.106C297.105 344.596 296.584 344.999 296.038 345.121C295.538 345.085 295.03 345.042 294.534 344.996C294.078 344.902 293.606 344.805 293.164 344.836C293.131 344.838 293.098 344.844 293.065 344.846C290.283 344.535 287.55 344.095 284.835 343.655C278.737 342.668 272.713 341.69 266.344 342.241C264.971 342.36 263.573 342.889 262.151 343.427C260.408 344.086 258.625 344.76 256.81 344.711C252.482 344.596 248.113 343.723 243.809 342.863C237.337 341.569 231.012 340.305 225.197 341.692C223.278 342.15 221.406 342.912 219.528 343.681C218.481 344.109 217.429 344.541 216.369 344.919C216.593 344.218 216.713 343.559 216.825 342.946C217.055 341.68 217.254 340.598 218.273 339.678C220.681 337.504 223.41 334.512 223.108 332.329C223.025 331.737 223.092 331.077 223.165 330.413C223.347 328.747 223.533 327.045 221.296 326.275C219.789 325.756 215.916 324.566 213.452 325.84C212.916 326.118 212.589 326.668 212.226 327.28C211.572 328.379 210.795 329.68 208.46 329.983C208.067 330.034 207.64 330.08 207.198 330.123C205.437 330.294 203.464 330.482 202.727 331.366C201.878 332.384 202.059 333.549 202.27 334.908C202.546 336.678 202.873 338.78 201.044 341.314C200.681 341.815 199.99 341.987 199.468 342.117C199.1 342.209 198.819 342.282 198.79 342.433C198.759 342.606 198.876 342.966 199.026 343.422C199.553 345.03 200.47 347.839 196.644 347.959C195.609 347.99 194.425 347.857 193.364 347.736C191.799 347.558 190.5 347.411 190.326 347.871C190.261 348.045 190.214 348.234 190.176 348.43C188.93 348.375 187.685 348.319 186.439 348.264C184.842 347.716 182.599 347.763 179.8 347.824C179.121 347.839 178.405 347.852 177.661 347.86C175.203 347.747 172.745 347.634 170.287 347.518C168.339 347.286 166.265 346.907 164.076 346.307C159.69 345.102 155.874 343.116 152.145 341.174C150.574 340.356 149.017 339.544 147.439 338.803C148.054 338.711 148.609 338.604 149.036 338.456C151.96 337.441 153.134 335.445 154.213 333.608C154.931 332.386 155.609 331.234 156.731 330.491C158.785 329.129 158.579 327.536 158.428 326.358C158.35 325.747 158.29 325.247 158.563 324.949C158.784 324.711 159.293 324.599 159.819 324.483C160.276 324.382 160.75 324.276 161.052 324.085C164.726 321.753 163.621 320.399 162.015 318.429C161.129 317.343 160.094 316.068 159.619 314.338C159.211 312.507 159.348 311.971 161.273 311.241C159.773 310.337 158.273 309.432 156.774 308.528C156.185 308.586 155.739 309.152 155.112 310.092C153.992 311.77 150.345 312.383 147.496 312.862C146.177 313.084 145.028 313.278 144.38 313.535C140.932 314.904 141.935 316.809 142.818 318.486C143.304 319.409 143.752 320.264 143.403 320.92C143.254 321.201 143.467 321.48 143.681 321.764C143.846 321.984 144.016 322.208 144.023 322.438C144.068 324.107 142.029 325.347 140.137 326.498C139.053 327.157 138.019 327.789 137.448 328.455C137.274 328.658 137.136 328.865 137.006 329.066C136.816 329.36 136.632 329.64 136.343 329.88C135.684 330.426 134.328 330.794 132.841 331.195C132.079 331.401 131.283 331.615 130.531 331.868C129.556 332.196 129.205 332.856 128.834 333.546C128.571 334.034 128.297 334.536 127.792 334.95C126.879 335.698 125.034 335.968 123.321 336.218C122.575 336.327 121.854 336.436 121.246 336.576C120.999 336.633 120.88 336.746 120.854 336.902C118.043 337.425 115.358 337.959 112.746 338.481C99.6472 341.103 88.3092 343.376 71.3777 341.729C68.1769 341.417 64.7389 341.479 61.2657 341.729C51.8449 341.173 42.4197 340.603 33 340.019C27.7155 339.924 22.3295 338.675 17.5181 336.382C11.8334 332.181 6.11361 326.061 2.82663 317.554C0.904503 312.568 0.073164 307.201 0.423096 302C1.17442 297.758 1.46295 293.298 1.78535 288.316C2.1326 282.949 2.52039 276.977 3.56684 270.017C5.32518 258.324 6.81258 246.318 7.58554 232.771C8.35509 219.283 8.92239 203.84 9.12363 192.915C9.23349 186.959 10.5794 180.703 11.8321 174.873C13.5941 166.672 15.1734 159.313 12.8834 154.82C12.1516 153.385 10.881 151.998 9.64668 150.648C8.76759 149.687 7.90908 148.739 7.26964 147.81C7.46822 145.337 7.66465 142.862 7.86519 140.387C9.39125 135.99 11.0274 129.157 9.3256 122.552C9.53589 119.999 9.74517 117.444 9.95741 114.978C10.4014 109.597 10.851 104.332 11.3039 99.0187C11.4536 97.2845 11.6036 95.5331 11.7544 93.7773C11.7562 93.7606 11.7579 93.744 11.7596 93.7274C12.0631 90.1932 12.3688 86.6324 12.6762 83.1305C12.8074 81.6305 12.9386 80.1306 13.0698 78.6307C13.4028 74.819 13.7369 70.9797 14.0745 67.2065C14.254 65.2095 14.4322 63.1932 14.6131 61.1736C14.9066 57.897 15.2016 54.5956 15.4987 51.3112C15.508 51.2074 15.5174 51.1037 15.5268 51C15.9061 43.3253 21.8002 36.8514 28.6872 35.5412C29.8292 35.3041 30.9782 35.3962 31.7833 35.7215C32.5947 36.0471 33.0018 36.5455 33 37.0409C32.9962 37.5412 32.6015 38.0153 31.9906 38.448C31.3777 38.8792 30.6003 39.2463 29.7977 39.5541C24.9021 41.3566 21.9551 46.4307 22.5022 51C22.5119 51.1108 22.5217 51.2217 22.5314 51.3326C22.82 54.6176 23.1111 57.9178 23.3962 61.195C23.572 63.2156 23.7448 65.2299 23.9193 67.2279C24.2472 71.0015 24.5749 74.8471 24.8981 78.6592C25.0258 80.1591 25.1536 81.659 25.2813 83.159C25.5806 86.6703 25.8768 90.2409 26.1721 93.7844C26.1738 93.8058 26.1755 93.8272 26.1772 93.8486C26.3225 95.5919 26.468 97.3324 26.6122 99.0544C27.0516 104.369 27.487 109.638 27.9173 115.021C28.1495 117.803 28.3766 120.701 28.6061 123.578C28.7338 125.18 28.8623 126.779 28.9893 128.349C29.0569 129.208 29.1239 130.077 29.1913 130.952C30.7835 151.026 32.3154 170.958 33.7848 191.075C35.2542 211.117 36.6631 231.194 38.0158 251.212C39.1582 268.156 40.2589 285.075 41.3215 302C41.5415 299.909 40.7992 297.461 39.3323 295.739C37.8891 293.958 35.4351 292.679 33 292.509C157.089 284.888 281.651 278.641 406.265 274.695C424.492 274.114 443.196 273.59 461.46 273.12C479.924 272.651 498.008 272.234 516.52 271.878C522.143 271.766 527.906 271.662 533.82 271.562Z" fill="#FFFDFA"/>
</svg>
