<svg width="94" height="334" viewBox="0 0 94 334" fill="none" xmlns="http://www.w3.org/2000/svg">
<path d="M87.3939 170.148L92.617 171.904C93.8204 170.967 88.622 167.893 87.7313 167.933C88.3514 165.702 87.7093 163.233 87.9482 161.154C88.0793 160.003 88.0131 160.458 88.8579 160.435C90.4755 160.391 92.3839 161.298 94 160.814L88.1023 157.628L88.6751 151.069C88.9062 150.897 92.6878 152.023 93.0987 150.536L88.4859 148.782L87.7431 141.062L93.7759 140.726L86.9471 138.759L86.945 129.968C88.9055 130.253 91.7313 130.254 93.1166 128.55C90.8797 127.493 89.0535 127.715 86.6831 127.736L85.8834 116.644L91.9499 116.032C90.6473 113.67 86.328 115.113 85.3997 113.849L84.1747 104.065C86.5795 103.818 90.2092 106.239 92.3271 104.263L84.0378 100.995C85.7379 87.326 74.1956 74.2024 60.2115 79.233C56.0426 80.7337 55.016 82.8969 54.7009 87.1508C53.607 101.925 55.9603 121.232 57.7095 136.063C58.6868 144.351 57.4981 155.259 53.1982 162.539C52.23 164.177 49.3803 168.197 47.535 168.398L45.5501 164.165L44.2243 158.13C46.6133 157.65 49.8222 157.638 51.6021 155.757L44.5001 155.956L46.9824 144.729C47.9007 144.91 48.7662 144.952 49.6965 144.798C50.4725 144.668 52.864 144.517 52.6122 143.241L46.4762 141.952L45.6453 133.569C47.2812 133.913 48.9077 133.643 50.4859 133.213C51.3291 132.983 51.9013 133.723 51.8163 132.148L45.3813 131.336L47.7985 122.838L52.5279 122.065C51.6136 120.629 49.7671 120.974 48.3391 120.715C49.3653 117.655 47.6517 116.081 46.5726 113.525C46.6316 111.655 52.7157 112.101 51.229 110.633L45.9413 109.097C46.0233 105.422 47.7637 102.015 47.2595 98.3895C47.5447 97.4803 51.1272 98.1439 50.8332 96.2909L46.2872 95.7241C45.1936 93.7444 45.2992 86.035 46.7823 85.0518C48.216 84.1008 51.304 85.6958 51.3097 83.7064L46.5518 83.0419L44.1803 75.3821C45.864 74.8359 47.7336 74.9184 49.4708 74.6904C50.3873 74.5702 50.9716 75.4401 50.9107 73.764L43.9367 72.8872L44.8617 67.4808L51.4519 65.0406L44.8863 65.3127C45.3432 63.4369 42.7241 54.9557 44.1523 54.2976C46.6842 54.3412 50.0326 54.4967 51.9291 52.46L44.8714 52.434L43.939 51.6456C43.285 45.1637 46.6997 46.4224 50.3257 43.4607C48.1995 44.1896 44.1438 42.3982 43.6101 44.806L42.8211 44.707C40.6395 41.9559 42.9285 38.3347 42.235 35.0829L47.5133 31.0162C45.7747 30.12 42.1442 32.9266 41.528 32.9952C40.1804 33.1443 39.2264 25.925 39.6361 24.9195C40.0222 23.9712 47.3609 18.4709 46.5116 17.1415C45.3135 17.9474 43.7945 18.4732 42.675 19.3859C41.9049 20.0156 39.4675 23.615 38.7444 22.7571L36.4178 16.7012L41.0924 8.2191C40.0089 6.77621 34.6834 14.2597 35.2526 15.726C33.3275 14.9527 31.4299 14.1924 29.361 14.9825C30.9871 11.501 33.6412 9.31818 33.3142 5.03666C30.5784 4.72244 28.1381 6.29252 26.1424 7.9715C24.2702 4.90872 24.3487 -0.310539 19.5265 0.0144911C16.5913 0.211974 16.7477 5.13041 17.2223 7.40601C15.4382 6.75046 9.21813 7.28651 8.76371 9.38666C8.40188 11.0606 12.9336 17.1591 14.0748 18.8288C11.4909 21.5105 8.82621 24.3974 9.70585 28.4536C11.6899 28.1121 11.3557 26.055 12.0473 24.9003C13.1515 23.0592 16.7039 18.3348 18.6642 17.7705C19.1753 17.6234 26.25 17.4255 26.6316 17.5433C27.1473 17.7031 27.9097 21.8643 29.6883 17.3012C37.3854 16.5366 36.2915 25.6707 37.4864 30.8227C38.0031 33.0575 39.7162 35.5815 39.8206 37.2955C39.921 38.9155 38.8897 40.2253 38.8931 41.931C38.8997 45.1098 41.2354 46.0689 41.4457 48.2262C41.7824 51.7052 41.2733 57.6081 36.6434 57.1228C35.8527 48.6306 35.8207 33.1964 31.259 25.9432C30.1776 24.2218 28.7347 23.5607 28.5335 26.0848C28.4163 27.5391 31.4879 36.3508 31.0216 36.6244L28.4098 35.7444L29.6788 34.2674L25.3259 34.267L24.9208 28.7187C23.0983 29.1488 25.0626 33.4918 24.8621 33.6486L22.6125 34.2015L24.7192 34.7404L23.2778 37.5647L24.2452 38.5265C24.7788 35.9669 25.9408 38.0394 25.1946 39.742L26.1977 36.0206L31.305 37.8795C31.4977 43.2691 33.0956 49.4682 33.1175 54.7727C33.1251 56.5389 31.3075 54.0684 30.4119 54.696C29.8644 56.5912 33.3223 57.6885 33.1564 59.1551C32.9169 61.2775 28.3484 60.7856 28.7976 63.2825L33.2183 62.7445C31.2113 70.2979 31.8689 78.3475 33.0127 86.0095C26.4948 89.9956 29.3897 75.8961 28.1851 72.5587L30.7262 73.9716C30.5335 71.9651 29.1442 71.855 31.2008 70.1893L28.2311 69.8325L28.1145 64.3016L27.107 68.0198L24.9394 68.0142L27.2581 71.0928C27.3593 72.1366 23.6288 72.8951 24.6995 74.3087C25.1875 74.9545 26.8354 73.219 26.9703 73.4976L26.9967 82.5731L25.1358 83.9842C25.9122 84.9849 26.8557 85.0256 27.0084 86.4335C27.3675 89.7665 24.0783 87.1844 24.3558 90.206L27.0982 90.0023L26.8873 100.422L25.0934 99.6384C23.242 100.851 27.5918 103.169 27.0255 103.732L24.6343 103.978L24.0798 105.565L27.3603 105.432C27.6317 105.826 26.717 113.712 26.7172 114.98C26.7182 115.986 26.4338 115.83 27.6921 115.917L28.8723 106.446C28.8878 106.329 28.1561 105.688 28.5104 105.027L30.5111 106.377C30.172 104.745 30.2476 104.334 31.4558 103.205L28.7723 102.864L29.4571 88.6573L32.0021 90.0695L31.7327 88.2005L33.4109 87.5053C33.3435 94.2435 32.5567 102.855 33.8045 109.438C33.9828 110.382 33.3886 110.837 34.8731 110.769C36.0911 106.082 35.3562 101.444 35.5305 96.83C35.5986 95.037 36.1703 93.1928 36.1906 91.4297C36.294 81.8703 34.2521 72.0312 37.0551 62.6759C43.4016 65.5189 40.604 68.3952 40.8339 73.6225C40.9762 76.8173 43.0362 79.6367 43.1643 82.5381C43.2897 85.3768 42.1752 87.4703 41.9839 89.8092C41.6943 93.3427 43.7786 96.8069 43.8639 99.5697C44.0226 104.618 40.995 109.603 42.9973 114.277L41.382 115.439C40.0175 109.848 41.1557 103.222 39.7992 97.8528C39.5957 97.0495 40.518 96.3364 38.8413 96.4357L39.5617 116.859L35.311 116.048L37.7108 118.55C33.8903 121.204 36.4167 123.203 39.4289 120.15C41.5294 123.525 39.2682 126.973 38.9496 130.253C38.5892 133.959 38.7712 138.518 38.5719 142.298C38.3475 146.556 37.2553 150.818 38.0749 155.145L40.046 147.97L42.1811 122.132L44.3197 122.407C43.0873 125.847 42.0379 129.083 41.9405 132.818C41.828 137.102 44.1209 141.795 43.5769 146.222C43.052 150.485 40.7901 153.383 40.9838 158.477C41.1635 163.22 44.1526 167.122 44.1256 171.636C44.1057 174.947 43.0719 178.451 42.9855 181.81C42.9138 184.639 43.9961 187.761 43.998 190.295C44.0125 220.892 45.1046 251.548 42.3874 282.39L43.1566 293.754C43.9845 293.608 44.5103 291.083 44.6537 290.366C45.097 288.153 45.1093 285.831 45.5067 283.613L48.1752 288.341L47.8907 282.313L51.0849 282.156C50.9631 282.861 52.4604 289.056 53.6792 287.931L53.4155 281.316L56.9773 280.717L59.9807 285.426L59.5845 279.884L66.7761 277.543L72.1847 283.658L68.854 275.899L73.3905 271.747L79.0978 276.278L75.0937 269.933L78.0407 262.958L83.1281 265.791L78.8973 261.307L79.5111 255.445C81.3418 255.332 82.9109 256.279 84.5512 256.626C85.1293 256.749 86.5042 257.274 86.4787 256.331L80.0796 252.803L80.7896 245.165L88.2971 246.11L80.8139 242.46L80.7257 236.913L88.7705 237.925C89.2296 236.364 88.5 237.003 87.6633 236.62C85.998 235.857 80.9201 234.859 80.6723 233.781L80.3289 226.972C82.1826 227.262 84.1726 227.34 86.0334 227.126C86.866 227.03 86.9311 227.627 86.9646 226.163C85.3932 224.773 80.0091 225.303 79.0847 224.527C78.8366 224.319 77.3555 219.617 75.8817 218.981L82.3486 215.134C77.975 213.638 75.0914 218.898 71.3111 216.221C70.0073 214.968 72.0973 212.57 71.8204 212.156C71.388 212.097 70.9297 212.535 70.5044 212.412C70.0956 212.295 66.0941 205.547 66.1458 205.122C66.3223 203.683 71.7018 201.568 72.6166 199.659L80.8096 205.587C82.0123 204.646 74.5509 197.882 74.8467 196.943L79.5953 191.739L85.8397 195.777C87.1327 194.698 80.5406 190.186 80.9837 188.553L85.1782 181.414L90.8461 184.78L91.6801 183.879L85.8524 178.935C85.8557 178.431 86.4021 178.134 86.4207 177.989L87.3986 170.141L87.3939 170.148ZM41.6572 64.9019L37.4164 59.6962L40.659 57.6408C41.4147 57.7396 41.8482 63.7702 41.6549 64.9003L41.6572 64.9019ZM58.5558 83.6783C60.8958 81.3719 67.7275 80.845 70.7508 81.881C71.8899 82.2708 75.9279 85.3987 76.8481 86.3707C82.4479 92.2853 80.6522 102.584 81.3949 110.151C83.2246 128.868 86.0635 148.411 84.506 167.289C83.5885 178.391 78.0562 189.889 70.0419 197.605C68.5354 199.053 66.3969 200 65.2164 201.085C63.4607 202.702 62.0732 205.289 60.3212 206.673C57.0984 209.218 52.0227 209.338 48.2772 210.845C48.2363 206.09 46.7978 201.199 46.68 196.487C46.6379 194.76 47.3004 192.165 47.2478 190.178C47.0894 184.027 45.7131 178.947 47.2936 172.509C48.5438 171.082 50.2971 170.846 52.0134 169.179C58.0392 163.337 59.9926 155.418 60.8482 147.274C61.8473 137.761 59.1346 130.131 58.3592 120.904C57.5283 110.987 56.4292 97.8349 57.2767 88.0488C57.397 86.671 57.5395 84.6817 58.558 83.6799L58.5558 83.6783ZM43.4511 116.254C44.7369 115.423 45.6804 119.964 45.0443 120.844L41.5362 118.483L43.4511 116.254ZM63.3064 208.657C63.7741 208.31 64.0015 207.72 64.506 207.407L70.0034 213.282C68.9127 216.634 67.0556 214.951 64.5331 215.602C63.2642 215.929 62.5684 217.047 61.9402 217.218C61.437 217.354 60.7293 216.669 60.4278 216.865C60.0957 217.076 60.5494 218.123 59.6826 217.783L57.666 212.302C59.9004 211.31 61.4208 210.06 63.3086 208.658L63.3064 208.657ZM60.1429 218.392L58.93 228.132L56.4554 226.173C55.5124 227.985 58.3248 230.162 58.3442 231.056C58.3516 231.425 57.38 235.392 57.1969 235.629C56.1335 237.003 54.0769 233.832 52.7565 233.957L55.3406 237.556C55.8484 238.796 50.6545 242.225 49.4814 242.587C48.7174 242.823 48.0867 242.793 47.3234 242.615L47.9799 237.809C49.4962 237.814 51.1178 237.48 51.9496 236.054L48.1303 236.122L48.144 231.75L52.6909 230.102L47.8738 229.236L46.9926 223.334L53.0941 222.453L47.2515 221.664L47.5622 214.337C49.428 212.862 51.0773 219.554 52.4969 218.518L50.8509 214.207L55.56 212.908C56.5624 214.437 57.4747 215.967 58.6142 217.406C59.1527 218.085 60.097 218.305 60.1363 218.387L60.1429 218.392ZM47.4766 245.956C55.8198 245.289 60.9255 238.394 62.4113 230.403C63.1715 226.319 61.3113 218.165 67.9888 218.779C80.2575 219.908 77.5244 237.132 76.9283 245.506C76.2685 254.745 76.4763 263.876 69.3858 270.934C62.912 277.38 53.9784 277.722 45.4934 279.208L47.476 245.952L47.4766 245.956Z" fill="white"/>
<path d="M8.92824 200.953C8.30261 201.477 5.87708 197.729 5.2787 199.682C4.91923 200.858 7.13721 201.861 7.62042 202.723C7.7454 203.757 3.94566 204.581 5.04229 205.962C5.65295 206.733 8.87181 204.583 8.99068 204.813L9.45312 214.214L9.53468 204.885L13.0123 207.518C13.5341 205.597 11.7066 204.509 10.8514 203.122L18.5185 198.318L18.2359 222.463L14.9485 220.415L13.9861 221.645L18.3267 226.049C17.1453 227.164 13.2498 227.743 13.509 229.831C13.7688 231.923 16.7801 229.527 17.6195 229.53C18.7561 229.928 18.1825 242.912 18.302 245.123C19.1065 259.976 22.2968 274.563 20.7808 289.571C20.6268 291.097 18.5383 295.364 19.8704 296.634L21.4723 297.078C27.55 280.172 22.5015 261.78 21.6534 244.447C21.4837 240.973 21.1441 234.058 21.5336 230.862C21.9611 227.347 24.4978 232.524 25.6034 233.285C26.8446 231.258 21.8228 227.292 22.6645 226.332L29.6372 222.806L21.2582 224.493L20.4345 151.154L19.5226 150.883L18.2508 196.342L9.94237 201.635L10.3112 180.585L9.30527 145.487L8.92982 200.951L8.92824 200.953Z" fill="white"/>
<path d="M17.2982 45.8216C16.5258 45.6705 14.145 47.7689 13.696 46.564L13.78 39.4125C12.9547 39.3652 12.399 41.7235 12.3125 42.2789C12.1672 43.2172 12.2832 43.8837 12.5756 44.7506L9.96348 43.8806C9.24691 44.4103 11.4185 47.0092 12.3011 46.9323L11.8564 47.9971L9.86593 49.0794C10.5074 50.4288 11.3944 49.7612 12.5036 49.6946L11.8716 63.6216C11.0994 64.3207 10.1871 62.9193 9.44244 62.5958C6.99262 61.5281 8.49644 64.6681 10.0813 64.7898C8.52079 66.743 8.24962 69.2003 11.1562 67.1238C12.0724 67.2226 12.014 77.4449 11.6248 78.9677L10.3513 79.1159C8.38237 80.2103 11.75 81.8637 11.7094 82.2967L9.80655 84.5278L11.9287 84.8214C12.5777 89.3434 12.5308 92.6458 12.0403 97.1824C11.9582 97.9501 12.4191 98.9813 12.3359 99.3704C12.233 99.8399 10.0483 99.5117 10.3734 101.91C10.5401 103.145 12.3837 102.305 12.4769 102.453C12.4181 104.58 12.269 106.973 12.4431 109.077C12.5108 109.922 12.5126 112.119 13.4079 112.466L13.5513 102.598L16.0924 104.01L14.2651 101.307L17.3067 98.6727L13.421 99.2764C14.3535 94.0305 13.6552 88.8088 13.1861 83.5891C14.212 83.3987 16.5978 85.9115 17.4466 84.4003L14.4413 82.3552L16.4439 79.3218L13.0328 80.5382L12.9275 68.1682L14.609 67.8295L13.2531 65.4531L15.9168 61.6648L13.046 62.9539C13.8978 58.6826 13.6294 54.389 13.5727 50.0748C13.5438 47.8684 15.5342 51.1574 16.2009 50.7034L14.8367 48.6144L17.2015 46.9903C17.3499 50.7798 17.7805 54.6194 17.9001 58.4119C18.626 81.6349 17.1659 107.487 19.6166 130.314C19.7263 131.351 19.5552 134.008 21.1102 133.778C22.4358 123.312 21.2809 112.7 21.2374 102.186C21.218 97.6286 21.9014 92.7274 21.8302 88.0487C21.5422 68.9875 19.9994 49.872 19.4692 30.813C18.4419 28.8437 17.4691 29.1867 16.9645 31.2678C15.8433 35.8795 16.9021 41.1871 17.3071 45.828L17.2982 45.8216Z" fill="white"/>
<path d="M26.5366 125.115L25.2337 124.426L24.3551 125.12L26.27 127.285C25.4117 128.449 24.0794 127.783 24.3216 129.781L26.4769 130.051L25.7899 139.861L23.7182 139.053L25.0121 141.689C23.8491 142.564 22.3309 142.466 22.5085 144.394L26.3897 143.787L27.1001 155.686L24.4476 155.088C23.7586 156.49 26.7977 157.865 26.7467 158.398L24.3535 160.296C25.096 161.734 25.8437 161.203 26.7893 160.338C27.8012 160.448 27.7393 172.999 27.4486 174.7C21.3592 171.757 24.5522 174.628 27.0657 177.202L25.2119 179.643C25.857 181.049 26.6688 180.261 27.8445 180.252L27.5071 187.35L25.1742 186.501C23.4865 188.383 27.1801 188.894 27.6197 190.449L27.1642 191.753L25.1615 193.099L27.3115 193.372L27.1227 203.528L23.2185 202.196L22.7631 203.523L26.8264 205.964L25.3557 209.068L27.0235 208.73L27.757 215.963L28.2393 207.785L31.9942 210.45C33.2309 209.513 29.4842 206.617 29.5566 206.025L31.9953 203.863L28.044 205.007L28.6164 192.69L29.9303 192.038L32.2049 193.436L30.8406 191.347L33.2793 189.185L30.1874 189.881C27.3541 189.463 29.0977 180.332 29.2007 178.223L30.735 178.963C30.0039 176.639 32.7167 175.712 34.4888 175.04C34.1368 182.587 33.9787 191.74 35.1476 199.19C35.2484 199.836 35.3033 201.534 36.0828 201.623C38.975 190.345 36.4812 177.737 36.2171 166.12C35.9961 156.376 37.6817 140.633 35.4001 131.6C34.968 129.891 34.2529 128.058 32.9719 130.545L34.178 173.634L33.9569 174.343L28.3964 175.917C29.2848 170.468 28.7364 164.881 28.2675 159.419L30.8813 160.287L30.0704 158.337L31.8878 156.574L28.0022 157.178L27.5436 143.382L31.0922 145.471L28.6797 142.963L31.1607 140.542L27.2789 141.145C26.7143 137.125 27.0197 133.104 27.6851 129.107L30.2972 129.977L29.4687 128.504L31.8418 126.336L27.9668 126.701L27.5463 121.398L26.5404 125.114L26.5366 125.115Z" fill="white"/>
<path d="M39.1913 167.934L39.9069 228.223L39.6785 228.923L36.9455 229.764C36.9681 227.713 36.8902 225.063 36.3816 223.097C36.1457 222.183 36.5984 221.781 35.2023 221.852L34.9208 228.41C34.7811 228.557 31.8353 225.168 31.7129 227.998L35.2192 230.371L32.2471 232.465L34.9306 232.806L34.7136 243.225L32.5461 243.219C35.3632 245.389 34.93 247.279 32.3024 249.514L34.5104 249.249L34.6224 257.228L32.857 258.114L35.0954 262.238C34.8451 264.366 31.0835 263.568 30.819 265.821L35.2353 265.28L35.5073 272.153L36.6396 275.897L37.5936 263.931L40.6064 265.951L39.4003 262.849L42.4153 260.138C41.1223 260.1 38.4403 262.698 37.669 261.182C37.3328 260.52 36.8802 248.363 37.4032 247.962L40.0271 249.076L41.2798 256.142C42.5898 252.141 39.9364 246.421 43.3681 243.769L41.7242 243.831C41.6521 226.472 42.0558 209.036 41.5901 191.686C41.4435 186.221 41.4816 173.914 40.2483 169.277C40.0211 168.427 40.755 167.849 39.1936 167.936L39.1913 167.934ZM37.1346 245.726L37.2112 231.995L40.1855 234.402C38.8039 237.745 42.4925 246.202 37.1324 245.724L37.1346 245.726Z" fill="white"/>
<path d="M7.96957 116.731C8.11 115.206 8.46465 113.676 8.53882 112.14C9.50706 91.5723 5.70706 71.3718 7.97592 51.0499L7.69049 44.69C5.42863 52.7864 3.34695 62.9309 4.52589 71.3365C4.89344 73.9639 6.10824 76.3271 6.4123 79.135C7.51085 89.3417 5.80653 101.335 6.5675 111.732C6.67699 113.22 6.70915 115.806 7.97115 116.729L7.96957 116.731Z" fill="white"/>
<path d="M8.3595 249.256L6.68064 247.401C4.14402 247.34 7.94363 251.097 7.97881 251.76C8.02401 252.598 6.87902 253.243 6.84624 253.746C6.82021 254.173 7.97639 254.885 8.05308 256.097C8.58066 264.455 8.07079 275.039 7.89692 283.563C7.86361 285.202 5.956 292.405 8.73326 292.175C9.97362 292.074 10.3887 286.229 10.4447 284.981C10.8249 276.358 8.78785 266.745 8.93509 258.33C8.96143 256.801 9.26544 255.294 9.44016 253.787L11.8415 256.287L10.244 252.52L16.8805 246.484L8.76937 250.403L10.0114 231.603L9.39416 214.758C8.64886 226.233 9.49357 237.756 8.35728 249.255L8.3595 249.256Z" fill="white"/>
<path d="M61.5613 333.998L62.6628 333.861C62.8551 333.203 62.7241 332.586 62.6297 331.932C62.0126 327.612 55.7509 311.587 53.8007 306.63C52.7696 304.01 50.4889 298.378 48.8103 296.385C47.7209 295.093 46.3101 294.681 46.4207 296.781C46.5579 299.398 49.844 305.543 50.8639 308.445C52.308 312.544 53.2544 316.881 54.9012 320.906C56.7413 325.406 59.5547 329.577 61.5597 334L61.5613 333.998Z" fill="white"/>
<path d="M14.3661 183.499C13.8491 171.89 15.6142 160.433 15.3447 148.795C15.224 143.636 14.601 138.559 14.4584 133.374C14.441 132.724 14.651 130.729 13.8707 130.67C12.7062 140.071 14.3597 149.555 14.1474 159.013C14.0112 165.098 12.8129 171.473 13.0055 177.489C13.0632 179.275 12.9512 182.318 14.3661 183.499Z" fill="white"/>
<path d="M41.191 305.054C39.9012 307.012 44.1878 317.455 45.3361 317.656C46.1662 317.801 46.2646 316.317 46.1673 315.552C45.8317 312.894 43.0623 307.054 41.1904 305.051L41.191 305.054Z" fill="white"/>
<path d="M25.5119 45.838L23.9785 45.092L26.2272 48.3937L24.4187 50.3719C24.6876 51.3198 25.8555 50.7992 26.1712 51.386C26.8495 52.6402 26.0436 54.6272 27.0462 55.368L27.2847 49.7168L28.5807 49.0282L30.4046 50.2923L29.0337 48.1986C28.958 47.969 31.2722 48.056 30.2687 46.984C30.0516 46.7511 25.7602 48.9771 26.2433 44.28L25.5043 45.8393L25.5119 45.838Z" fill="white"/>
<path d="M37.6352 289.771C36.7636 289.704 36.3201 291.974 36.2638 292.558C36.1525 293.733 36.0961 300.351 37.6967 300.217C40.0912 300.014 38.0876 291.38 37.6375 289.773L37.6352 289.771Z" fill="white"/>
<path d="M0.291071 187.233C-1.40013 188.583 4.79928 189.669 5.51981 188.976L4.89769 186.754L0.288853 187.231L0.291071 187.233Z" fill="white"/>
<path d="M27.8904 4.90106L33.6104 2.60076C32.5019 -0.47905 27.3294 4.21645 27.8904 4.90106Z" fill="white"/>
<path d="M72.329 146.811C73.1102 147.049 73.1208 145.879 73.3299 145.297C77.9492 132.498 74.0967 114.52 72.0159 101.391C71.6541 99.1123 70.9799 86.8244 69.2053 86.5164C68.1698 86.3356 68.5001 88.0088 68.5082 88.5104C68.6522 96.9245 70.554 104.373 71.5342 112.515C72.9143 123.989 73.075 135.259 72.329 146.811Z" fill="white"/>
<path d="M62.5134 190.651L71.9642 178.094C76.6718 167.878 79.8135 158.607 77.7231 147.212L78.7629 130.035C77.8457 129.79 78.1042 131.199 77.999 131.853C77.1668 136.927 76.1485 143.593 75.887 148.654C75.7358 151.592 76.5817 154.831 76.4395 157.509C76.2493 161.134 72.127 173.225 70.4081 176.701C68.0911 181.388 62.6001 184.888 62.5127 190.647L62.5134 190.651Z" fill="white"/>
<path d="M73.4913 154.931L72.4848 154.248C69.7997 159.991 69.5347 165.903 66.6012 171.762C62.6006 179.751 55.6419 185.709 51.2707 193.355C51.6429 194.29 52.5043 193.331 53.0059 193.092C59.1089 190.186 71.6285 169.9 72.4828 163.05L73.4935 154.933L73.4913 154.931Z" fill="white"/>
<path d="M82.3767 144.779C82.4246 133.878 82.0916 122.863 80.8505 112.042C80.4016 108.129 79.837 102.19 78.7484 98.5539C78.5107 97.7565 78.4366 96.6883 77.5192 96.3491C77.9672 104.141 79.2889 111.849 79.8938 119.632C80.4325 126.567 79.9462 134.652 80.8837 141.32C81.0435 142.456 81.2709 144.157 82.3774 144.783L82.3767 144.779Z" fill="white"/>
<path d="M75.8705 175.299C75.0892 175.816 68.0978 189.033 66.3186 191.511L54.8622 203.979C56.8532 206.156 64.4603 197.984 65.7147 196.385C70.3308 190.509 73.4527 182.306 76.8923 175.689L75.8683 175.298L75.8705 175.299Z" fill="white"/>
<path d="M60.4845 101.903C60.4601 108.618 60.4339 115.578 60.9172 122.312C61.1453 125.494 61.5162 131.723 62.1331 134.542C62.2827 135.223 62.5372 136.096 63.2708 136.331C64.0849 129.59 63.5464 122.621 62.9574 115.828C62.5949 111.649 62.2769 107.421 61.451 103.313C61.2745 102.437 62.116 101.825 60.4807 101.903L60.4845 101.903Z" fill="white"/>
<path d="M58.1638 177.461L62.9769 169.571C67.5835 161.266 68.6905 152.779 68.9324 143.369C68.9663 142.047 68.9114 140.244 68.1017 139.139C66.3906 144.893 67.333 150.846 66.1269 156.686C65.7259 158.615 64.5543 162.59 63.8914 164.474C62.2053 169.262 58.3274 172.33 58.1638 177.461Z" fill="white"/>
<path d="M67.9794 133.621C68.9792 133.857 68.5486 132.54 68.5722 131.937C68.8089 125.205 67.4464 119.184 67.7202 112.58L64.7846 91.4494C63.6756 92.2853 64.0747 94.6351 64.121 95.8758C64.3223 101.177 65.6238 106.928 66.112 112.377C66.2678 114.118 65.599 115.815 65.7475 117.547C66.2094 122.886 67.5938 128.258 67.9832 133.62L67.9794 133.621Z" fill="white"/>
<path d="M60.3148 164.543C61.3664 164.482 61.3405 163.526 61.6382 162.808C63.9218 157.294 64.5965 149.027 64.6079 143.095C63.5117 143.182 63.5593 144.093 63.3093 144.862C62.382 147.72 61.3578 152.559 60.8888 155.55C60.4183 158.566 60.1432 161.499 60.3126 164.541L60.3148 164.543Z" fill="white"/>
<path d="M51.3227 175.502C52.0939 176.553 57.9873 171.958 57.9584 170.298C56.9369 169.247 50.4977 174.376 51.3227 175.502Z" fill="white"/>
<path d="M71.5413 223.125C72.689 231.67 71.4244 240.534 68.7474 248.731C65.313 259.25 60.1683 258.728 51.7541 262.507C51.4668 262.636 48.209 263.938 49.4785 264.603C53.2318 266.573 62.895 262.081 65.9063 259.499C71.1099 255.035 73.1604 246.275 74.3754 239.686C75.0887 235.812 75.7459 227.185 73.6952 223.735C73.2532 222.99 72.2634 223.291 71.5429 223.123L71.5413 223.125Z" fill="white"/>
<path d="M70.5171 262.022C66.7476 273.141 54.8272 266.955 48.3801 273.525C49.4973 273.68 50.6135 273.922 51.7569 273.826C54.5319 273.595 64.5225 271.759 66.6892 270.573C68.8559 269.387 74.4851 263.605 70.5187 262.02L70.5171 262.022Z" fill="white"/>
<path d="M51.8119 259.118C63.6582 256.411 67.9341 242.941 68.7814 232.12C67.7441 232.207 67.6775 233.067 67.4675 233.865C66.0398 239.259 64.336 246.115 61.1278 250.782C60.0403 252.362 51.0275 258.001 51.8119 259.118Z" fill="white"/>
<path d="M64.2307 229.35C63.5814 233.756 62.4879 238.998 60.4366 242.952C59.9494 243.892 58.7271 243.449 58.9951 245.182C59.5552 245.013 60.3611 244.898 60.715 244.432C61.861 242.921 65.2215 232.289 65.2063 230.291C65.2016 229.542 65.019 228.538 64.2291 229.352L64.2307 229.35Z" fill="white"/>
<path d="M56.433 248.156L47.8416 253.661L48.1843 255.35C49.9548 254.576 51.5076 253.379 52.9548 252.124C53.4801 251.667 56.7417 248.596 56.433 248.156Z" fill="white"/>
<path d="M70.8516 259.313C73.9089 259.051 73.543 254.701 73.3269 252.486L70.8516 259.313Z" fill="white"/>
</svg>
