<svg width="278" height="281" viewBox="0 0 278 281" fill="none" xmlns="http://www.w3.org/2000/svg">
<path d="M233.88 256.192C234.933 255.234 238.528 253.851 240.072 252.849C255.038 243.12 258.613 220.339 254.738 204.11C251.451 190.343 241.158 178.157 231.213 168.582C242.616 165.938 255.449 161.585 262.444 151.587C263.024 150.757 263.212 149.564 263.804 148.823C265.004 147.315 267.732 145.61 269.194 143.966C274.154 138.384 279.028 128.55 275.707 121.174C274.929 119.45 273.671 118.404 273.261 116.324C272.761 113.783 273.751 110.444 273.356 107.614C273.141 106.068 271.988 104.607 272.009 103.563C272.029 102.529 274.272 99.9478 274.814 98.3796C275.441 96.5627 275.175 94.7259 275.583 93.314C276.1 91.5295 279.147 88.8672 276.646 86.6222C274.887 85.0431 267.78 84.3779 265.467 84.7507C262.117 85.2909 259.831 88.2637 256.381 89.4685C249.587 91.844 242.111 93.0151 235.113 94.7504C229.036 96.259 223.049 98.8029 216.692 98.8023C219.646 93.585 222.714 88.3249 224.929 82.7324C232.963 62.4511 235.138 24.9606 219.957 7.715C213.594 0.487487 208.529 -1.08948 198.966 1.28199C197.886 1.54924 196.98 2.47603 195.924 2.50186C193.928 2.55208 191.604 0.131583 187.321 0.763361C173.392 2.82067 171.71 11.82 165.196 21.5911C161.705 26.8289 156.529 33.2733 151.384 36.9274C147.128 39.9485 143.287 40.9202 141.364 46.5661C140.541 48.9799 140.944 53.2153 140.148 54.7438C139.423 56.1383 135.988 58.3931 134.846 59.8181C128.427 44.4568 118.638 30.997 106.557 19.6348C101.814 15.1739 89.7787 3.65265 83.8375 2.64269C82.4754 2.41196 81.0968 2.68808 79.8922 2.47599C73.662 1.37801 66.9119 -1.27113 60.6509 1.21423C58.4857 2.07487 55.2909 5.01066 53.5037 6.67924C38.6599 20.5322 58.2473 40.7265 61.2104 55.9085C63.263 66.4326 60.29 77.6838 61.6915 88.2787C53.4904 85.8072 43.8628 83.573 35.3017 85.6558C21.5443 89.0047 5.56258 98.1288 1.61126 112.58C-2.08672 126.107 0.497166 139.211 14.0146 145.696C16.4002 146.841 25.1256 150.175 24.3518 144.859C23.9414 142.039 21.2496 141.247 19.8819 139.324C17.8763 136.502 16.4334 130.642 18.6359 127.654C21.2207 124.146 27.9215 123.095 31.9413 123.966C38.036 125.289 44.1663 133.712 44.5182 139.745C44.7119 143.077 42.4826 148.135 46.9623 149.425C52.003 150.876 51.7832 151.218 55.3954 155.056C58.7532 158.624 61.2452 162.469 65.9843 164.637C64.0169 168.809 62.5247 172.809 61.6093 177.343C57.8488 195.976 57.7572 214.795 60.744 233.564C62.1142 242.169 67.2444 245.606 71.817 251.565C72.7214 252.746 73.1571 254.276 74.3203 255.45C76.2842 257.434 79.2604 257.935 81.3742 255.889C81.9196 255.36 81.7853 254.74 82.3208 254.546C81.9473 256.719 82.6063 264.626 81.3949 265.893C79.6543 267.714 72.5818 269.365 70.0376 269.565C66.7545 269.823 56.8445 267.725 55.141 268.496C50.594 270.549 59.2787 277.465 61.4105 278.558C69.5386 282.723 80.4692 280.545 86.9231 274.249C87.9194 273.276 90.5796 269.337 91.388 269.04C93.7504 268.17 96.1068 269.195 98.4165 269.246C111.621 269.543 126.287 266.196 136.546 257.555C146.914 248.817 155.133 233.366 155.073 219.706C155.066 218.099 154.278 216.464 154.947 214.939C174.001 226.697 199.262 227.399 216.25 242.567C218.97 244.994 223.952 250.234 225.141 253.609C226.128 256.414 225.829 260.721 229.607 261.69C233.464 262.681 232.332 257.594 233.879 256.187L233.88 256.192ZM254.042 92.7779C255.895 92.205 258.079 91.5665 259.782 90.6702C262.881 89.0422 262.995 87.286 267.254 87.0669C268.383 87.0097 274.548 87.5674 274.948 88.5407C274.806 91.5693 272.47 92.2249 270.014 93.0468C264.641 94.8456 258.648 94.1377 253.011 95.47C244.755 97.4228 242.756 100.758 236.503 104.804C231.331 108.151 226.967 107.139 221.25 107.836C217.137 108.337 213.017 109.112 209.136 110.526L214.971 101.777C216.04 100.408 217.929 101.119 219.379 100.919C229.616 99.5211 244.082 95.8523 254.041 92.7756L254.042 92.7779ZM63.4607 54.0992C60.6257 41.7969 43.6062 21.1543 53.9526 9.81322C54.9953 8.67097 57.8431 6.04813 59.0414 5.04967C64.0612 0.862635 74.0917 3.89094 79.9552 4.98196C81.1517 5.20513 82.4322 5.0207 83.5365 5.21958C88.7 6.15423 100.397 17.385 104.664 21.3891C121.177 36.8805 134.321 57.2277 138.045 79.7619C139.206 86.7828 140.185 93.7794 140.698 100.873C136.905 101.896 138.382 105.363 137.794 107.989C137.2 110.637 134.011 112.862 134.406 115.873C134.653 117.755 135.128 117.977 136.957 118C136.096 119.585 135.213 121.108 134.447 122.749C134.031 123.641 133.164 126.723 132.887 127.086C132.269 127.895 127.938 129.734 126.752 130.628C126.12 131.104 125.321 131.918 126.058 132.626C127.882 132.582 130.67 130.153 132.205 129.097C131.434 132.719 130.733 136.418 129.025 139.748C124.38 137.543 119.196 135.767 114.039 135.401C109.958 135.112 104.044 135.185 100.1 136.09C98.8672 136.372 94.7972 138.171 94.0572 137.979C93.3197 137.787 85.6673 131.688 84.5332 130.696C72.0946 119.793 66.0652 105.042 64.2931 88.755C63.0414 77.2476 66.0934 65.5431 63.4587 54.1019L63.4607 54.0992ZM53.5653 149.381C52.9367 148.861 51.5511 147.785 50.8622 147.499C48.3435 146.456 47.0515 148.229 46.8237 144.533C46.5673 140.325 48.0615 138.696 45.9238 134.021C41.1541 123.582 29.0806 116.39 18.5522 124.167C13.3144 128.037 14.1618 135.241 17.4184 140.13C18.0912 141.137 22.324 144.745 21.8589 145.437C13.8507 144.618 5.12177 137.29 3.28142 129.422C1.87573 123.412 3.32412 112.977 6.50729 107.686C14.7362 94.0014 33.9583 86.0437 49.5649 87.9699C53.6704 88.4754 57.548 89.9723 61.5699 90.8267L63.8518 101.708C59.4171 98.7344 52.9803 96.02 47.5622 95.895C47.0031 95.8823 46.7958 95.6465 46.6683 96.4993C51.4412 98.4049 58.0083 99.9038 62.0583 103.108C65.3236 105.693 65.3909 107.16 66.9278 110.635C67.4109 111.73 68.2164 112.799 68.6415 113.883C68.7753 114.227 69.2002 115.066 68.559 115.076C66.7937 111.173 63.7612 107.203 60.483 104.417C59.3655 103.467 51.4797 97.5788 50.3716 99.1672C49.5225 100.384 52.6646 101.321 53.3347 101.764C56.2256 103.669 59.7738 106.166 62.0172 108.774C69.0094 116.896 70.4039 128.649 81.2345 133.627C82.9916 134.435 84.8404 134.58 86.3208 135.24C86.6906 135.403 91.904 138.975 91.7046 139.245C81.0632 143.704 73.1458 152.747 67.2826 162.386C61.1952 159.708 58.4226 153.393 53.5649 149.379L53.5653 149.381ZM76.0397 253.513C75.19 252.595 74.8914 251.383 74.1839 250.464C71.6465 247.175 68.2108 244.782 66.2345 240.712C62.8216 233.682 62.5321 225.434 61.8639 217.804C60.0244 196.792 61.6495 172.448 75.2856 155.518C86.2763 141.872 102.525 134.539 120.099 139.126C121.664 139.535 125.648 140.674 126.906 141.382C129.129 142.632 125.802 145.146 126.028 147.126C123.628 146.106 123.378 147.411 122.466 149.394C121.066 152.444 121.339 153.761 120.833 156.648C120.632 157.791 119.131 159.529 118.985 160.933C118.693 163.719 121.004 165.346 123.588 164.875C125.416 164.544 132.079 161.081 131.958 159.02C131.835 156.937 128.983 158.941 128.037 157.315C129.348 157.005 130.807 156.998 132.101 156.65C133.874 156.173 140.46 153.527 141.635 153.849C143.004 154.226 146.024 158.776 146.764 160.167C149.785 165.86 154.347 175.488 153.122 181.782C149.685 199.438 135.715 199.888 122.03 206.834C106.092 214.92 90.4802 233.704 82.0347 249.196C80.7055 251.635 79.6643 257.427 76.0377 253.516L76.0397 253.513ZM129.722 151.969C129.364 155.581 122.984 156.171 127.431 160.303C125.96 160.883 124.147 162.577 122.539 162.558C119.823 162.526 122.977 158.076 123.109 157.037C123.229 156.092 122.866 155.27 122.923 154.404C122.985 153.449 124.03 152.28 123.776 151.114C125.772 152.687 127.303 152.567 129.722 151.969ZM60.0831 274.252C59.714 273.956 56.7976 271.208 57.0002 270.957C62.3111 271.452 67.6036 272.958 72.9859 272.024C75.1054 271.656 77.2841 270.514 79.2698 269.986C79.5992 269.898 80.3381 269.505 80.1377 270.301C79.6678 272.181 77.1574 274.431 75.5097 275.397C69.7475 278.768 65.2232 278.374 60.0835 274.254L60.0831 274.252ZM78.9016 276.118L81.8922 272.189C86.4169 265.448 83.3962 256.544 85.0737 249.508C85.5698 247.426 88.1625 243.998 89.4098 242.176C88.6079 246.699 87.8251 251.295 88.3455 255.922C88.7727 259.713 90.5383 262.598 89.1792 266.511C87.942 270.068 82.7162 275.321 78.9064 276.117L78.9016 276.118ZM152.249 219.86C152.218 227.69 149.624 235.158 145.897 241.976C135.066 261.785 113.801 268.305 92.22 266.363C92.9113 262.098 91.2255 257.927 90.9146 253.716C89.5005 234.567 109.836 215.254 125.924 207.762C128.186 206.71 130.615 206.01 132.778 204.743C131.802 214.999 125.95 223.599 119.226 231.032C116.456 234.093 113.451 237.081 110.032 239.4C110.051 240.508 111.556 239.389 111.914 239.189C116.188 236.782 120.856 232.289 124.085 228.604C130.125 221.707 134.881 212.993 135.149 203.636L136.235 203.643C134.123 213.891 132.269 225.61 124.652 233.383C118.401 239.764 109.29 245.741 101.27 249.643C100.719 249.911 100.227 249.52 100.568 250.525C108.468 248.495 115.871 243.539 122.107 238.419C129.613 232.258 132.309 228.081 135.186 218.81C136.829 213.521 137.987 208.055 137.868 202.479C138.378 202.374 138.609 203.666 138.741 204.073C140.778 210.287 139.234 221.743 137.077 227.978C134.456 235.555 123.61 246.418 117.314 251.513C116.541 252.137 112.677 254.53 112.509 254.768C111.861 255.69 113.279 255.312 113.678 255.14C121.856 251.64 135.942 237.817 139.248 229.542C140.508 226.384 141.355 221.399 141.818 217.971C142.59 212.286 143.028 206.498 139.873 201.431C141.128 200.815 141.229 202.157 141.565 203.192C143.977 210.63 143.69 220.325 141.653 227.842C139.178 236.979 131.285 244.04 125.353 251.062C126.429 251.236 127.742 249.979 128.585 249.332C134.507 244.803 141.841 236.072 144.007 228.912C146.051 222.157 146.459 214.007 145.149 207.098L151.87 213.159C152.119 213.669 152.25 218.862 152.247 219.861L152.249 219.86ZM229.994 259.007C228.037 258.558 228.142 254.373 227.625 252.775C226.582 249.563 221.675 244.01 219.156 241.582C201.807 224.847 175.278 224.494 155.259 212.355C153.25 211.137 142.344 201.786 143.622 199.757C152.196 195.836 156.348 184.576 155.881 175.656C169.591 180.823 176.2 194.558 188.206 202.704C193.951 206.602 200.999 210.552 207.734 212.226C199.056 207.541 190.253 202.858 183.031 196.034C175.907 189.301 167.247 176.905 157.705 174.001C156.99 173.784 155.545 173.98 155.175 173.606C154.832 173.258 153.73 169.698 153.328 168.816C151.815 165.486 150.221 162.177 148.644 158.875L144.045 152.922C146.085 152.672 148.138 151.614 150.108 151.203C151.962 150.818 153.888 150.846 155.648 150.513C156.994 149.278 153.378 149.007 152.64 149.04C148.317 149.225 139.17 151.829 134.956 153.401C133.129 154.083 131.454 155.258 129.638 155.967L130.986 153.589L146.896 149.205C150.042 148.357 153.368 148.805 156.511 148.014C156.737 147.958 158.772 147.322 157.928 146.702C157.672 146.513 153.314 146.418 152.618 146.471C145.476 147.033 138.23 149.422 131.486 151.68C134.602 147.922 130.011 150.065 128.224 150.363C127.903 150.414 125.907 150.543 126.105 149.838L130.96 140.535C131.121 141.564 130.614 143.109 130.332 144.141C130.125 144.899 128.786 148.436 128.827 148.672C129.069 150.053 130.888 147.133 131.058 146.851C131.434 146.232 131.685 145.091 132.002 144.699C132.366 144.249 132.958 144.692 133.35 144.156C133.828 143.504 134.268 140.858 134.72 139.809C138.501 131.014 145.076 124.633 148.786 115.916C149.087 117.035 148.163 118.731 147.703 119.819C144.442 127.535 137.182 132.404 135.908 140.819C136.405 141.223 138.182 138.548 138.67 138.286C140.111 137.515 142.774 137.051 144.538 136.27C149.008 134.289 152.909 130.774 157.189 128.525C158.431 127.874 165.294 125.241 165.501 124.838C165.641 124.565 165.612 123.882 165.481 123.737C164.81 122.984 160.102 124.815 159.108 125.227C151.666 128.314 146.84 135.15 138.964 137.25C139.731 136.423 140.078 135.349 140.678 134.425C141.526 133.114 146.922 125.753 147.713 125.116C148.065 124.832 149.375 124.713 150.29 124.179C152.349 122.978 154.573 121.083 156.421 119.546C177.066 102.379 202.686 66.1578 208.814 39.9155C209.105 38.6718 209.753 35.2043 207.977 37.7498C203.809 49.3992 199.134 60.5161 192.972 71.2682C181.541 91.2111 165.509 109.409 148.375 124.674L151.44 116.58C151.823 115.025 155.579 104.086 154.982 103.683C153.393 102.608 152.3 107.943 151.42 108.604C151.51 106.451 153.335 103.922 153.601 101.904C153.666 101.408 153.449 101.252 152.998 101.47C150.275 102.778 147.617 113.185 146.267 116.288C144.148 121.163 141.093 125.557 137.739 129.652C138.067 128.25 140.781 122.633 138.695 122.054C137.519 121.727 137.182 125.253 136.758 126.295C136.072 127.984 135.076 129.711 134.186 131.311L135.45 125.666C135.945 123.638 139.102 119.36 138.328 117.465C138.163 117.064 137.455 117.618 137.514 117.009C138.013 117.017 139.416 115.9 139.515 115.955C139.744 116.082 140.21 118.06 141.938 118.044C145.02 118.017 145.02 111.44 145.348 109.382C145.724 107.028 147.121 105.053 145.915 102.585C145.509 101.754 144.138 101.07 143.877 100.184C143.532 99.016 143.727 95.602 143.48 94.0557C142.448 87.5622 141.375 79.9911 139.979 73.6469C139.106 69.6805 137.374 65.9236 136.331 62.0117C136.522 60.3778 141.376 57.2968 142.263 55.3377C143.225 53.2074 142.677 49.7321 143.549 47.2124C145.374 41.9323 149.456 41.2082 153.423 38.4049C158.491 34.8244 163.791 28.2351 167.235 23.0687C173.186 14.1398 175.361 4.40751 188.4 3.3331C192.161 3.02295 193.963 5.71105 197.655 4.71206C200.027 4.07014 201.524 3.17762 204.322 2.93944C218.381 1.73494 225.252 20.5457 227.302 31.665C232.708 61.0089 221.268 95.2595 200.348 116.226C199.007 117.57 193.571 122.968 192.36 123.581C191.001 124.27 188.903 124.131 187.329 124.64C186.314 124.967 182.367 127.133 181.283 127.776C178.269 129.564 177.209 133.935 173.222 133.995C172.15 134.011 167.498 131.959 168.426 134.942C168.778 136.075 169.861 136.006 170.471 136.686C169.225 136.747 161.75 138.246 161.384 138.887C161.319 139.001 161.553 139.641 161.551 139.937L163.731 139.946C162.271 140.108 160.807 140.635 159.629 141.515C162.28 142.767 165.868 140.614 168.635 139.889C169.833 139.574 171.138 139.562 172.347 139.283C172.485 137.751 171.228 138.306 169.996 138.211C169.8 137.638 170.473 137.887 170.864 137.586C170.997 137.484 170.907 136.973 171.08 136.935C172.08 136.73 177.23 139.314 179.775 139.178C204.037 137.889 226.859 127.592 248.818 118.363C250.68 117.581 257.093 115.568 258.129 114.769C258.791 114.261 257.908 113.96 257.453 113.965C251.478 114.028 233.904 122.711 227.189 125.257C217.98 128.749 208.534 131.951 198.96 134.266C194.617 135.316 190.097 135.846 185.801 137.112L190.273 133.938C193.769 133.309 197.011 132.159 200.069 130.381C201.875 129.331 208.408 124.455 208.725 122.573C209.686 116.864 202.085 121.125 199.452 121.824C199.066 121.925 198.232 122.353 198.214 121.71C199.116 121.29 199.856 120.493 200.563 119.811C205.127 115.399 206.004 113.334 212.756 111.738C220.329 109.95 230.804 111.154 237.089 107.416C241.9 104.553 243.91 101.314 249.768 99.0695C256.126 96.6346 259.846 97.354 265.851 96.3223C266.586 96.1964 272.939 93.8871 272.987 94.2564C273.001 97.0247 271.513 99.3181 270.161 101.599C269.951 101.954 269.453 102.137 269.315 102.375C268.387 103.973 269.856 105.063 270.176 106.331C271.215 110.446 270.02 113.858 270.908 117.415C271.393 119.361 272.675 120.552 273.388 122.19C276.023 128.248 271.872 136.772 267.881 141.466C265.107 144.728 263.186 146.117 260.485 149.801C252.765 160.329 240.859 163.534 228.718 166.634C218.821 157.784 207.037 152.157 194.634 147.593L180.579 143.04C187.561 142.82 194.611 142.185 201.479 140.769C212.76 138.441 232.739 133.027 242.41 127.177C243.49 126.523 244.814 125.987 245.183 124.652C240.568 126.789 235.765 128.816 230.936 130.464C216.168 135.5 199.247 139.895 183.713 141.081C182.251 141.192 177.868 140.807 176.973 141.46C176.716 141.648 176.797 142.183 176.576 142.244C176.409 142.29 174.132 142.244 173.989 142.191C173.72 142.09 173.564 141.351 172.674 141.206C168.659 140.541 167.31 143.745 164.966 144.453C162.804 145.105 159.285 143.184 158.859 146.268C158.083 151.907 163.681 150.669 167.21 151.339C168.82 151.645 170.674 152.753 172.172 152.7C175.519 152.579 179.898 149.543 179.2 145.795C183.515 146.732 188.061 148.038 192.272 149.55C220.958 159.853 252.906 183.483 253.809 216.872C254.107 227.833 248.449 243.906 239.166 250.339C236.73 252.027 232.145 253.329 230.946 255.967C230.366 256.399 230.839 259.201 229.971 259.003L229.994 259.007Z" fill="white"/>
<path d="M160.567 88.6477C162.376 89.401 163.762 87.8779 163.766 86.1199C163.771 84.5209 161.785 77.2143 160.998 75.7405C158.629 71.2908 154.428 80.1921 154.998 82.4939C155.138 83.0588 155.858 83.3074 155.81 83.9809C154.131 82.854 152.458 80.9234 150.501 80.304C143.899 78.2109 147.308 84.3946 148.357 87.5836C149.538 91.1772 150.394 94.4292 152.618 97.6784C153.417 98.8467 154.556 99.6079 155.289 100.899C156.546 103.113 157.092 108.216 159.152 109.379C162.923 111.51 163.504 104.037 163.356 101.745C163.064 97.2571 161.672 92.9608 160.565 88.6505L160.567 88.6477Z" fill="white"/>
<path d="M165.708 82.2039C165.748 82.4496 166.202 82.7998 166.587 82.2189C168.191 79.799 169.466 76.4752 171.075 73.9003C172.827 71.0993 174.954 68.7983 176.735 66.115C181.564 58.8307 185.262 50.7374 188.185 42.522C188.343 43.5514 187.839 45.0963 187.557 46.1283C183.341 61.5743 176.313 77.1531 165.891 89.3654L163.245 94.0118C163.609 94.2639 167.636 90.1244 168.145 89.5846C181.57 75.3632 187.387 56.717 192.081 38.1515C193.384 32.9972 194.059 27.7289 195.616 22.5925C196.295 20.3536 199.447 14.4753 195.211 19.6447C195.44 18.0658 196.006 16.3372 196.549 14.8374C196.721 14.3666 199.555 8.91906 197.056 10.8321C193.813 13.3155 189.649 31.1029 188.084 35.898C185.16 44.8552 181.518 54.2243 176.646 62.3086C174.451 65.9521 171.595 69.269 169.534 73.1062C168.955 74.1859 165.617 81.6802 165.704 82.2046L165.708 82.2039Z" fill="white"/>
<path d="M225.36 198.035C234.926 208.09 238.483 219.238 243.909 231.602C244.154 232.162 243.714 232.695 244.76 232.346C241.312 218.522 235.39 204.941 225.199 194.801C212.285 181.953 191.564 169.822 173.29 167.59C168.031 166.947 162.685 167.18 157.43 166.603C156.49 166.5 151.139 164.991 154.147 167.247C156.397 168.933 172.176 169.389 176.434 170.157C193.312 173.195 213.623 185.702 225.357 198.036L225.36 198.035Z" fill="white"/>
<path d="M227.122 217.625C222.398 213.509 214.254 207.497 208.831 204.45C201.853 200.528 193.644 198.427 186.638 194.072C179.785 189.812 176.182 183.184 169.937 178.268C167.692 176.501 160.107 171.901 157.527 171.649C156.522 171.551 155.237 171.709 156.349 172.849C162.994 175.349 168.76 179.273 173.611 184.424C175.95 186.905 177.892 190.061 180.397 192.327C188.296 199.471 199.498 201.718 208.463 206.688C213.372 209.408 224.296 217.168 227.942 221.246C231.111 224.79 233.281 229.22 236.691 232.932C237.027 233.299 236.752 233.857 237.679 233.492C235.253 227.972 231.697 221.617 227.121 217.631L227.122 217.625Z" fill="white"/>
<path d="M183.102 177.36C203.582 184.815 218.479 202.26 234.145 216.564C234.375 216.772 235.067 217.683 235.413 217.182C235.767 216.672 228.289 208.594 227.428 207.7C211.378 191.028 197.208 177.787 174.022 172.193C171.824 171.661 156.481 168.589 155.802 169.504C155.04 170.53 158.273 171.33 158.891 171.495C166.974 173.645 174.974 174.399 183.104 177.359L183.102 177.36Z" fill="white"/>
<path d="M165.193 134.597C165.803 134.119 166.092 133.008 165.375 132.534C163.422 131.24 154.618 136.353 152.075 137.321C147.269 139.151 141.994 139.806 138.033 143.438C135.994 145.306 134.417 148.187 138.421 148.413C143.034 146.805 148.267 146.267 152.766 144.374C157.75 142.278 161.032 137.813 165.195 134.599L165.193 134.597Z" fill="white"/>
<path d="M171.968 128.849C172.563 129.541 170.544 133.94 174.068 133.203C177.382 132.512 177.661 130.134 178.525 127.655C178.745 127.025 179.501 126.509 179.575 125.914C179.631 125.455 179.457 122.169 179.326 121.713C178.882 120.145 177.598 120.215 176.614 119.377C174.536 117.612 174.899 115.302 170.897 115.604C165.325 116.028 169.488 118.49 169.265 120.347C169.188 120.983 168.007 121.328 167.581 121.957C166.468 123.605 166.613 126.379 168.384 127.498C169.088 127.943 171.41 128.203 171.963 128.848L171.968 128.849Z" fill="white"/>
<path d="M175.177 116.143C175.281 116.554 176.034 118.034 176.332 118.267C176.585 118.464 177.987 118.776 178.349 118.755C180.246 118.635 187.099 113.354 189.426 112.095C190.976 111.256 199.037 108.524 198.095 106.121C197.575 104.797 195.035 104.186 193.759 104.348C192.422 104.517 182.218 107.716 181.168 108.331C179.42 109.357 179.077 111.872 177.764 113.058C176.571 114.136 174.642 113.977 175.177 116.143Z" fill="white"/>
<path d="M201.963 24.3569C196.973 49.5345 187.736 73.8599 173.042 94.985C172.209 96.1815 170.21 97.2333 170.589 98.9907C171.626 98.0133 172.808 97.2035 173.761 96.1271C179.053 90.1461 184.781 79.7749 188.194 72.4986C195.123 57.7215 200.341 41.8251 202.344 25.551C202.421 24.9317 202.793 24.7543 201.963 24.3546L201.963 24.3569Z" fill="white"/>
<path d="M195.32 191.583C187.65 186.321 180.821 179.039 171.751 175.763C170.235 175.214 168.581 174.94 170.241 176.986C180.089 181.274 187.7 189.032 196.538 194.649C201.686 197.921 207.466 200.201 212.383 203.853L225.934 214.728C225.824 213.759 224.979 213.054 224.385 212.337C216.092 202.327 205.423 198.516 195.318 191.586L195.32 191.583Z" fill="white"/>
<path d="M212.621 140.045C207.594 141.399 202.296 142.431 197.214 143.52C196.872 143.592 191.252 144.087 192.607 145.445C192.806 145.643 197.505 145.326 198.239 145.222C202.891 144.57 209.636 142.817 214.272 141.548C221.755 139.502 229.283 136.064 236.363 132.952C236.338 132.006 236.146 132.247 235.414 132.422C228.011 134.188 220.212 137.998 212.619 140.043L212.621 140.045Z" fill="white"/>
<path d="M208.822 145.731C207.975 145.819 203.093 145.641 202.862 145.972C202.832 146.014 202.948 146.823 203.077 146.973C203.246 147.169 205.776 147.485 206.291 147.5C212.559 147.664 226.035 143.448 231.599 140.294C232.024 140.054 232.672 140.04 232.677 139.357C228.605 140.184 224.714 141.925 220.696 143.053C217.165 144.043 212.398 145.367 208.825 145.733L208.822 145.731Z" fill="white"/>
<path d="M160.382 130.815C162.349 129.879 164.698 129.654 166.644 128.611C166.716 128.477 166.132 128.006 166 127.995C164.903 127.898 161.71 128.687 160.335 128.909C159.366 129.065 154.811 132.205 153.364 132.94C152.069 133.597 144.946 136.457 144.758 136.888C144.19 138.191 145.632 137.851 146.502 137.679C152.174 136.561 155.702 133.043 160.382 130.815Z" fill="white"/>
<path d="M116.187 100.228C116.239 103.135 115.922 106.082 115.521 108.954C117.376 109.942 117.849 102.699 117.893 101.769C118.711 85.1724 112.506 69.7422 104.116 55.8245C95.0759 40.8293 85.3271 28.9565 73.2099 16.44C73.0365 16.2623 72.6131 15.2341 72.1874 15.9268C71.4973 17.049 87.1614 33.9108 88.8593 36.3C102.469 55.4414 115.763 75.9236 116.187 100.228Z" fill="white"/>
<path d="M117.022 128.261C117.336 129.01 117.445 131.724 118.573 131.293C120.13 130.694 117.493 125.008 116.781 123.845C115.881 122.374 112.659 119.081 112.355 117.94C112.213 117.412 112.419 116.562 112.293 115.838C111.983 114.067 111.367 106.914 109.671 106.456C108.532 106.147 109.53 107.893 109.601 108.285C110.08 110.942 110.296 113.632 111.233 116.173L109.025 112.537C104.398 98.4968 102.988 82.5529 96.7348 69.0298C96.4865 68.4946 96.9509 67.9204 95.8873 68.2779C97.0521 72.6109 98.3981 76.9268 99.4341 81.2976C102.11 92.5975 103.596 109.183 109.991 118.542C112.325 121.959 115.335 124.249 117.022 128.263L117.022 128.261Z" fill="white"/>
<path d="M107.969 104.926L108.762 105.337C108.911 88.2702 105.3 70.3998 96.8938 55.4371C93.401 49.2204 88.7007 43.6708 84.6032 37.8429C84.2722 37.3725 84.535 36.9483 83.6236 37.2764C86.1708 43.32 90.8714 48.2014 94.2115 53.958C103.419 69.8245 105.719 86.9491 107.969 104.926Z" fill="white"/>
<path d="M124.082 94.3637C124.387 97.6995 123.828 101.689 123.245 104.999C123.089 105.888 121.492 111.366 121.758 111.573C122.392 112.063 123.583 108.525 123.702 108.136C129.059 90.7465 120.115 72.6029 112.809 57.2106L110.07 52.5784C115.397 66.3171 122.706 79.342 124.084 94.3609L124.082 94.3637Z" fill="white"/>
<path d="M114.391 184.155C116.476 180.955 118.285 177.001 120.146 173.627C120.453 173.069 123.032 170.271 121.693 169.743C121.083 169.504 120.952 169.897 120.556 170.176C117.885 172.058 114.728 179.531 112.693 182.617C108.127 189.543 101.024 194.152 95.3768 200.112C89.2921 206.536 84.6948 214.926 81.3142 223.071C80.3246 225.455 79.2211 228.321 78.8672 230.828C83.3214 224.488 85.9175 216.91 90.0832 210.347C96.853 199.68 108.052 193.885 114.391 184.155Z" fill="white"/>
<path d="M97.2512 178.988C102.546 175.606 109.074 174.279 113.932 170.089C114.199 172.023 114.319 173.955 113.963 175.882C117.015 174.511 115.086 170.449 115.397 168.646C115.433 168.43 118.828 165.092 116.731 164.928C116.177 164.886 112.945 168.138 112.096 168.762C107.012 172.507 100.744 173.911 95.5583 177.452C90.0655 181.201 84.6349 188.928 81.4173 194.736C80.8472 195.765 77.4385 201.986 80.109 199.1C85.3055 192.432 89.9796 183.636 97.2536 178.987L97.2512 178.988Z" fill="white"/>
<path d="M78.8596 224.115C83.3438 216.774 86.4283 207.005 91.9367 200.446C96.3646 195.175 103.078 190.869 106.983 185.219C107.272 184.803 108.694 182.511 108.738 182.268C108.81 181.875 108.799 180.364 108.042 180.829C104.536 186.321 99.285 190.142 94.7103 194.639C90.6669 198.612 88.3879 201.202 85.6428 206.212C81.9758 212.9 78.9328 220.202 76.1118 227.283C76.5978 227.603 78.5742 224.582 78.8596 224.115Z" fill="white"/>
<path d="M88.6271 196.811C91.7679 192.262 95.7193 186.607 99.9955 183.149C100.464 182.77 106.039 179.456 104.984 178.786C97.6187 180.811 92.4959 187.555 88.9042 193.888C88.5048 194.592 85.8344 199.624 86.236 199.924C86.8947 200.417 88.3392 197.232 88.6295 196.811L88.6271 196.811Z" fill="white"/>
<path d="M83.8791 139.072C84.427 137.814 81.4763 138.018 80.6973 137.828C76.3703 136.771 74.8809 135.324 72.7642 131.51C68.1008 123.1 65.5549 113.047 57.5826 106.698C52.4312 102.597 39.8898 98.9701 33.331 98.7255C32.5236 98.6941 32.3765 98.664 32.6222 99.4884C42.2985 102.618 53.1706 104.292 59.8665 112.616C65.1666 119.207 69.5895 134.677 75.3894 138.25C76.9886 139.236 82.8744 141.378 83.8794 139.075L83.8791 139.072Z" fill="white"/>
</svg>
