<svg width="135" height="78" viewBox="0 0 135 78" fill="none" xmlns="http://www.w3.org/2000/svg">
<path d="M47.7034 4.10805C49.0366 3.39343 50.3064 2.56461 51.7091 1.97951C54.6632 0.746645 57.711 0.0518463 60.9314 0.0526129C63.3382 0.0524005 65.1312 1.14821 66.7368 2.80795C71.5242 7.75493 76.1722 12.8245 80.498 18.1797C82.0675 20.1242 83.5915 22.1064 85.0971 24.1017C85.4973 24.6311 85.741 24.5821 86.2366 24.2066C92.7107 19.318 99.3297 14.6496 106.787 11.3241C110.875 9.50115 115.098 8.15592 119.636 8.06614C123.349 7.99401 126.737 8.82532 129.475 11.5201C129.523 11.5688 129.616 11.5725 129.685 11.5961C130.378 12.4282 131.073 13.2604 131.766 14.0925C131.805 14.2093 131.82 14.3437 131.887 14.4434C133.056 16.2305 133.816 18.1843 134.175 20.2835C135.174 26.128 133.401 31.1929 129.728 35.689C128.822 36.7976 127.822 37.8285 126.866 38.8955C125.517 40.0175 124.169 41.1371 122.82 42.2591C121.766 42.9452 120.716 43.6366 119.659 44.3176C114.991 47.321 109.978 49.5982 104.772 51.5055C98.8157 53.6885 92.6069 54.7549 86.3882 55.7958C86.0327 55.8542 85.6778 55.9595 85.3201 55.961C82.9168 55.9763 81.0847 57.209 79.2239 58.5646C69.7467 65.4597 59.539 70.9677 48.2954 74.4398C40.5848 76.821 32.7152 78.1163 24.6189 77.6399C18.7937 77.2985 13.1881 76.0982 8.07588 73.1259C6.78384 72.3742 5.56816 71.5162 4.49582 70.467C4.40987 70.3827 4.28007 70.3462 4.17186 70.2894C3.51234 69.4974 2.85038 68.7051 2.19086 67.913C2.11943 67.7513 2.06602 67.5814 1.97635 67.4303C-0.322531 63.6308 -0.230621 59.8173 1.96947 56.0328C3.89723 52.7158 6.79689 50.387 10.0159 48.42C13.8984 46.0486 18.0894 44.373 22.4242 43.0357C29.5335 40.838 36.8295 39.586 44.2098 38.7849C44.7254 38.7289 44.89 38.6283 44.8021 38.0563C44.2107 34.1652 43.7491 30.2565 43.3374 26.3425C42.815 21.3791 42.2233 16.4192 42.1976 11.4178C42.1931 10.5825 42.299 9.80672 42.7977 9.07689C43.4241 8.16426 44.197 7.37592 44.8483 6.48775C45.799 5.69607 46.7522 4.90461 47.7029 4.11293L47.7034 4.10805ZM70.1528 38.4234L70.1699 38.425C69.9947 38.399 69.8169 38.3482 69.6435 38.3569C63.4124 38.6209 57.1772 38.7959 50.9527 39.1763C39.9075 39.8494 29.074 41.7045 18.6387 45.5046C13.3267 47.4391 8.50668 50.1896 4.65148 54.408C3.23674 55.9549 2.14193 57.7232 1.54751 59.7618C1.48974 59.9608 1.27135 60.2707 1.60919 60.3511C2.76496 60.6273 3.93346 60.8456 5.23797 61.1134C4.619 59.7734 4.11592 58.5944 3.52987 57.4594C3.23252 56.8853 3.28673 56.4569 3.81986 55.9691C4.84869 58.1077 5.86532 60.2181 6.94162 62.4571C5.15522 62.0933 3.5222 61.751 1.88449 61.4328C1.664 61.3904 1.26745 61.0904 1.25538 61.6237C1.24658 61.9873 0.966409 62.5132 1.7311 62.5909C3.08953 62.7282 4.43988 62.9534 5.79495 63.1273C6.80146 63.2569 7.37465 62.4945 7.00987 61.5276C6.91097 61.2624 6.80674 61.0016 6.70784 60.7364C6.0379 58.9854 5.3882 57.2289 4.68735 55.4924C4.47066 54.9528 4.81912 54.6229 5.12004 54.488C5.48791 54.3224 5.45985 54.8419 5.54368 55.0565C6.30283 56.9634 7.04375 58.881 7.75688 60.8058C7.95844 61.3489 8.12588 61.5391 8.78372 61.3042C10.0816 60.8399 11.3405 61.0937 12.3863 62.0296C13.4665 62.9933 13.9191 64.2121 13.6071 65.6462C13.1891 67.563 11.4063 68.8224 9.49415 68.5923C7.56956 68.3635 6.11652 66.735 6.18353 64.7736C6.20049 64.2408 6.03542 64.132 5.57416 64.0797C4.3709 63.9444 3.16812 63.7771 1.97224 63.5883C1.52501 63.5176 1.35534 63.566 1.51359 64.0706C1.76914 64.8846 2.08208 65.6645 2.53068 66.3904C4.47804 69.5345 7.45303 71.4261 10.6613 73.0338C10.9959 73.2025 11.1278 73.1358 11.2977 72.8166C14.0011 67.7165 18.1855 64.021 22.8743 60.8471C26.7846 58.2 31.0443 56.2057 35.4706 54.5714C42.8501 51.8495 50.5083 50.3328 58.2956 49.3697C65.8134 48.4409 73.3774 47.9745 80.9038 47.1401C88.5149 46.2962 96.0528 45.0689 103.302 42.5073C109.388 40.356 115.206 37.6628 120.265 33.5527C123.498 30.9246 126.44 28.0235 128.562 24.3967C130.695 20.7513 131.409 16.9827 129.372 13.0226C127.756 10.404 125.345 9.10361 122.354 8.75455C122.986 9.30769 123.454 9.95654 123.908 10.6509C124.369 11.3557 125.212 11.7017 125.877 12.2209C126.087 12.383 126.245 12.2105 126.429 12.1166C127.185 11.7256 127.923 11.8033 128.603 12.2944C128.892 12.5032 129.127 12.7834 129.388 13.0291C129.234 13.0962 129.271 13.2079 129.285 13.3447C129.425 14.5322 129.028 15.3083 128.105 15.6889C127.27 16.0331 126.487 15.7813 125.735 14.9143C125.631 14.7938 125.564 14.6374 125.376 14.7162C124.887 14.9199 124.326 14.925 124.17 15.6863C124.007 16.4643 124.037 17.0556 124.622 17.634C124.966 17.971 125.201 18.4211 125.469 18.8299C125.737 19.2363 125.977 19.475 126.578 19.3186C127.495 19.0779 128.394 19.6802 128.715 20.5593C129.052 21.4842 128.696 22.4809 127.858 22.9627C127.072 23.4125 125.873 23.3071 125.414 22.5384C125.012 21.8661 124.458 21.7733 123.84 21.6351C123.463 21.5512 123.08 21.4766 122.714 21.3567C122.156 21.1724 121.761 21.2345 121.452 21.8243C121.183 22.3413 120.847 22.8793 120.405 23.2424C119.264 24.1741 119.33 25.217 119.832 26.4354C120.052 26.9679 120.2 27.3139 120.87 27.4273C122.119 27.6357 122.855 28.824 122.676 30.0781C122.498 31.3152 121.419 32.1911 120.171 32.1132C118.915 32.0347 117.834 31.0536 117.933 29.8167C118.003 28.9194 117.609 28.595 116.929 28.3255C116.762 28.2585 116.591 28.1837 116.448 28.0794C116.051 27.7916 115.731 27.8607 115.351 28.1606C114.606 28.7545 113.884 29.4417 113.031 29.8188C111.619 30.4425 111.267 31.4911 111.287 32.8745C111.294 33.3357 111.303 33.5828 111.824 33.7686C112.966 34.1716 113.552 35.4617 113.22 36.6034C112.866 37.8267 111.728 38.542 110.49 38.3272C109.317 38.1233 108.306 37.0009 108.553 35.8489C108.748 34.936 108.319 34.5296 107.778 34.0514C107.605 33.8976 107.428 33.736 107.305 33.5424C107.055 33.1452 106.779 33.1986 106.395 33.3553C105.229 33.8292 104.074 34.3829 102.859 34.6627C101.595 34.9551 101.079 35.5775 101.097 36.8475C101.106 37.3728 101.075 37.6851 101.65 37.9695C102.678 38.4803 103.077 39.7729 102.684 40.8326C102.269 41.9419 101.117 42.5895 99.9639 42.3603C98.8521 42.1423 97.8502 41.0774 98.0627 40.0011C98.2575 39.0094 97.7777 38.5417 97.1867 37.9972C96.8275 37.6662 96.5122 37.2875 96.1884 36.9204C95.983 36.6872 95.7621 36.5955 95.4412 36.6522C94.02 36.9031 92.5965 37.1243 91.1757 37.3704C90.7245 37.4495 90.0059 39.6588 90.3166 39.9805C90.4021 40.0696 90.5474 40.0978 90.6461 40.1782C91.2065 40.6263 91.6329 41.1654 91.6875 41.9117C91.7602 42.8911 91.407 43.6737 90.5571 44.2013C89.7044 44.7311 88.821 44.7114 88.0043 44.1807C87.1293 43.6126 86.7782 42.7652 86.9442 41.7117C86.9898 41.4302 87.2468 41.1559 86.9824 40.841C86.2047 39.9125 85.5798 38.7714 84.6198 38.1093C83.9404 37.6405 82.8208 38.0965 81.8962 38.0681C81.8446 38.0658 81.7915 38.0806 81.7426 38.0761C81.35 38.0277 81.1422 38.1957 81.0087 38.575C80.728 39.3742 80.4185 40.1657 80.0829 40.945C79.9103 41.3478 79.894 41.5778 80.3217 41.888C81.135 42.4824 81.4387 43.3624 81.1824 44.3534C80.9266 45.3371 80.252 45.9424 79.2514 46.1237C78.2357 46.3085 77.4075 45.9294 76.8516 45.0829C76.2958 44.2363 76.298 43.3278 76.853 42.4677C77.0429 42.1725 77.2394 41.9664 76.9452 41.5995C76.1374 40.5968 75.3696 39.5609 74.5832 38.5404C74.4442 38.3626 74.3341 38.1383 74.0464 38.1561C72.7467 38.2385 71.4353 38.1523 70.1501 38.4256L70.1528 38.4234ZM131.403 15.5243C131.396 15.5976 131.372 15.6939 131.389 15.7841C131.933 18.8459 131.164 21.6564 129.727 24.3291C127.695 28.1142 124.695 31.0692 121.48 33.8295C117.651 37.1145 113.231 39.4117 108.646 41.4254C101.477 44.573 93.9236 46.3136 86.2062 47.4284C78.3214 48.5672 70.3678 49.0323 62.4519 49.8653C54.4513 50.7078 46.5182 51.916 38.8462 54.4411C30.386 57.2237 22.5645 61.1043 16.3063 67.6405C14.7377 69.2791 13.3623 71.0684 12.2617 73.0604C12.1138 73.3275 11.8441 73.6056 12.3937 73.8236C14.7947 74.771 17.2492 75.5385 19.7692 76.1028C20.1487 76.187 20.2241 76.0634 20.1813 75.7246C20.1101 75.159 20.1424 74.5931 20.2263 74.0295C20.6584 71.1289 22.2874 68.9147 24.3657 66.9906C27.2525 64.3183 30.6631 62.4674 34.242 60.903C41.3767 57.7866 48.8825 55.9161 56.4862 54.4018C61.4699 53.4098 66.5485 53.1013 71.5806 52.4684C80.9859 51.2872 90.3774 50.0408 99.5928 47.7611C107.615 45.7755 115.425 43.2484 122.25 38.3797C127.354 34.7393 130.976 30.0513 132.316 23.8186C132.929 20.9642 133.325 18.1047 131.397 15.5287L131.403 15.5243ZM116.285 25.5944C118.063 24.1696 119.64 22.5514 120.934 20.6758C122.416 18.5318 123.561 16.2484 123.523 13.5533C123.48 10.5893 121.482 8.7162 118.518 8.82032C116.782 8.88217 115.103 9.24981 113.457 9.77556C107.954 11.5349 102.978 14.3696 98.0821 17.3545C94.3437 19.6332 90.7441 22.1193 87.1859 24.6633C85.9428 25.5512 86.0844 25.2712 86.8706 26.3753C88.8556 29.1634 90.7148 32.0334 92.4276 34.9934C92.6808 35.4304 92.9519 35.512 93.4247 35.4127C95.3612 35.0023 97.2944 34.5743 99.1993 34.0256C105.403 32.2396 111.248 29.7311 116.287 25.5921L116.285 25.5944ZM79.697 56.9878C79.6859 56.9473 79.6748 56.9069 79.6637 56.8665C79.4945 56.8829 79.3234 56.8943 79.1559 56.9183C76.7359 57.2768 74.3163 57.6305 71.8974 58.0039C62.5317 59.4521 53.1841 60.9981 44.0562 63.6134C39.5785 64.8957 35.1461 66.3275 31.2511 68.9957C29.7799 70.003 28.536 71.2208 28.065 73.017C27.7908 74.0679 28.1678 74.9818 28.7646 75.8395C29.3309 76.6525 30.1327 76.5687 30.9686 76.515C42.9842 75.7218 54.031 71.8154 64.5472 66.1708C68.4486 64.077 72.2346 61.7903 75.9733 59.4279C77.2272 58.637 78.4532 57.8017 79.6945 56.9875L79.697 56.9878ZM48.6932 33.7428C48.8182 35.0915 48.8678 36.4012 48.618 37.6957C48.5293 38.1505 48.6415 38.2175 49.0573 38.1745C58.1994 37.2277 67.3778 37.2791 76.5502 37.1823C81.2695 37.1338 85.9665 36.7384 90.6228 35.9281C91.0413 35.8558 91.3336 35.8138 91.0102 35.2817C89.0312 32.0263 86.9156 28.8618 84.6949 25.7664C84.4325 25.4024 84.1148 25.1565 83.6875 24.9768C82.3515 24.4081 81.1731 23.6004 80.1557 22.5439C79.5907 21.9575 79.1538 21.2648 78.5271 20.5447C78.5108 21.1785 78.5038 21.6556 78.482 22.1338C78.403 23.8774 77.9719 25.5345 77.2679 27.1295C77.0905 27.5294 76.9411 27.5994 76.5509 27.364C75.2704 26.5936 74.0679 25.727 72.9457 24.7372C72.0243 23.9235 71.2596 22.9617 70.381 22.0583C70.2161 22.3756 70.279 22.6572 70.2761 22.9303C70.2434 25.215 69.8374 27.431 69.1515 29.6063C69.0049 30.0731 68.8597 30.1779 68.4318 29.8972C67.292 29.1521 66.1551 28.4023 65.1587 27.466C64.3122 26.669 63.4822 25.8539 62.5627 24.9665C62.9291 27.4702 62.8246 29.8394 62.2308 32.1932C62.0565 32.8814 61.8627 33.0582 61.1754 32.7019C59.7091 31.9415 58.3157 31.0844 57.0384 30.0385C56.4193 29.5309 55.8136 29.0122 55.081 28.3981C55.3112 30.8006 55.0581 32.9887 54.4514 35.1344C53.8083 37.4073 53.4773 37.5197 51.4782 36.171C50.4543 35.4808 49.5707 34.6312 48.6934 33.7403L48.6932 33.7428ZM132.867 25.928C132.22 27.7056 131.483 29.4207 130.507 31.0251C127.494 35.9736 123.094 39.3661 118.077 42.0591C112.282 45.1706 106.071 47.1455 99.7128 48.708C90.7458 50.9145 81.617 52.1727 72.4699 53.3358C66.1896 54.1346 59.8566 54.5419 53.6578 55.9565C46.3758 57.6186 39.1659 59.4893 32.4226 62.8017C29.0754 64.4466 25.91 66.3668 23.5071 69.3003C22.2208 70.8713 21.2439 72.6185 20.9525 74.6603C20.7767 75.9 21.3207 76.6347 22.489 76.8283C24.0579 77.0909 25.5729 76.6515 27.2162 76.5072C25.5089 74.2914 25.9051 72.21 27.3547 70.2305C28.6436 68.4701 30.4499 67.304 32.3392 66.281C36.0196 64.2851 39.9662 62.9588 43.977 61.8207C53.2289 59.1972 62.6847 57.5479 72.159 55.9914C79.6277 54.7651 87.1524 53.8419 94.5707 52.3326C104.226 50.3667 113.211 46.7263 121.341 41.1059C124.622 38.8368 127.592 36.2264 129.902 32.9371C131.394 30.8113 132.494 28.5114 132.87 25.9258L132.867 25.928ZM70.2274 8.31529C68.6301 6.59229 67.0977 4.99592 65.6322 3.34168C64.2674 1.80013 62.5797 0.979964 60.5459 0.972633C55.5296 0.951944 51.0424 2.39099 47.2133 5.76215C44.8332 7.85802 43.0399 10.1433 43.2476 13.5411C43.3806 15.7401 43.6042 17.9204 43.9464 20.2051C51.535 13.6288 60.1464 9.5771 70.2276 8.31285L70.2274 8.31529ZM78.4882 17.8322C77.4531 16.5919 76.4874 15.4835 75.5852 14.3269C75.2037 13.8362 74.8046 13.7256 74.2065 13.7666C63.2425 14.5211 53.8298 19.1344 45.0916 25.4203C44.9172 25.5471 44.6839 25.6439 44.7248 25.9505C44.9508 27.6483 45.1646 29.345 45.3914 31.1143C55.4886 24.2886 66.2079 19.3054 78.4908 17.83L78.4882 17.8322ZM74.2814 12.818C73.5557 12.0223 72.8819 11.4654 72.4433 10.765C71.5925 9.39882 70.4768 9.22231 68.9809 9.45407C59.6029 10.9012 51.4457 14.8666 44.3845 21.1517C44.2557 21.2654 44.0827 21.3504 44.1158 21.58C44.2598 22.5611 44.394 23.5412 44.5411 24.5964C53.4945 18.2491 62.9802 13.5391 74.279 12.8178L74.2814 12.818ZM8.13095 62.7438C6.94729 63.7357 6.80243 65.4979 7.80439 66.6687C8.79748 67.8288 10.6112 67.976 11.7546 66.9927C12.9252 65.9824 13.06 64.2488 12.0552 63.0556C11.0572 61.8679 9.3362 61.7318 8.13095 62.7438ZM72.4504 19.828C71.8907 19.9612 71.3726 20.0982 70.8498 20.2053C70.4176 20.2936 70.4356 20.4725 70.6665 20.777C72.2046 22.795 73.9589 24.5792 76.1078 25.9614C76.5362 26.2372 76.645 26.1266 76.791 25.7189C77.4446 23.8952 77.666 22.0243 77.4729 20.1029C77.3467 18.8477 77.3349 18.8417 76.0819 19.1943C76.8078 20.98 76.9318 21.5085 76.8108 22.2879C76.5956 23.6619 75.3162 24.3002 74.0921 23.6409C73.6035 23.3768 73.2555 22.9778 72.9977 22.4838C72.57 21.6638 72.4664 20.78 72.4529 19.8282L72.4504 19.828ZM53.7803 27.0964C53.2692 27.3719 52.8056 27.6396 52.3252 27.8761C51.8577 28.1065 51.7423 28.315 52.1365 28.7748C53.0205 29.8067 53.4649 31.0346 53.4013 32.3955C53.3276 33.9746 52.0146 34.6566 50.6824 33.8051C49.5504 33.0829 48.9723 31.9954 48.8509 30.6618C48.8337 30.4731 48.9386 30.2439 48.7067 30.1117C47.6126 30.8262 47.5199 30.6009 48.4185 31.7696C48.8413 32.3207 49.2823 32.8612 49.7558 33.3702C50.6155 34.2915 51.5332 35.1442 52.6611 35.7504C53.0675 35.97 53.2117 35.9044 53.343 35.4683C53.7757 34.0355 54.0968 32.5826 54.1802 31.0856C54.2535 29.7527 54.2228 28.425 53.783 27.0942L53.7803 27.0964ZM64.0393 22.4526C63.7061 22.3751 63.4618 22.5644 63.2043 22.6565C62.3528 22.9598 62.3376 22.9905 62.9234 23.7265C64.34 25.5092 65.9752 27.0609 67.8552 28.3641C68.3675 28.7191 68.4608 28.5627 68.5905 28.0649C69.1349 25.9799 69.3764 23.8646 69.2955 21.7147C69.2519 20.5533 69.2528 20.5706 68.1335 20.9429C67.6934 21.0896 67.6917 21.2421 67.9629 21.565C68.4878 22.1846 68.8602 22.8813 68.9394 23.7086C69.0539 24.9037 68.4646 25.9749 67.5295 26.2755C66.5564 26.5873 65.4109 26.0387 64.8109 25.0009C64.3513 24.2075 64.1298 23.345 64.0391 22.455L64.0393 22.4526ZM58.4914 29.8446C59.2818 30.5551 60.1754 31.0806 61.098 31.5595C61.3875 31.7093 61.3915 31.4782 61.4261 31.3163C61.9765 28.8182 61.9469 26.3258 61.3297 23.8409C61.2719 23.6115 61.188 23.4511 60.9216 23.5867C60.4147 23.8429 59.8381 23.9721 59.3362 24.3618C59.9279 24.926 60.454 25.4521 60.8071 26.1175C61.3111 27.0726 61.5135 28.0344 60.8797 29.0276C60.3008 29.9323 59.4604 30.0076 58.4914 29.8446ZM65.0508 22.0186C65.011 23.1207 65.2527 24.0048 65.8445 24.7562C66.1822 25.1862 66.6336 25.5602 67.2443 25.3282C67.8679 25.0901 67.9994 24.5185 67.9768 23.9328C67.9417 23.0012 67.4211 22.3081 66.7363 21.6565C66.6736 22.1236 66.816 22.6662 66.2243 22.826C65.6554 22.978 65.4044 22.5437 65.0532 22.0189L65.0508 22.0186ZM47.4305 38.3277C47.4826 38.1897 47.5423 38.0769 47.5682 37.9562C48.0318 35.8121 47.8311 33.7324 46.9969 31.7028C46.8638 31.3803 46.729 31.4245 46.4793 31.5395C45.9337 31.7873 46.2146 32.084 46.3986 32.389C47.3111 33.9161 47.6803 35.398 46.2192 36.8594C45.82 37.2585 46.0285 37.913 46.2596 38.2963C46.4625 38.6376 47.009 38.2988 47.428 38.3275L47.4305 38.3277ZM57.6021 26.0295C57.545 26.864 57.7466 27.6213 58.2237 28.2784C58.5692 28.7584 59.0559 29.1233 59.672 28.8328C60.2545 28.5588 60.3871 28.0022 60.2603 27.397C60.1094 26.6788 59.7282 26.1044 59.16 25.6335C58.6003 26.4636 58.3957 26.5162 57.6043 26.0322L57.6021 26.0295ZM49.9323 29.8157C50.0476 31.1364 50.0874 32.2851 51.1947 32.9805C51.8777 33.4102 52.373 33.1726 52.4205 32.389C52.4772 31.451 52.2339 30.584 51.6509 29.7915C51.1532 30.8047 50.701 30.8419 49.9323 29.8157ZM75.5273 38.1692C76.2968 39.1857 77.0164 40.1556 77.7596 41.1105C78.0793 41.5216 78.7749 41.5462 78.9529 41.1391C79.3435 40.2441 79.6745 39.3265 80.0295 38.416C80.0679 38.321 80.1291 38.1912 80.0254 38.1398C79.924 38.0886 79.774 38.0846 79.665 38.1165C79.4015 38.1932 79.3815 38.4647 79.2959 38.6711C79.0169 39.3448 78.7546 40.025 78.4662 40.747C77.7546 40.0388 77.343 39.2597 76.8414 38.5462C76.5055 38.0696 76.1359 37.9322 75.5295 38.1719L75.5273 38.1692ZM73.4761 19.8559C73.4241 21.011 73.547 22.0073 74.4458 22.6909C75.1234 23.2063 75.8091 22.8828 75.8586 22.0501C75.9022 21.2808 75.7431 20.5446 75.1964 19.9206C74.4793 20.9332 74.0651 20.932 73.4761 19.8559ZM128.304 13.0475C127.859 12.5239 127.103 12.4593 126.584 12.8992C126.068 13.3368 125.983 14.1269 126.395 14.6351C126.811 15.1487 127.717 15.2221 128.211 14.7849C128.713 14.3386 128.753 13.5765 128.304 13.0475ZM121.408 28.7967C120.922 28.2102 119.998 28.1203 119.399 28.5996C118.784 29.0921 118.693 30.0787 119.209 30.663C119.698 31.2177 120.67 31.2899 121.237 30.8102C121.815 30.3216 121.894 29.3807 121.408 28.7967ZM79.9902 42.8647C79.5241 42.2751 78.596 42.1774 77.9851 42.6532C77.3768 43.1266 77.2486 44.0383 77.708 44.647C78.1605 45.2501 79.0936 45.3729 79.7083 44.9098C80.3628 44.4159 80.4918 43.497 79.9926 42.8649L79.9902 42.8647ZM112.028 35.0851C111.537 34.4711 110.649 34.3475 110.034 34.8081C109.428 35.2621 109.311 36.1846 109.782 36.7969C110.284 37.4513 111.212 37.581 111.83 37.0837C112.424 36.604 112.515 35.6914 112.031 35.0854L112.028 35.0851ZM90.3752 41.2467C89.8591 40.6378 89.0124 40.5672 88.3981 41.0796C87.7755 41.601 87.6945 42.4284 88.2019 43.0513C88.7337 43.7036 89.6 43.7759 90.235 43.226C90.8353 42.705 90.8955 41.8634 90.3752 41.2467ZM101.486 39.0823C100.964 38.4802 100.103 38.4035 99.4999 38.907C98.8827 39.424 98.8227 40.3444 99.3707 40.9538C99.8942 41.5364 100.775 41.5878 101.37 41.0688C101.965 40.5498 102.017 39.695 101.486 39.0823ZM85.784 37.9185C86.4546 38.7239 87.0078 39.3855 87.5607 40.0495C87.6473 40.1535 87.7655 40.2629 87.886 40.1854C88.4364 39.8321 89.348 39.9209 89.3918 38.935C89.4048 38.6604 89.5598 38.3964 89.6001 38.1193C89.6231 37.9491 89.8817 37.7118 89.589 37.5962C89.325 37.4907 89.1874 37.7268 89.086 37.944C88.8485 38.4614 88.6113 38.9765 88.3865 39.4631C87.4712 39.039 87.2683 37.7324 85.784 37.9185ZM57.7268 29.2571C56.778 28.2587 56.6316 26.9819 56.5464 25.6295C56.0527 25.8771 55.655 26.0991 55.2388 26.28C54.8125 26.4649 54.7569 26.6666 55.1014 26.9963C55.9308 27.7917 56.7437 28.6052 57.7268 29.2571ZM127.826 20.4628C127.399 19.9334 126.631 19.8357 126.093 20.2442C125.571 20.6419 125.483 21.5401 125.917 22.0503C126.351 22.5582 127.123 22.6168 127.651 22.1803C128.19 21.7349 128.262 21.0077 127.826 20.4652L127.826 20.4628ZM82.8336 23.3222C82.1564 22.4275 81.4846 21.5284 80.7996 20.638C80.4869 20.23 80.1476 19.8442 79.8296 19.4406C79.6707 19.2388 79.4737 19.2625 79.2735 19.3205C79.1063 19.3691 79.1286 19.5017 79.1963 19.6237C80.0796 21.1726 81.2093 22.4832 82.8314 23.3195L82.8336 23.3222ZM123.628 17.9341C123.55 18.7765 124.164 19.3427 124.35 20.1675C123.883 20.0409 123.492 19.9458 123.111 19.8246C122.807 19.7276 122.599 19.7849 122.527 20.1107C122.451 20.4608 122.77 20.3646 122.92 20.4054C123.415 20.5421 123.921 20.6452 124.424 20.7531C124.608 20.7922 124.843 20.9641 124.96 20.6842C125.071 20.4186 125.312 20.16 125.056 19.8336C124.571 19.2078 124.102 18.5687 123.628 17.9365L123.628 17.9341ZM109.619 33.4819C109.247 33.1793 108.896 32.891 108.543 32.6048C108.373 32.466 108.19 32.5009 108.055 32.6313C107.852 32.822 108.065 32.945 108.178 33.0637C108.461 33.3607 108.75 33.6459 109.039 33.9384C109.147 34.0493 109.261 34.1804 109.427 34.0627C109.838 33.7755 110.423 33.6667 110.341 32.9204C110.293 32.4801 110.459 32.0152 110.548 31.4447C109.306 31.8378 110.079 32.8422 109.619 33.4819ZM118.557 25.5325C118.106 26.22 118.736 26.8566 118.555 27.5615C118.104 27.3205 117.697 27.1082 117.293 26.8888C117.135 26.8029 116.98 26.7985 116.887 26.9549C116.781 27.1373 116.931 27.2323 117.069 27.3066C117.479 27.5191 117.882 27.7507 118.309 27.9304C118.701 28.0945 119.188 27.7306 119.096 27.3404C118.949 26.731 118.74 26.1379 118.556 25.5374L118.557 25.5325ZM97.0203 36.401C97.5465 36.9542 98.0544 37.491 98.5645 38.0304C98.7196 38.1949 98.8719 38.1744 99.0389 38.047C99.2723 37.869 99.1028 37.7278 98.9882 37.6064C98.5814 37.1775 98.166 36.76 97.7483 36.3423C97.5088 36.1036 97.2875 36.2581 97.023 36.3987L97.0203 36.401ZM99.4052 37.7113C100.566 37.3428 99.9903 36.3097 100.23 35.5807C99.1452 35.9537 99.7229 37.019 99.4052 37.7113ZM124.413 12.3792C124.423 12.8555 124.431 13.2551 124.443 13.6552C124.448 13.8206 124.499 13.9854 124.707 13.8986C124.974 13.7853 125.314 13.7895 125.44 13.4293C125.565 13.0713 125.251 13.0006 125.082 12.8496C124.902 12.6878 124.684 12.5667 124.412 12.3817L124.413 12.3792ZM45.8846 35.484C46.3842 34.6631 46.1833 33.9256 45.6382 33.2302C45.7195 33.9814 45.8008 34.7326 45.8846 35.484ZM78.2276 39.2131C78.4522 38.889 78.7581 38.4591 78.6047 38.1962C78.4274 37.8992 77.9194 38.1135 77.5226 38.0844C77.6642 38.5554 77.9093 38.8932 78.2303 39.2108L78.2276 39.2131Z" fill="#EC1C24"/>
<path d="M18.0391 52.8C19.4887 52.4014 20.7765 52.5568 21.9135 53.5455C23.231 54.6912 23.5752 56.7397 22.6667 58.2519C21.7114 59.8435 19.7328 60.5233 18.0323 59.8424C16.3269 59.1609 15.2627 57.3269 15.7532 55.6137C15.9928 54.7788 15.7936 54.4773 15.0539 54.1556C13.2401 53.3657 11.4642 52.4857 9.67559 51.6365C9.44649 51.5268 9.18288 51.4705 9.01391 51.2432C9.39836 50.7097 9.81309 50.5977 10.4542 50.9201C12.2718 51.8286 14.1231 52.6663 15.9622 53.5299C16.8084 53.9279 17.1256 53.6961 17.049 52.7335C16.9112 51.0143 16.7659 49.2968 16.633 47.578C16.6175 47.3722 16.4905 47.1438 16.7897 46.9743C17.3333 46.6672 17.5211 46.7436 17.5781 47.3842C17.7338 49.1765 17.8845 50.9684 18.0393 52.7975L18.0391 52.8ZM17.6596 54.1909C16.4611 55.1568 16.2644 56.9192 17.2243 58.1181C18.1509 59.277 20.0144 59.4731 21.1833 58.534C22.3654 57.5863 22.5416 55.8049 21.5695 54.6048C20.5774 53.3807 18.8848 53.2029 17.6596 54.1909Z" fill="#EC1C24"/>
<path d="M26.324 44.096C26.9684 43.6849 27.4855 43.7202 27.9175 44.3584C28.0216 44.5132 28.1781 44.7419 28.405 44.6618C28.5784 44.5989 28.5787 44.3552 28.5922 44.1816C28.6476 43.4454 29.0504 43.1673 29.8009 43.2659C29.5408 44.4043 29.2843 45.5307 29.0275 46.6596C29.4205 46.7573 29.5427 46.5543 29.6209 46.2413C29.8297 45.4183 30.1086 44.6116 30.2715 43.7795C30.4111 43.0659 30.7662 42.771 31.5351 42.8836C31.2703 43.8591 31.0519 44.8388 30.7355 45.7849C30.5346 46.387 30.7095 46.5508 31.286 46.69C33.0059 47.1068 34.1344 48.6439 34.0803 50.3849C34.0264 52.1505 32.8383 53.5926 31.1265 53.972C29.664 54.2955 28.0297 53.6723 27.2385 52.4889C26.313 51.1035 26.2992 49.3513 27.2959 48.0862C27.6311 47.659 27.6477 47.4783 27.2114 47.1278C26.2127 46.3243 25.2722 45.4497 24.3118 44.6053C25.0094 44.1524 25.5508 44.3253 26.1029 44.8637C26.7635 45.5106 27.4977 46.0805 28.1989 46.6868C28.3498 46.8164 28.4961 47.049 28.7112 46.8546C28.964 46.6266 28.6611 46.488 28.5465 46.3666C27.8225 45.6055 27.0773 44.8598 26.3289 44.0965L26.324 44.096ZM28.5441 48.1616C27.342 49.1666 27.1734 50.865 28.1584 52.086C29.0924 53.2456 30.9479 53.4212 32.1113 52.4619C33.2693 51.5071 33.4378 49.6757 32.4748 48.5109C31.4986 47.3277 29.7251 47.1719 28.5417 48.1614L28.5441 48.1616Z" fill="#EC1C24"/>
<path d="M50.358 40.1457C51.2376 39.7784 51.6999 39.9539 52.0901 40.5365C52.5781 41.2636 53.1319 41.9449 53.6594 42.6436C53.7802 42.8049 53.9083 43.0211 54.1495 42.8389C54.4224 42.6325 54.1347 42.4903 54.0432 42.3588C53.6136 41.7479 53.1498 41.161 52.7279 40.546C52.593 40.3513 52.169 40.1079 52.4818 39.8978C52.7447 39.7201 53.2175 39.6208 53.5283 40.0212C53.7155 40.265 53.9212 40.4957 54.1854 40.813C54.527 40.2362 54.6135 39.2961 55.7271 39.7088C55.4071 40.5068 55.0619 41.3369 54.7428 42.1793C54.6842 42.334 54.4456 42.5682 54.7283 42.6853C54.9541 42.7775 55.1447 42.6349 55.2484 42.3662C55.5386 41.5975 55.8907 40.8517 56.1618 40.0763C56.302 39.678 56.5045 39.5144 56.9296 39.5042C57.3422 39.4954 57.4341 39.595 57.2684 39.9762C56.9544 40.7082 56.6832 41.459 56.3574 42.1851C56.1716 42.5964 56.1681 42.8227 56.6349 43.0823C58.1759 43.9432 58.634 45.8791 57.6869 47.2744C56.7111 48.7139 54.8429 49.0247 53.4095 47.9866C52.161 47.0837 51.839 45.3032 52.76 44.0039C53.0661 43.5716 53.0327 43.3173 52.7114 42.9504C51.9353 42.059 51.189 41.1382 50.3629 40.1462L50.358 40.1457ZM56.4785 47.1411C57.3231 46.4307 57.4308 45.234 56.7295 44.3864C56.0038 43.5094 54.7592 43.3949 53.9101 44.127C53.0878 44.8369 52.9712 46.0772 53.6491 46.9103C54.3515 47.7728 55.6097 47.8738 56.4812 47.1388L56.4785 47.1411Z" fill="#EC1C24"/>
<path d="M37.9472 41.6167C38.529 41.323 38.9597 41.306 39.3493 41.8959C39.8603 42.667 40.4501 43.3861 41.0165 44.1179C41.1797 44.3275 41.2844 44.6104 41.674 44.5305C42.0635 44.4506 42.2214 44.2361 42.3209 43.8784C42.5343 43.1124 42.8323 42.3666 43.012 41.5926C43.1783 40.8839 43.493 40.4918 44.3239 40.6815C44.0112 41.6944 43.7212 42.7291 43.3645 43.738C43.194 44.2247 43.2463 44.4068 43.7797 44.5864C45.0902 45.0295 45.8461 46.0078 45.9964 47.376C46.1423 48.7118 45.631 49.8198 44.4967 50.5428C43.2839 51.3153 42.0143 51.3118 40.793 50.5148C39.1738 49.4596 38.7813 47.2392 40.0059 45.7216C40.4457 45.176 40.4456 44.8559 39.991 44.3289C39.2577 43.4808 38.6342 42.5394 37.945 41.6141L37.9472 41.6167ZM44.2031 49.5529C45.2219 48.6912 45.3523 47.1665 44.4873 46.1684C43.6226 45.1679 42.0983 45.0646 41.0933 45.9374C40.1069 46.7948 39.9875 48.254 40.8246 49.2594C41.6816 50.2912 43.1763 50.4213 44.2007 49.5527L44.2031 49.5529Z" fill="#EC1C24"/>
<path d="M70.153 38.4207C69.8045 39.5288 69.1886 40.5138 68.7007 41.5549C68.5292 41.9184 68.5088 42.0864 68.8983 42.3291C70.179 43.1242 70.535 44.696 69.7548 45.8851C68.9803 47.0673 67.4179 47.4038 66.2126 46.6477C64.9888 45.8776 64.6419 44.341 65.4784 43.0759C65.7306 42.6928 65.6223 42.503 65.3918 42.2208C64.6302 41.279 63.887 40.3241 63.1414 39.3689C63.0994 39.3158 63.1 39.2297 63.0791 39.1613C63.7635 38.8795 64.2368 39.0683 64.6442 39.6796C65.1144 40.3853 65.666 41.0369 66.1964 41.7038C66.6143 42.2274 67.288 42.1687 67.6089 41.5752C67.9005 41.0331 68.2045 40.4898 68.4153 39.9132C68.7249 39.0675 69.1586 38.4277 70.1657 38.4169L70.1508 38.418L70.153 38.4207ZM68.6021 45.7101C69.2566 45.1621 69.3714 44.1556 68.8523 43.4995C68.3089 42.8117 67.2673 42.7159 66.5782 43.2903C65.8891 43.8648 65.7985 44.903 66.3819 45.5576C66.9473 46.1932 67.9448 46.2603 68.6021 45.7101Z" fill="#EC1C24"/>
<path d="M15.1834 51.2469C15.1037 50.1831 15.045 49.2395 14.9563 48.3004C14.9226 47.9427 14.9973 47.7206 15.3643 47.5918C15.6701 47.4845 15.8791 47.3831 15.9096 47.8562C16.0176 49.4964 16.153 51.1341 16.2893 52.9493C14.4355 51.9513 12.6943 51.0154 10.911 50.0559C11.3617 49.4719 11.812 49.3754 12.4354 49.7554C13.2853 50.2744 14.1846 50.7117 15.1807 51.2491L15.1834 51.2469Z" fill="#EC1C24"/>
<path d="M41.881 44.2097C40.9936 43.2416 40.4092 42.2496 39.7024 41.3276C40.2708 41.1352 40.8373 41.331 41.4017 41.9148C41.7159 41.5547 41.5506 40.7785 42.3591 40.8357C42.6826 40.858 42.7777 40.8963 42.6893 41.2133C42.4263 42.1692 42.1702 43.1306 41.8786 44.2095L41.881 44.2097Z" fill="#EC1C24"/>
<path d="M68.2797 38.7606C67.8129 39.5721 67.3865 40.2938 66.9834 41.03C66.8235 41.3207 66.7049 41.4304 66.4527 41.1166C65.9058 40.4408 65.3428 39.7783 64.7699 39.0903C65.268 38.7692 65.5701 38.9964 65.879 39.3647C66.5905 40.2083 66.6012 40.1994 67.1396 39.2787C67.3523 38.9141 67.7324 38.7414 68.2797 38.7606Z" fill="#EC1C24"/>
<path d="M127.543 30.0356C124.077 36.5332 116.031 42.4518 107.846 43.4743C111.64 42.2005 115.215 40.4928 118.544 38.2724C121.907 36.0257 124.835 33.3104 127.543 30.0356Z" fill="#EC1C24"/>
<path d="M32.0142 59.6019C35.2083 57.6375 38.4594 56.2325 41.9955 55.3758C41.0535 56.5549 34.5991 59.3004 32.0142 59.6019Z" fill="#EC1C24"/>
<path d="M120.082 11.9854C121.063 13.2726 121.183 14.7045 120.778 16.2137C120.302 17.9824 119.183 19.3718 117.98 20.6771C113.58 25.4512 108.356 29.0116 102.231 31.2235C99.4867 32.2146 96.6725 32.8915 93.7459 33.1813C93.8037 32.9009 94.0358 32.9518 94.175 32.9129C99.0043 31.562 103.586 29.6293 107.88 27.0495C111.138 25.091 114.116 22.7621 116.852 20.1227C117.854 19.1559 118.847 18.1909 119.577 16.9922C120.541 15.404 120.826 13.7532 120.081 11.9879L120.082 11.9854Z" fill="#EC1C24"/>
<path d="M117.415 15.7739C111.783 24.158 104.009 29.188 94.0636 30.8538C102.974 27.5487 110.812 22.596 117.415 15.7739Z" fill="#EC1C24"/>
<path d="M95.7575 28.1481C100.582 25.3192 105.312 22.3437 109.886 19.078C109.159 21.3235 99.5755 27.4971 95.7575 28.1481Z" fill="#EC1C24"/>
<path d="M33.482 69.9419C45.1181 63.7305 57.5333 60.5238 70.7372 60.3496C58.0144 62.3706 45.5917 65.5521 33.482 69.9419Z" fill="#EC1C24"/>
<path d="M37.9372 71.0758C41.3932 67.7663 57.5993 63.5046 63.6909 64.2473C55.0636 66.0861 46.5312 68.2858 37.9372 71.0758Z" fill="#EC1C24"/>
<path d="M43.5722 71.769C45.2434 70.5979 54.1881 67.9904 56.396 68.0335C54.1885 69.3522 45.6953 71.824 43.5722 71.769Z" fill="#EC1C24"/>
<path d="M87.3296 35.056C79.1252 36.1309 70.8994 36.2041 62.6617 35.4167C70.8668 34.3615 79.0879 34.2313 87.3296 35.056Z" fill="#EC1C24"/>
<path d="M69.1283 32.8866C74.1613 32.1626 79.2073 32.0481 84.2685 32.6C79.2397 33.3588 74.1913 33.4188 69.1283 32.8866Z" fill="#EC1C24"/>
<path d="M82.3617 30.516C79.7712 31.0657 77.2075 30.9752 74.669 30.2368C77.2535 29.6718 79.8189 29.797 82.3617 30.516Z" fill="#EC1C24"/>
<path d="M30.4347 66.209C37.4392 61.1574 45.2615 58.4467 53.8937 58.0563C45.6849 59.6603 37.8589 62.3584 30.4347 66.209Z" fill="#EC1C24"/>
<path d="M57.7514 10.3612C60.098 8.60211 62.7288 7.77538 65.6659 7.96185C63.1051 9.01913 60.4728 9.83587 57.7514 10.3612Z" fill="#EC1C24"/>
<path d="M59.5713 7.78779C60.855 6.99473 62.2598 6.54772 63.7533 6.36991C62.4595 7.13742 61.0647 7.60997 59.5713 7.78779Z" fill="#EC1C24"/>
<path d="M59.3797 21.4227C63.7165 18.2682 68.561 16.8596 73.9251 17.2546C68.9182 18.0966 64.0686 19.4802 59.3797 21.4227Z" fill="#EC1C24"/>
<path d="M71.4183 15.5809C68.7972 16.2755 66.1761 16.9702 63.5068 17.6801C64.4653 16.1331 68.7987 14.9458 71.4183 15.5809Z" fill="#EC1C24"/>
<path d="M56.1068 16.0955C60.561 13.3803 65.4054 11.9987 70.6315 11.9377C65.7651 13.236 60.9173 14.6 56.1068 16.0955Z" fill="#EC1C24"/>
<path d="M10.9683 63.9601C11.448 64.509 11.3722 65.4132 10.8035 65.8854C10.2346 66.3601 9.33721 66.2775 8.87423 65.7079C8.42879 65.1621 8.50253 64.307 9.03676 63.8341C9.58724 63.3454 10.4869 63.4035 10.971 63.9578L10.9683 63.9601Z" fill="#EC1C24"/>
<path d="M120.796 30.3014C120.393 30.6115 119.987 30.5693 119.692 30.2146C119.394 29.8572 119.432 29.4175 119.793 29.1108C120.16 28.8022 120.586 28.8563 120.891 29.2192C121.195 29.5821 121.154 29.9748 120.798 30.3016L120.796 30.3014Z" fill="#EC1C24"/>
<path d="M79.4689 43.2499C79.7197 43.6867 79.7303 44.0817 79.3425 44.3834C78.9574 44.6828 78.5321 44.6142 78.2473 44.2531C77.9648 43.8922 77.9955 43.4788 78.389 43.1678C78.7879 42.8523 79.1482 42.984 79.4663 43.2521L79.4689 43.2499Z" fill="#EC1C24"/>
<path d="M111.54 35.4857C111.808 35.8748 111.763 36.2819 111.401 36.5663C111.042 36.8485 110.627 36.8325 110.313 36.4391C109.999 36.0458 110.076 35.6416 110.431 35.3516C110.793 35.0574 111.195 35.1092 111.54 35.4857Z" fill="#EC1C24"/>
<path d="M88.7235 41.6166C89.1595 41.2996 89.5413 41.2781 89.8724 41.6459C90.1991 42.0084 90.1847 42.406 89.8193 42.732C89.4593 43.0534 89.07 43.0496 88.7316 42.6811C88.3862 42.3071 88.4842 41.9393 88.7237 41.6141L88.7235 41.6166Z" fill="#EC1C24"/>
<path d="M100.997 39.4902C101.303 39.8902 101.291 40.2609 100.912 40.5806C100.535 40.8957 100.135 40.8712 99.8243 40.5003C99.5179 40.1323 99.5569 39.7074 99.9105 39.4025C100.269 39.0932 100.666 39.147 100.997 39.4902Z" fill="#EC1C24"/>
<path d="M127.26 20.728C127.614 21.1103 127.601 21.4367 127.331 21.6926C127.042 21.9688 126.694 22.0008 126.399 21.6659C126.113 21.3416 126.142 21.0044 126.463 20.7335C126.76 20.4801 127.07 20.5406 127.26 20.7256L127.26 20.728Z" fill="#EC1C24"/>
<path d="M20.4384 55.4809C20.9431 56.0789 20.859 56.8863 20.2409 57.386C19.6522 57.8613 18.8729 57.7822 18.3888 57.2008C17.9025 56.6168 17.9573 55.8338 18.5153 55.3433C19.092 54.8374 19.9445 54.8986 20.4384 55.4809Z" fill="#EC1C24"/>
<path d="M31.327 49.4347C31.8253 50.0223 31.7776 50.7813 31.2085 51.2855C30.6097 51.8165 29.8108 51.7627 29.3018 51.1568C28.7948 50.5561 28.8674 49.7403 29.4772 49.2497C30.0606 48.7788 30.84 48.8579 31.3296 49.4324L31.327 49.4347Z" fill="#EC1C24"/>
<path d="M55.9871 44.978C56.3475 45.4027 56.2812 46.0689 55.8463 46.4279C55.3953 46.8001 54.79 46.7321 54.4198 46.2523C54.043 45.7645 54.0911 45.2961 54.5454 44.8873C54.9864 44.4895 55.6182 44.5378 55.9895 44.9783L55.9871 44.978Z" fill="#EC1C24"/>
<path d="M43.4512 48.6391C42.9708 49.0628 42.2315 49.0046 41.7962 48.509C41.3518 48.0052 41.3752 47.2956 41.85 46.8517C42.3356 46.3989 43.1243 46.4567 43.5646 46.9774C43.9848 47.4766 43.9343 48.2132 43.4512 48.6391Z" fill="#EC1C24"/>
<path d="M68.1235 45.1489C67.7102 45.4335 67.302 45.4477 66.9578 45.0614C66.5893 44.6433 66.6471 44.1758 67.0474 43.8457C67.4474 43.5181 67.9158 43.5464 68.2593 43.9942C68.5762 44.4099 68.4809 44.8026 68.1233 45.1514L68.1235 45.1489Z" fill="#EC1C24"/>
</svg>
