<svg width="1233" height="46" viewBox="0 0 1233 46" fill="none" xmlns="http://www.w3.org/2000/svg">
<path d="M7.5 10.4259C288.1 14.9987 921.341 19.7429 1209.5 2.13777" stroke="#24235C" stroke-width="4"/>
<path d="M77 1.56888H62.5V45.3728H85.5L77 1.56888Z" fill="#EC1C24"/>
<path d="M338.384 1.56888H323.884V45.3728H346.884L338.384 1.56888Z" fill="#F6921E"/>
<path d="M599.767 1.56888H585.267V45.3728H608.267L599.767 1.56888Z" fill="#F6921E"/>
<path d="M861.151 1.56888H846.651V45.3728H869.651L861.151 1.56888Z" fill="#EC1C24"/>
<path d="M1122.53 1.56888H1108.03V45.3728H1131.03L1122.53 1.56888Z" fill="#F6921E"/>
<path d="M233.373 45.2997L247.873 45.2997L247.873 1.49569L224.873 1.49569L233.373 45.2997Z" fill="#66BB46"/>
<path d="M494.757 45.2997L509.257 45.2997L509.257 1.49569L486.257 1.49569L494.757 45.2997Z" fill="#F6921E"/>
<path d="M756.14 45.2997L770.64 45.2997L770.64 1.49569L747.64 1.49569L756.14 45.2997Z" fill="#EC1C24"/>
<path d="M1017.52 45.2997L1032.02 45.2997L1032.02 1.49569L1009.02 1.49569L1017.52 45.2997Z" fill="#66BB46"/>
<path d="M132.11 1.71749L146.582 1.20428L151.373 44.9234L128.418 45.7374L132.11 1.71749Z" fill="#0092D7"/>
<path d="M393.494 1.71749L407.966 1.20428L412.757 44.9234L389.801 45.7374L393.494 1.71749Z" fill="#66BB46"/>
<path d="M654.878 1.71749L669.35 1.20428L674.14 44.9234L651.185 45.7374L654.878 1.71749Z" fill="#66BB46"/>
<path d="M916.262 1.71749L930.733 1.20428L935.524 44.9234L912.569 45.7374L916.262 1.71749Z" fill="#0092D7"/>
<path d="M1177.65 1.71749L1192.12 1.20428L1196.91 44.9234L1173.95 45.7374L1177.65 1.71749Z" fill="#66BB46"/>
<path d="M178.262 45.151L163.791 45.6642L159 1.94515L181.955 1.1311L178.262 45.151Z" fill="#EC1C24"/>
<path d="M19.2626 45.02L4.79065 45.5332L3.68044e-05 1.81406L22.9555 1.00001L19.2626 45.02Z" fill="#F6921E"/>
<path d="M439.646 45.151L425.174 45.6642L420.384 1.94515L443.339 1.1311L439.646 45.151Z" fill="#EC1C24"/>
<path d="M701.03 45.151L686.558 45.6642L681.767 1.94515L704.723 1.1311L701.03 45.151Z" fill="#F6921E"/>
<path d="M962.414 45.151L947.942 45.6642L943.151 1.94515L966.106 1.1311L962.414 45.151Z" fill="#F6921E"/>
<path d="M1223.8 45.151L1209.33 45.6642L1204.53 1.94515L1227.49 1.1311L1223.8 45.151Z" fill="#0092D7"/>
<path d="M111.5 1.56888H94.5L92 45.3728H115L111.5 1.56888Z" fill="#F6921E"/>
<path d="M372.884 1.56888H355.884L353.384 45.3728H376.384L372.884 1.56888Z" fill="#0092D7"/>
<path d="M634.267 1.56888H617.267L614.767 45.3728H637.767L634.267 1.56888Z" fill="#0092D7"/>
<path d="M895.651 1.56888H878.651L876.151 45.3728H899.151L895.651 1.56888Z" fill="#66BB46"/>
<path d="M1157.03 1.56888H1140.03L1137.53 45.3728H1160.53L1157.03 1.56888Z" fill="#EC1C24"/>
<path d="M198.873 45.2997L215.873 45.2997L218.373 1.49569L195.373 1.49569L198.873 45.2997Z" fill="#F6921E"/>
<path d="M460.257 45.2997L477.257 45.2997L479.757 1.49569L456.757 1.49569L460.257 45.2997Z" fill="#0092D7"/>
<path d="M721.64 45.2997L738.64 45.2997L741.14 1.49569L718.14 1.49569L721.64 45.2997Z" fill="#66BB46"/>
<path d="M983.024 45.2997L1000.02 45.2997L1002.52 1.49569L979.524 1.49569L983.024 45.2997Z" fill="#EC1C24"/>
<path d="M28.1024 44.8804L45.0348 45.7418L54.3837 2.23869L31.4751 1.07321L28.1024 44.8804Z" fill="#66BB46"/>
<path d="M289.486 44.8804L306.419 45.7418L315.767 2.23869L292.859 1.07321L289.486 44.8804Z" fill="#EC1C24"/>
<path d="M550.87 44.8804L567.802 45.7418L577.151 2.23869L554.242 1.07321L550.87 44.8804Z" fill="#EC1C24"/>
<path d="M812.253 44.8804L829.186 45.7418L838.535 2.23869L815.626 1.07321L812.253 44.8804Z" fill="#F6921E"/>
<path d="M1073.64 44.8804L1090.57 45.7418L1099.92 2.23869L1077.01 1.07321L1073.64 44.8804Z" fill="#66BB46"/>
<path d="M282.271 1.98813L265.338 1.12668L255.989 44.6298L278.898 45.7953L282.271 1.98813Z" fill="#0092D7"/>
<path d="M543.654 1.98813L526.722 1.12668L517.373 44.6298L540.282 45.7953L543.654 1.98813Z" fill="#66BB46"/>
<path d="M805.038 1.98813L788.106 1.12668L778.757 44.6298L801.665 45.7953L805.038 1.98813Z" fill="#0092D7"/>
<path d="M1066.42 1.98813L1049.49 1.12668L1040.14 44.6298L1063.05 45.7953L1066.42 1.98813Z" fill="#EC1C24"/>
</svg>
