<svg width="220" height="212" viewBox="0 0 220 212" fill="none" xmlns="http://www.w3.org/2000/svg">
<path d="M141.649 121.695C139.161 122.964 132.217 123.191 129.328 122.836C127.523 122.613 124.657 122.386 123.068 122.093C119.151 121.368 112.755 117.405 108.734 115.922C106.651 115.155 103.992 115.231 102.54 113.37C101.777 115.293 100.306 117.594 98.7506 118.967C96.7001 120.781 89.9314 122.59 87.0089 123.414C82.8798 124.579 80.9519 123.565 76.9971 123.267C74.1831 123.054 71.2465 123.707 68.4607 122.448C67.5133 122.022 66.6413 121.141 65.7504 120.79C63.502 119.905 61.1688 120.525 58.7224 118.887C56.2241 117.21 56.4693 117.48 53.8862 116.367C52.8633 115.927 52.095 115.013 51.1381 114.502C49.3894 113.564 47.4521 113.323 46.0568 111.443C45.4299 110.6 44.8124 108.284 44.4401 108.057C44.0677 107.83 41.4139 107.47 40.7069 107.261C37.2235 106.234 35.1542 104.562 32.3967 103.492C30.9449 102.928 29.6487 103.25 27.7255 102.071C24.5674 100.139 24.1102 98.1314 21.9419 96.0194C21.0274 95.1292 19.6511 94.6982 18.6141 93.3676C17.9023 92.4537 17.1434 90.2706 16.6626 89.7497C16.4128 89.4751 15.6492 89.352 15.2108 89.0063C12.015 86.4728 12.2601 84.4177 10.5962 81.3539C10.1861 80.6009 9.14437 79.8859 8.58344 79.114C7.07037 77.0257 5.85425 73.9429 5.34046 71.419C4.94923 69.5153 5.34989 66.4989 4.92095 65.173C4.19505 62.9284 2.69611 60.2008 1.97021 57.8852C1.54127 56.5214 2.1399 53.0835 2.01263 52.7236C1.88537 52.3637 1.2396 52.0038 1.0322 51.5776C-0.834401 47.7609 0.334581 44.1714 0.669249 40.4021C0.730526 39.7012 0.377004 39.1282 0.508985 38.2427C0.83894 35.9887 3.92637 34.0045 6.00508 33.6352C7.31547 33.4031 8.20635 34.6059 9.19621 34.7527C9.87969 34.8522 10.6951 34.3881 11.4163 34.3691C12.6183 34.336 14.6028 35.141 15.5172 35.9366C16.3091 36.6232 17.1953 38.3848 17.4875 38.5789C17.6148 38.6642 19.8679 38.9577 20.3581 39.4029C18.6093 35.9602 16.672 32.0014 16.3892 28.0947C16.3515 27.5928 16.6909 26.6552 16.639 26.5462C16.4835 26.21 11.6237 22.7532 10.8177 22.0429C5.77883 17.5963 0.494844 9.96284 0.263876 2.98759C0.155463 -0.199342 1.74396 -0.0998985 4.35531 0.0658408C13.726 0.671973 21.9466 5.03329 30.3133 8.85476C32.9906 7.41519 36.4269 8.49487 38.8026 8.21074C41.3951 7.90294 44.6003 6.39235 47.4945 5.98037C51.9536 5.34109 60.6361 5.31741 64.9774 6.3592C66.3962 6.70015 68.0931 7.71826 69.2715 7.97397C70.9448 8.33386 75.0928 7.66144 77.1197 7.69458C83.0542 7.78929 91.6754 8.08289 97.1432 10.247C98.4772 10.7726 99.8583 11.9754 101.164 12.3826C103.45 13.0977 106.933 13.0929 109.493 13.8364C115.442 15.5696 124.185 20.2908 128.611 24.6473C129.988 26.0017 131.732 28.824 132.83 29.719C133.283 30.0883 135.347 30.8034 136.101 31.2627C140.216 33.7725 143.818 36.68 146.669 40.653C147.782 42.2062 148.725 44.5455 149.804 45.8383C152.708 49.3236 155.875 51.3124 158.736 55.7258C162.276 61.181 163.756 67.1098 166.66 72.6312C167.013 73.3037 167.193 73.9287 167.348 74.658C168.041 74.317 168.701 73.9003 169.45 73.673C171.798 72.9533 179.34 74.2365 182.083 74.7811C189.629 76.2822 191.713 79.2087 197.638 83.0065C200.353 84.7444 203.855 85.6773 206.391 87.6662C212.67 92.5815 216.078 98.3114 217.784 106.092C218.029 107.204 217.911 108.644 218.208 109.601C218.59 110.837 219.495 111.921 219.877 113.095C220.457 114.871 218.859 118.91 217.803 120.416C216.978 121.595 211.59 126.913 210.483 127.268C208.955 127.761 207.631 125.644 206.863 125.464C206.254 125.322 204.723 125.919 203.973 125.971C195.507 126.53 181.795 120.217 173.867 116.723C171.369 115.619 169.045 114.232 166.547 113.147C167.117 115.34 167.183 117.708 167.565 119.905C167.815 121.344 168.621 122.751 168.625 124.465C168.625 126.738 168.484 126.302 168.904 128.77C169.653 133.211 168.23 136.791 166.632 140.66C164.765 145.178 163.2 148.455 160.287 152.47C157.473 156.353 154.423 160.478 151.392 164.077C147.801 168.334 144.19 172.439 140.754 176.796C139.519 178.363 137.346 179.879 136.384 181.257C134.678 183.705 134.918 184.998 132.208 187.673C124.199 195.581 124.69 202.41 119.227 210.361C116.153 214.836 115.465 209.011 115.512 206.402C115.564 203.646 116.559 200.956 116.747 198.385C117.025 194.62 116.215 189.089 116.149 185.135C116.092 181.877 116.964 178.326 116.992 175.091C117.025 170.872 115.781 168.206 118.251 164.134C118.85 163.149 120.089 162.093 120.518 161.297C120.895 160.606 120.966 159.095 121.494 158.039C122.253 156.51 123.459 155.615 124.247 154.312C125.34 152.503 125.453 151.021 127.136 149.155C127.82 148.398 129.582 147.186 129.978 146.508C130.191 146.144 130.407 144.358 130.737 143.596C131.718 141.299 133.198 140.878 134.216 139.263C135.272 137.596 136.21 135.584 137.478 133.6C138.26 132.383 138.529 130.896 139.274 129.769C140.099 128.523 141.64 127.519 142.371 126.364C142.865 125.578 143.342 123.883 143.865 122.855C144.058 122.471 145.943 120.014 145.288 119.848L141.645 121.704L141.649 121.695ZM209.116 94.8261C209.413 95.6217 210.11 96.0526 210.431 96.8197C208.96 98.3587 207.023 95.7164 206.778 94.4331C206.665 93.8506 208.192 92.3968 208.079 92.1222C207.796 91.4355 204.345 88.7127 203.492 88.2013C202.813 87.7893 199.165 85.9804 198.585 85.862C198.232 85.7862 198.166 87.3678 196.841 86.7286C196.134 86.3876 192.981 83.84 193.094 83.1202L193.782 82.6182C188.63 77.9633 183.059 77.1394 176.573 76.2491C174.126 75.9129 171.897 74.658 169.351 75.8466C168.611 76.1923 168.168 76.7653 167.499 77.1393C165.533 78.2285 162.842 77.1914 160.537 77.2199C158.491 77.2435 156.474 77.6745 154.447 77.8923C154.027 77.9349 153.532 77.7218 153.207 77.7976C151.77 78.1243 150.643 80.511 149.672 81.5906C148.003 83.4517 145.896 85.218 144.416 87.2305C142.696 89.5698 141.762 92.4489 140.315 94.935C139.283 96.7108 138.722 95.2334 138.963 93.8601C139.156 92.7425 141.466 88.457 142.187 87.3394C144.28 84.0862 147.329 81.7706 149.842 78.8962C150.143 78.5505 150.596 78.6973 150.106 78.0486C145.713 80.3121 139.156 79.2087 134.485 78.058C133.674 77.8591 130.874 76.5995 130.667 76.59C130.233 76.5664 129.04 77.4235 128.333 77.6366C124.176 78.8725 111.803 72.6786 107.815 70.4908C106.971 70.0268 103.818 67.749 103.488 67.6922C102.734 67.5644 100.344 68.1373 99.3398 68.1989C94.4517 68.502 88.1637 69.1128 83.403 68.8666C82.2198 68.805 78.8685 68.0521 78.1803 68.1705C77.4308 68.2983 76.7992 68.8098 76.0261 68.985C72.9246 69.6858 69.9125 69.6669 66.778 69.3922C67.9187 71.561 69.1489 70.8413 71.0721 71.3243C73.4336 71.9162 73.6882 72.9817 75.1211 73.7014C75.7292 74.0045 77.3507 73.7014 78.5102 74.2318C80.127 74.9705 81.1121 76.7747 81.8333 77.2151C82.2293 77.4566 85.1282 76.7558 86.8204 78.3137C87.485 78.9246 90.134 83.9394 89.8701 84.465C89.7664 84.6734 89.2856 84.9954 89.163 84.967C89.0546 84.9433 87.8574 83.518 87.7112 83.3001C86.3301 81.2165 86.7638 79.6681 83.8131 79.1803C82.5168 78.9672 81.164 79.5355 80.2684 78.4795C79.4718 77.5419 79.5849 77.0115 78.2651 76.2586C76.8322 75.4441 75.3521 75.9792 74.4942 75.6098C73.7919 75.3067 73.099 74.1134 72.0242 73.5452C70.5724 72.778 68.6163 73.0527 67.551 72.475C66.0568 71.6652 64.7888 69.8942 62.6771 68.7813C59.585 67.1571 56.078 65.4524 52.9482 63.8991C49.5025 62.1897 49.6392 62.0476 47.0703 59.4289C46.2925 58.6381 41.7297 55.4038 40.7964 55.4796C40.2166 55.5269 39.9527 56.3651 39.2975 56.2799C38.6376 56.1946 37.0726 53.5854 35.8895 53.2113C35.0269 52.9414 34.499 53.737 33.7495 53.3487C32.9152 52.913 32.2082 50.7063 30.8129 50.1333C30.0022 49.8018 28.9935 50.4506 28.7625 50.3227C28.5598 50.2138 27.7679 47.6946 27.4144 47.0648C26.8016 45.9756 25.364 44.5503 24.063 44.484C23.4173 44.4508 22.6348 44.9812 22.2813 44.7965C21.5836 44.4366 21.7863 43.0113 21.1971 42.3815C21.0934 42.2725 18.9582 40.7241 18.812 40.6578C18.0437 40.3073 17.0303 40.6956 16.5966 40.3736C15.8047 39.7817 15.1448 37.8165 13.924 36.9926C11.7746 35.5388 9.99282 37.002 8.57873 36.6658C7.71142 36.4622 7.2212 35.2262 6.05693 35.4015C4.9398 35.5719 2.71025 37.1441 2.40858 38.2285C2.25303 38.792 2.67254 39.3697 2.62069 39.9806C2.36144 43.0302 1.00863 47.4483 2.60184 50.5074C2.92708 51.1372 3.77082 51.5492 3.91694 52.0038C4.2139 52.9319 3.24289 56.2278 3.99708 58.1409C4.32232 58.9601 4.91623 59.3247 5.16606 59.964C5.57614 61.0105 6.43402 63.4256 6.74984 64.5053C7.81983 68.1563 6.33975 71.2911 8.78141 75.9081C9.62516 77.5087 11.6002 79.0619 12.2365 80.1937C13.6789 82.765 13.0802 84.6686 16.031 87.15C16.5731 87.6046 17.9919 88.1397 18.138 88.3291C18.3972 88.6653 18.7508 90.1617 19.208 90.9147C20.4335 92.9225 21.9937 93.2255 23.2664 94.542C25.8071 97.1796 26.6838 100.106 30.9166 101.304C33.759 102.109 34.1125 102.696 36.6013 103.8C38.7931 104.77 44.3175 105.784 45.8636 106.892C47.1975 107.848 46.7827 109.615 48.8615 111.211C49.4742 111.679 54.2303 114.336 54.975 114.653C55.6067 114.923 56.7191 114.876 57.577 115.349C58.581 115.903 59.2456 116.879 60.2496 117.438C62.1115 118.47 64.6097 118.333 66.6177 119.128C70.0351 120.483 69.9125 121.15 74.0605 121.382C77.4779 121.572 83.3888 122.377 86.382 121.515C88.6068 120.876 94.4612 119.393 96.1581 118.527C101.541 115.776 102.696 104.24 104.68 98.7991C105.222 97.3122 106.17 96.7345 106.076 94.8356C106.047 94.2815 105.006 91.1372 106.34 91.4497C107.306 91.677 107.947 95.4417 107.739 96.4361C107.532 97.4306 106.528 98.837 106.179 99.9261C105.246 102.853 103.558 108.455 103.115 111.343C103.073 111.632 102.88 112.248 103.167 112.428C105.293 112.939 107.706 113.398 109.743 114.147C113.73 115.615 119.462 119.228 123.313 120.104C124.463 120.364 128.036 120.625 129.582 120.814C139.269 121.984 143.162 118.465 151.053 114.047C151.958 113.54 157.322 110.538 157.789 111.424C157.666 112.281 156.955 112.769 156.313 113.252C154.48 114.63 148.574 117.338 147.645 118.825C147.428 119.171 147.508 120.554 147.282 121.231C146.914 122.315 145.995 123.106 145.543 124.029C145.09 124.953 144.939 126.473 144.416 127.24C143.634 128.391 141.97 129.423 141.065 130.773C140.306 131.904 140.24 133.031 139.655 134.102C138.953 135.375 137.605 136.394 136.926 137.625C136.474 138.449 136.422 139.67 135.918 140.452C135.154 141.636 133.702 142.327 132.901 143.672C132.217 144.827 132.217 146.755 131.774 147.512C131.557 147.882 125.383 153.526 126.594 154.123C128.046 153.678 128.366 155.435 129.121 156.353C129.757 157.125 130.714 157.272 131.152 158.153C128.706 160.014 127.424 156.126 126.349 154.573C125.665 156.349 123.936 157.485 123.191 159.218C122.762 160.222 122.965 161.24 122.587 161.988C122.149 162.864 121.14 163.589 120.532 164.451C117.666 168.495 119.08 170.905 119.029 175.328C118.991 178.397 118.142 181.692 118.18 184.737C118.237 188.852 118.854 193.64 118.647 197.736C118.576 199.152 116.497 209.115 117.577 209.489C118.067 209.319 118.142 208.793 118.373 208.386C122.041 201.917 124.006 193.067 129.253 187.536C130.073 186.674 131.374 186.082 132.368 184.979C133.91 183.269 133.961 181.37 134.89 180.12C135.753 178.955 137.666 177.592 138.746 176.337C139.877 175.02 140.697 173.301 141.744 172.056C144.336 168.968 147.386 166.089 149.908 162.95C151.161 161.387 152.246 160.44 153.4 159.043C155.013 157.092 155.979 153.967 158.208 152.305C157.482 151.864 156.563 152.849 155.8 153.005C154.881 153.19 153.226 153.252 152.618 152.394C151.43 150.713 154.367 151.623 155.013 151.509C156.521 151.244 157.35 150.046 158.708 151.736C159.613 149.463 161.989 147.498 162.875 145.315C163.21 144.491 163.191 143.544 163.587 142.602C165.387 138.302 168.263 134.04 167.169 129.039C166.995 128.244 166.49 127.638 166.363 126.88C166.222 126.051 166.9 124.171 166.627 122.969C166.255 121.311 165.943 120.729 165.661 118.858C165.354 116.846 164.77 114.843 165.053 112.811C160.994 110.552 156.214 111.343 152.033 110.472C151.619 110.387 151.199 110.538 151.053 109.951C154.075 109.208 157.93 108.739 161.004 109.326C165.694 110.221 168.922 112.295 173.066 114.123C180.127 117.239 194.616 123.854 201.885 124.1C204.991 124.205 205.519 124.313 203.186 122.036C196.662 115.676 187.961 109.766 180.245 104.946C178.929 104.126 177.572 103.336 176.148 102.72C176.158 102.28 176.785 102.346 177.096 102.384C178.43 102.54 182.62 104.808 184.025 105.561C193.74 110.77 201.71 118.12 209.889 125.393C212.377 122.765 216.21 120.208 217.496 116.742C218.783 113.28 217.294 113.176 216.346 110.254C215.8 108.564 215.946 105.343 215.13 103.748C214.937 103.364 213.98 103.16 213.466 102.692C212.679 101.972 209.898 99.2206 210.501 98.2214C211.289 96.9239 212.764 99.4763 213.363 100.106C213.754 99.9593 213.353 98.9601 213.24 98.7423C212.208 96.7676 210.615 94.7361 209.163 93.0456C208.828 93.3108 209.017 94.5372 209.13 94.8356L209.116 94.8261ZM135.168 56.654C135.819 57.6389 136.582 59.983 137.431 60.4849C137.638 60.608 139.934 60.5181 140.589 60.6033C145.062 61.1573 148.178 61.0816 151.836 64.0412C152.359 64.4627 153.297 65.7033 153.466 65.7886C153.561 65.8407 155.107 65.7791 155.635 65.8927C158.618 66.5462 160.132 68.3125 162.781 69.3638C160.683 63.0562 157.44 56.9239 153.066 51.8996C152.236 50.9478 149.762 48.2486 148.729 47.8319C147.697 47.4152 143.068 48.8926 141.593 49.1436C138.175 49.7213 134.687 49.9344 131.308 50.801C130.912 51.6202 134.499 55.6453 135.163 56.654H135.168ZM160.914 70.9218C158.84 69.9557 157.082 67.8532 154.584 67.8295C154.932 70.5192 155.328 73.6683 152.99 75.624H165.453C166.198 75.2831 163.822 71.8736 163.129 71.4995C162.842 71.3432 161.616 71.2532 160.909 70.9218H160.914ZM122.371 39.8622C123.082 44.4745 126.363 49.172 131.487 48.6464C134.749 48.3149 139.745 47.2542 143.063 46.5628C144.454 46.274 145.91 45.9046 147.277 45.5258C143.643 39.2513 138.439 34.5491 131.93 31.49L122.366 39.8622H122.371ZM131.859 74.2555C131.755 74.4212 131.369 74.5159 131.76 74.8474C132.425 75.4204 137.525 76.4717 138.708 76.68C142.724 77.3809 146.684 77.968 150.365 75.7045C153.928 73.512 153.466 68.6772 150.799 65.9543C147.315 62.4028 142.536 63.6292 138.147 62.2796C137.77 62.4028 137.577 63.7902 137.351 64.3727C135.922 68.0047 133.928 71.007 131.859 74.2602V74.2555ZM118.208 19.9309C114.4 17.8994 105.736 14.2863 101.517 14.5467C99.3445 14.684 95.1258 17.3169 93.6127 18.9317C92.9905 19.5947 92.6747 20.5181 92.109 21.1763C89.2243 24.5526 85.6891 26.5462 90.0021 30.5855C92.2552 32.6928 98.991 37.5987 101.678 39.1424C103.997 40.4778 107.212 39.3981 109.771 39.3887C112.51 39.3792 116.134 40.3215 118.784 39.3887C123.455 37.7408 126.132 32.5981 130.44 30.3062C127.579 25.8501 122.828 22.3933 118.204 19.9309H118.208ZM110.836 69.5816C113.801 71.1017 124.261 76.2444 127.094 75.6477C129.465 75.1457 131.355 71.4805 132.533 69.4206C133.188 68.2794 135.856 63.1936 135.687 62.2323C135.517 61.271 134.739 60.7501 134.004 60.2434C131.491 58.5197 125.425 56.7487 122.38 56.6777C116.469 56.5356 112.962 58.2545 108.847 62.4738C107.636 63.7145 106.943 65.4618 105.321 66.2669C106.999 67.6117 108.932 68.6061 110.841 69.5816H110.836ZM132.854 56.9997C132.17 55.9437 131.034 55.025 130.384 53.9737C129.875 53.1498 129.366 51.2177 129.088 50.891C128.847 50.6021 126.971 50.1665 126.297 49.7734C123.582 48.1823 120.862 44.3466 120.735 41.1266C120.004 40.7241 119.396 41.4533 118.685 41.6096C115.781 42.2536 107.306 42.0263 103.888 41.9837C103.049 41.9742 101.037 41.2497 101.602 43.2528C102.408 46.1082 105.892 46.7238 108.069 48.4617C110.568 50.4648 112.896 53.2587 115.361 55.3659C121.48 53.6138 127.07 54.9445 132.854 56.9997ZM83.9875 25.8833C84.3881 25.6749 85.6419 26.0822 85.7975 26.0064C85.92 25.9401 86.7402 24.0602 87.1173 23.5345C89.5024 20.215 92.9952 16.0194 96.5116 13.969C97.6523 13.3013 99.5424 13.5854 96.7708 12.3779C91.6471 10.1428 80.8953 9.76869 75.1683 9.84446C74.0747 9.85867 70.021 9.90128 69.3799 10.3133C67.0137 11.8286 66.3632 16.8008 67.1645 19.2916C67.5086 20.3571 69.1961 23.203 69.8796 24.1596C70.6102 25.1872 72.8633 26.3947 73.6363 27.7443L83.9875 25.8833ZM84.3127 66.712C87.4426 66.7783 99.3445 66.5178 101.814 65.7507C105.147 64.7184 105.755 62.4643 107.989 60.3002C109.521 58.8133 111.459 57.459 113.198 56.2183C110.233 53.7559 107.81 50.5784 104.449 48.6464C95.3143 43.3854 81.7249 43.3427 77.5109 54.9113C76.8322 56.7724 76.012 64.8083 77.7513 65.9543C78.1803 66.2337 83.4124 66.693 84.3127 66.712ZM79.6933 28.7624C78.2415 28.9755 67.8385 30.8839 67.4944 31.4095C68.0082 37.5087 70.2142 43.2054 75.9319 46.1082C76.3372 46.3166 79.2644 47.5573 79.4529 47.562C79.8442 47.562 82.201 45.3363 83.007 44.9291C87.4661 42.694 95.0079 42.8266 99.7734 44.0152C98.9202 43.1628 100.268 41.2071 99.929 40.6625C96.6106 37.6697 91.7508 35.2973 88.6257 32.2335C87.2681 30.9028 86.415 29.8705 85.6985 28.0332C83.7659 28.7198 81.7296 28.4641 79.6981 28.7624H79.6933ZM43.2569 14.9966C43.6906 15.688 43.8414 16.635 44.3929 17.4543C47.0703 21.4509 55.1306 25.1446 59.2833 27.7159C60.4711 28.4499 63.6858 31.5705 65.0716 31.1727C65.4629 31.0591 66.0097 29.7711 66.9194 29.3023C68.2769 28.6014 70.1341 28.6014 71.5859 28.2178C70.4405 27.2518 69.0452 26.4657 68.0884 25.2819C67.2729 24.2685 65.5807 21.522 65.1518 20.3144C64.1148 17.3643 64.6191 11.4545 67.5746 9.6361C67.8055 8.93526 62.2812 8.04027 61.725 7.97871C54.5744 7.1879 46.8393 7.77035 39.9857 10.0481C41.0321 11.7292 42.2011 13.3297 43.2475 15.0061L43.2569 14.9966ZM77.3129 48.9637C70.2802 46.8138 63.2757 41.6711 56.1534 39.8954C54.136 39.3934 52.1751 40.009 50.1766 40.2316C47.7867 40.492 45.9201 39.9995 43.6953 41.7943C45.5478 43.7737 47.8857 45.2748 49.8372 47.0695C54.2161 51.0946 57.9776 55.6264 62.8987 59.0974C66.5753 61.6925 70.6903 63.1936 74.942 64.5905C74.5979 61.9339 74.4518 57.8331 75.107 55.2286C75.3709 54.1821 76.3278 52.5294 76.8793 51.5397C77.28 50.8152 78.0341 50.0765 78.3358 49.5319C78.4914 49.2525 78.4678 49.0347 78.2557 48.9447C78.2132 48.9258 77.7089 49.0821 77.3129 48.9637ZM63.1673 32.5223C62.3802 32.2808 61.3667 31.6747 60.655 31.2343C56.0356 28.3599 51.3644 25.4192 46.7356 22.4785C46.0238 22.0239 45.2272 21.0153 44.6757 20.7596C43.9687 20.4328 34.3764 18.5623 33.5374 18.5955C32.1987 18.6523 27.8811 19.6846 26.5377 20.1392C25.8024 20.3902 25.1142 20.7548 24.4495 21.1479C24.9539 23.1983 25.8636 24.7468 27.2542 26.3C27.7868 26.8967 28.6164 27.2329 29.0548 27.8437C30.5914 29.9794 30.5018 31.329 32.9482 33.2611C34.235 34.2792 36.1064 34.7385 37.1905 35.6761C38.2558 36.5948 40.4193 40.3168 41.725 40.4115C42.4839 40.4683 45.0434 38.7494 46.1558 38.3848C47.174 38.0533 53.6222 37.4992 54.8006 37.5797C56.8605 37.7218 60.5324 39.2798 62.5734 40.0942C64.803 40.9845 66.9807 42.05 69.1395 43.1012C68.3429 41.6996 67.3955 40.2979 66.8251 38.7636C66.4716 37.8118 65.7268 33.0195 65.2932 32.7402C65.2036 32.6833 63.733 32.7023 63.1532 32.5223H63.1673ZM35.8094 40.5725C39.9527 46.8659 41.5223 50.8247 47.3814 55.8774C50.0634 58.193 52.0573 60.3618 54.9845 62.1328C58.0153 63.9654 59.651 65.4287 63.2333 66.4184C67.1739 67.5075 71.6 67.8816 75.5783 66.802C74.3528 66.1911 72.8774 66.2479 71.6 65.8312C58.8591 61.6782 51.6802 50.5927 41.6779 42.4998C40.7446 41.7422 39.1891 41.1787 38.3878 40.3689C37.544 39.5118 37.0302 38.3611 35.9791 37.4661C34.9892 36.6232 33.495 36.0786 32.3166 35.5198C33.231 37.3667 34.6875 38.8678 35.8047 40.5678L35.8094 40.5725ZM32.8775 10.318C31.0345 10.7252 25.9249 12.3353 24.393 13.2161C22.2247 14.4615 21.8099 17.2791 22.6536 19.5C23.8698 19.2158 24.9728 18.4913 26.1464 18.122C27.9093 17.5632 31.3786 16.6634 33.1603 16.5309C35.8801 16.332 39.7594 18.0888 42.5546 18.2498C41.7486 15.8205 39.8396 13.9359 38.6564 11.8239C38.4113 11.3882 38.1851 10.1333 38.1002 10.0907C37.6477 9.85393 33.6223 10.1523 32.8775 10.3133V10.318ZM37.3602 47.3915C32.7832 40.2979 28.5127 33.1332 24.261 25.8265C22.253 22.3696 18.9157 19.552 20.6032 15.1434C21.9513 11.6155 25.4017 10.5927 28.5834 9.34724L14.3152 3.59846C12.4345 3.53216 3.3843 0.965568 2.32373 1.96C1.78167 2.46669 2.86109 6.91798 3.17219 7.72773C5.50544 13.8648 8.25349 17.3453 13.0944 21.503C16.5212 24.4485 21.0322 26.8398 23.5351 30.6424C28.1545 37.665 31.8547 45.5542 38.2039 51.2461C39.1938 52.1364 40.4429 53.4955 41.7391 53.576C40.2921 51.5208 38.7271 49.5082 37.3602 47.3962V47.3915ZM18.5386 29.8374C19.4672 33.3084 22.3095 39.6823 24.4825 42.5235C24.9586 43.1486 26.4434 43.2196 27.3578 43.9868C28.7437 45.1422 29.4036 47.3252 30.2426 47.9976C30.5584 48.2486 31.4116 48.3102 31.9254 48.6275C32.8257 49.1815 33.429 50.0055 34.1973 50.6874C34.5414 50.9952 34.3953 51.445 35.0411 50.9525C32.425 47.5052 29.6063 44.1193 27.24 40.4873C25.2414 37.4235 23.2051 32.7449 20.9756 30.1167C20.1837 29.1839 19.0807 28.6724 18.2841 27.7632C17.9919 28.1847 18.4019 29.3496 18.5339 29.8421L18.5386 29.8374Z" fill="white"/>
<path d="M197.421 91.7102C196.007 91.2509 198.534 94.3573 198.699 94.5514C201.951 98.4013 207.504 100.703 208.588 106.011C205.024 104.979 203.761 101.285 201.791 98.5671C201.235 97.7999 198.755 94.7551 199.198 97.4543C199.528 99.4715 202.474 104.003 203.921 105.542C205.566 107.29 208.362 107.55 209.092 108.308C210.044 109.302 209.95 110.552 211.652 110.761C212.345 110.846 213.712 110.638 213.429 109.7C213.292 109.245 212.189 109.298 211.807 108.677C211.345 107.929 211.077 105.826 210.657 104.804C208.041 98.4487 202.503 95.7211 197.421 91.7149V91.7102Z" fill="white"/>
<path d="M81.9937 111.452C82.1587 110.103 83.0778 105.448 82.2718 104.496C81.8004 103.942 81.3149 104.95 81.2112 105.296C81.0981 105.665 80.853 112.011 79.8537 111.589C78.8356 109.747 78.2228 107.706 77.61 105.694C77.2376 104.467 77.1528 102.786 76.8323 101.853C76.5117 100.921 75.4182 101.991 75.2768 102.824C74.9892 104.562 77.8693 112.759 79.2551 113.588C80.0045 114.033 81.2819 113.176 81.4893 112.342C82.1162 113.626 82.9128 112.584 84.1478 113.526C85.1047 114.255 86.3632 115.605 85.9484 116.86C85.0811 119.474 83.4596 115.671 82.3378 115.226C81.9136 115.056 80.9661 115.245 80.886 115.51C80.6833 116.145 84.7512 121.468 86.9147 118.868C89.3187 115.974 85.4252 110.562 81.9937 111.452Z" fill="white"/>
<path d="M141.202 108.597C141.649 107.621 142.055 106.532 142.319 105.49C144.039 98.7991 147.042 90.6921 151.077 84.9954C151.737 84.0625 156.257 79.0098 156.087 78.6452C155.578 77.5466 151.675 81.4533 151.251 81.8937C146.321 87.0269 144.765 92.8088 142.474 99.2253C142.135 100.168 141.31 101.186 141.093 102.142C140.994 102.583 140.627 106.679 140.664 107.058C140.721 107.65 140.881 108.104 141.202 108.601V108.597Z" fill="white"/>
<path d="M60.4571 89.423C61.4611 89.835 60.3581 85.7673 60.2686 85.4689C59.8726 84.1572 57.2377 78.7541 57.5158 78.2001C58.0437 77.1346 61.8523 77.7455 62.2954 78.3137C63.2523 79.5355 63.5492 84.877 64.591 85.431C64.9728 85.6347 65.364 85.4737 65.562 85.1043C65.7317 84.7918 64.492 78.7494 64.2092 78.1148C63.0072 75.3825 55.2957 74.4922 55.8142 78.953C55.9226 79.8811 56.8983 82.2631 57.3225 83.2385C58.2417 85.3458 59.5144 87.3299 60.4618 89.4277L60.4571 89.423Z" fill="white"/>
<path d="M75.1118 96.5593C74.2681 96.2893 74.3765 98.4013 74.2351 98.7944C74.0088 99.4242 72.6277 102.422 71.9961 102.27C69.8702 100.442 70.6668 98.6286 70.219 96.5308C69.9551 95.3044 68.6117 92.6147 68.9134 91.4687C69.2292 90.247 71.2419 92.0511 72.0574 92.1032C75.2956 92.2974 70.6857 89.3614 69.4083 89.2951C65.265 89.0773 67.9518 95.3328 68.3949 97.1938C68.8332 99.0453 68.2252 99.642 69.5356 101.778C73.594 108.369 76.4693 96.9949 75.1118 96.564V96.5593Z" fill="white"/>
<path d="M65.6138 88.3859C63.9876 89.565 62.187 88.0497 60.8813 89.8823C59.5945 91.6912 60.5938 97.2932 61.1029 99.4289C61.5082 101.143 61.7863 102.64 63.0496 103.965C62.9648 104.43 54.4519 102.479 54.3388 101.101C53.4479 103.696 58.1993 104.95 60.1649 105.424C61.6025 105.77 64.2846 105.367 65.0388 107.233C65.3357 107.972 63.6058 109.369 63.1344 109.989C62.6725 110.59 62.4038 111.315 61.923 111.907C61.7486 112.125 58.5858 114.615 60.6504 114.871C62.022 115.042 64.6098 111.04 65.298 109.861C66.5613 107.706 66.6791 105.67 64.1903 104.34C65.9391 103.771 66.6414 102.426 67.1175 100.774C67.3767 99.874 67.8481 97.7905 67.0468 97.1701C66.302 98.0509 65.397 102.838 63.9216 102.256C63.1109 101.934 61.48 91.9328 62.418 90.7868C62.993 90.0859 66.2502 90.0717 65.6138 88.3812V88.3859Z" fill="white"/>
<path d="M72.887 81.5054C73.9334 78.882 71.0204 75.2499 68.2535 76.0597C65.5195 76.8599 65.3216 83.2812 66.665 85.4642C67.4663 86.7664 71.2089 89.6834 72.8115 89.1436C74.5839 88.5469 75.5172 86.0277 74.1455 86.2787C73.2075 86.4539 72.986 87.8934 71.8594 87.5762C71.6143 87.5051 69.0124 85.431 68.6777 85.0948C67.3013 83.7121 67.4757 81.9316 67.8387 80.1605C68.8662 75.1883 71.3974 79.0667 72.887 81.5006V81.5054Z" fill="white"/>
<path d="M147.636 141.602C147.353 141.479 146.787 141.522 146.354 141.37C144.661 140.783 143.351 139.898 141.362 140.584C137.855 141.797 141.145 145.561 143.172 146.622C143.733 146.541 143.016 144.813 142.932 144.652C142.587 143.975 141.852 143.459 141.64 142.649C141.73 142.336 143.332 142.318 143.709 142.398C144.148 142.493 146.613 143.35 147.103 143.558C148.607 144.197 149.955 145.235 150.671 146.759C150.968 147.394 150.978 149.757 152.1 149.312C153.641 148.701 151.755 144.875 151.162 143.98C150.568 143.089 148.645 142.038 147.636 141.607V141.602Z" fill="white"/>
<path d="M155.682 84.0909C151.605 86.4728 150.101 91.5918 148.216 95.6358C147.838 96.4409 147.032 97.2743 146.651 98.0698C146.17 99.0643 144.586 103.677 145.835 104.34C147.047 104.984 147.485 101.034 147.848 100.144C148.517 98.5008 149.696 96.9854 150.445 95.3138C152.217 91.3598 153.075 88.7553 155.508 84.967C155.739 84.6071 156.163 84.6876 155.687 84.0862L155.682 84.0909Z" fill="white"/>
<path d="M199.104 98.7896C197.784 99.3815 198.75 103.833 198.227 104.216C195.984 105.059 191.378 103.838 190.695 101.399C190.12 99.3579 191.633 96.6397 191.529 94.9255C191.458 93.7938 190.558 94.5893 190.19 95.1197C189.045 96.7676 188.399 100.949 189.295 102.796C190.7 105.699 199.194 108.009 199.773 103.956C199.872 103.265 199.618 99.0027 199.109 98.7896H199.104Z" fill="white"/>
<path d="M144.2 150.226C146.368 150.192 148.074 152.186 150.257 152.532C149.95 150.211 143.229 146.347 142.357 149.728C141.97 151.23 144.798 156.022 146.033 157.125C146.971 157.963 150.337 159.55 151.393 158.603C152.613 157.509 149.04 156.846 148.522 156.566C145.788 155.089 145.562 152.759 144.2 150.221V150.226Z" fill="white"/>
<path d="M74.2728 104.917C74.1502 104.879 73.4856 105.315 73.33 105.552C72.755 106.433 76.0404 111.907 73.1226 112.006C69.611 112.125 67.6643 104.851 67.4569 102.043C66.1465 101.811 66.566 105.841 66.7168 106.537C67.1269 108.455 68.6258 111.419 70.1955 112.612C70.5396 112.873 73.0331 113.787 73.3819 113.772C75.9367 113.673 76.0451 110.23 75.5784 108.393C75.4653 107.948 74.4519 104.969 74.2775 104.913L74.2728 104.917Z" fill="white"/>
<path d="M54.5792 74.6438C53.3301 74.1892 51.2278 72.7117 49.8891 73.2279C48.3478 73.8246 47.8387 76.5474 48.3525 77.968C49.1585 80.1842 52.3355 86.7759 55.4088 85.3505C57.5252 84.3703 55.8095 81.316 54.9987 82.0452C54.6735 82.3388 55.324 83.66 54.6311 83.8163C53.25 84.1335 50.1531 78.2237 50.0305 76.8315C49.7053 73.1237 52.6796 75.9555 54.5792 74.639V74.6438Z" fill="white"/>
<path d="M87.4097 92.9082C85.9673 92.4347 84.9303 94.5514 85.0293 95.7116C85.1236 96.8718 86.0616 98.5102 86.3632 99.732C86.7073 101.134 86.8063 102.587 87.1363 103.989C87.174 104.145 87.0326 105.149 87.6312 104.775C88.0931 104.482 88.178 101.19 88.0931 100.509C87.914 99.0927 86.3444 95.5127 86.5754 94.8498C86.9477 93.8032 87.9753 96.4456 88.1638 96.7108C88.5787 97.279 89.149 97.6152 89.5497 98.2498C90.4028 99.6041 91.0675 101.271 91.5247 102.796C92.8775 102.663 92.4863 100.684 92.1657 99.7462C91.4775 97.7431 90.5772 97.1322 89.5355 95.7021C89.017 94.9871 88.3524 93.2255 87.405 92.913L87.4097 92.9082Z" fill="white"/>
<path d="M180.645 90.8199C180.9 89.655 182.931 88.5327 182.785 87.1074C180.594 87.6993 177.94 90.2517 178.958 92.7046C179.547 94.1253 181.47 95.1907 182.05 96.7581C183.921 98.7849 186.853 101.205 188.635 97.7668C189.012 97.0375 190.03 93.8743 188.314 95.1244C187.376 95.8063 187.386 98.2924 185.746 97.6342C184.525 97.1417 180.358 92.108 180.645 90.8199Z" fill="white"/>
<path d="M76.7239 91.6155C76.342 91.4213 75.47 92.0133 75.2956 92.572C74.4236 95.3943 76.9972 99.0359 78.7601 101.124C81.0651 103.857 83.3465 102.559 83.5445 99.2253C83.6011 98.3113 83.092 92.7757 81.5789 95.006C81.4186 95.2428 82.5405 99.4384 81.6355 100.703C81.3668 101.072 81.3385 101.067 80.9378 100.883C80.3439 100.608 77.4733 96.4456 77.1811 95.6595C76.8888 94.8734 76.9077 91.7102 76.7286 91.6155H76.7239Z" fill="white"/>
<path d="M145.878 161.799C145.769 161.728 144.185 161.988 143.313 161.628C141.786 161.003 138.949 158.872 138.67 157.149C138.496 156.06 139.726 155.004 138.798 153.929C136.559 156.443 136.611 158.773 139.213 161.013C136.752 161.235 141.164 165.133 142.012 165.933C140.848 166.373 140.292 165.583 139.368 165.369C137.822 165.014 137.511 165.819 135.918 164.366C135.277 163.778 134.909 162.954 134.23 162.476C133.551 161.998 131.939 161.742 131.152 160.994C130.191 162.983 132.213 162.893 133.024 163.603C134.244 164.683 134.07 165.578 136.054 166.525C137.69 167.306 137.916 166.923 139.481 166.946C140.155 166.956 140.961 167.576 141.598 166.965C141.899 166.676 141.961 165.928 142.366 165.796C142.771 165.663 143.86 166.255 144.407 165.658C142.922 164.659 141.546 163.849 140.74 162.135C142.649 162.94 144.398 164.171 146.41 162.737C146.222 162.457 146.137 161.96 145.878 161.79V161.799Z" fill="white"/>
<path d="M95.1777 102.677C94.5885 101.745 93.8768 102.924 93.6552 103.606C92.7125 106.456 94.2067 109.44 92.9576 112.215C90.2614 111.798 91.7509 107.995 91.3644 107.489C90.5348 106.409 89.2574 109.719 89.6392 110.917C89.8796 111.67 92.4014 114.89 92.9058 114.971C94.6215 115.255 95.2343 110.174 95.2296 108.966C95.2296 107.848 94.9421 106.712 94.9373 105.5C94.9373 104.931 95.3191 102.9 95.1824 102.682L95.1777 102.677Z" fill="white"/>
<path d="M56.2573 88.8026C55.8755 88.6937 55.3664 88.9116 54.9044 88.7742C53.7166 88.4191 52.7503 86.757 52.246 85.6773C50.846 86.7901 51.9584 88.599 52.953 89.6171C54.5415 91.2366 55.9839 89.8681 57.4074 92.7236C58.6518 95.2239 57.0162 98.174 57.4687 100.134C57.5535 100.504 57.7562 100.873 58.1286 100.764C59.2646 100.433 59.7642 94.7977 59.5898 93.6706C59.3588 92.1553 57.7515 89.2288 56.2525 88.8074L56.2573 88.8026Z" fill="white"/>
<path d="M76.4128 80.9845C74.6546 81.8416 75.2673 86.3308 75.998 87.6851C76.3279 88.296 79.5285 92.1222 80.0847 92.5626C81.117 93.3818 83.8933 94.5041 84.096 92.4584C82.9977 92.2027 82.0173 92.0606 81.1358 91.2651C80.1978 90.4127 77.5582 86.7285 77.2235 85.5589C76.8417 84.2235 77.3979 82.2583 76.4175 80.9798L76.4128 80.9845Z" fill="white"/>
<path d="M87.0514 90.7963C86.7026 89.2052 84.77 87.6709 84.2798 86.3734C83.8414 85.2037 84.9114 81.2639 82.22 82.4667C82.9034 83.9583 82.0173 85.682 82.6772 87.1642C83.0071 87.9124 85.2273 91.2035 85.7882 91.7718C87.848 93.8601 90.2473 89.6219 89.4978 88.76C88.7106 87.8556 87.8056 90.6779 87.0514 90.7915V90.7963Z" fill="white"/>
<path d="M191.237 88.8311C190.535 89.6219 188.522 90.6779 187.617 89.9676C187.442 89.8302 185.057 86.6812 184.987 86.4728C184.69 85.611 186.684 82.4761 185.133 82.7555C184.016 82.9592 183.063 85.7625 183.304 86.7427C183.61 87.9739 186.344 91.7528 187.593 91.9659C189.653 92.3211 192.25 89.1436 191.237 88.8263V88.8311Z" fill="white"/>
<path d="M152.463 93.9785C154.768 90.1096 157.002 85.8478 160.014 82.4572C160.528 81.8795 161.513 81.3349 161.805 80.9655C162.154 80.5299 161.475 79.9616 160.815 80.1889C159.26 80.7193 154.277 87.4341 153.5 89.1625C153.212 89.8018 151.821 93.6754 152.463 93.9785Z" fill="white"/>
<path d="M125.326 86.5344C122.319 88.9542 128.234 91.1277 130.03 90.479C132.184 89.7024 135.197 85.2085 133.702 83.0681C132.444 81.2639 132.788 84.3087 132.736 84.6497C132.496 86.2076 131.048 88.3575 129.512 88.85C129.323 88.9116 126.245 88.6274 126.043 88.5138C124.954 87.8982 125.604 87.4531 125.326 86.5391V86.5344Z" fill="white"/>
<path d="M139.194 87.0932C137.172 89.0868 134.24 91.1419 132.637 93.4623C131.614 94.9445 129.418 100.49 129.672 102.19C129.79 102.985 129.936 102.947 130.709 103.141C131.077 100.206 132.434 96.2278 134.027 93.7085C135.583 91.2556 138.067 89.7024 139.189 87.0884L139.194 87.0932Z" fill="white"/>
<path d="M54.1361 69.2407C53.2688 72.3471 58.3454 75.8608 61.1924 75.2594C62.0267 75.0842 64.6569 73.905 63.1439 73.1284C62.7621 72.9296 61.15 73.6067 60.4665 73.6257C59.4107 73.6541 57.1151 72.3613 56.5259 71.5137C55.9603 70.7039 56.1111 69.7189 55.4748 69.0323C55.0317 68.554 54.3199 68.5919 54.1361 69.2454V69.2407Z" fill="white"/>
<path d="M134.739 148.379C134.584 148.876 137.228 151.102 136.266 152.352C135.885 152.551 132.835 149.302 131.939 149.061C131.534 148.952 131.426 149.094 131.091 149.283C131.939 151.087 136.304 156.566 137.798 152.859C138.868 150.197 135.164 147.034 134.744 148.379H134.739Z" fill="white"/>
<path d="M149.988 126.018C150.794 127.354 152.821 127.486 153.815 128.741C155.112 130.375 155.22 134.622 157.968 134.329C156.724 130.758 154.932 124.366 149.988 126.018Z" fill="white"/>
<path d="M43.4786 72.0488C42.7621 72.2287 43.1298 72.4513 43.0685 72.8538C42.6301 75.7282 43.8227 78.8109 44.1385 81.6332C44.2186 82.353 43.95 84.7918 44.0301 84.9338C44.0819 85.0333 44.8125 85.27 44.9587 85.2274C47.1222 84.5929 44.1102 73.7535 43.4739 72.0488H43.4786Z" fill="white"/>
<path d="M143.427 137.341C143.408 137.639 143.771 138.018 143.879 138.33C148.847 135.38 147.956 142.445 151.845 143.156C152.298 142.09 151.072 141.399 150.615 140.456C149.719 138.605 149.757 136.914 147.202 136.18C146.203 135.892 143.502 136.247 143.431 137.336L143.427 137.341Z" fill="white"/>
<path d="M103.592 74.1229C103.445 74.5396 104.827 74.9374 104.987 75.7187C105.331 77.3903 102.819 78.9719 101.409 79.2182C100.834 79.3176 99.6651 78.863 99.0665 78.6547C98.9204 78.6026 97.5817 77.5939 97.8787 78.4605C99.5661 83.319 108.8 79.0382 105.67 74.5207C105.204 73.8482 103.865 73.351 103.592 74.1276V74.1229Z" fill="white"/>
<path d="M141.956 148.327C141.796 147.361 140.693 147.967 139.905 147.645C139.509 147.484 136.563 145.055 136.497 144.841C136.375 144.444 136.837 143.677 136.545 143.184C135.946 142.431 133.924 144.472 134.81 145.888C135.102 146.357 138.595 149.042 139.165 149.293C140.056 149.686 142.177 149.648 141.961 148.331L141.956 148.327Z" fill="white"/>
<path d="M116.686 96.3319C116.658 96.4977 117.61 97.4211 117.813 98.0509C117.949 98.4724 118.298 102.55 118.251 103.056C118.091 104.775 116.399 105.826 116.366 107.593C117.676 106.684 119.609 105.04 119.717 103.326C119.755 102.744 119.326 97.9088 119.156 97.4542C118.868 96.6871 118.397 95.5317 117.398 95.7969C117.228 95.8442 116.691 96.2799 116.686 96.3272V96.3319Z" fill="white"/>
<path d="M131.034 115.993C131.553 116.126 133.702 112.939 135.866 113.701C137.718 114.355 137.04 117.566 138.977 117.977C138.859 115.141 138.091 111.561 134.456 112.243C132.892 112.537 130.714 114.208 131.034 115.989V115.993Z" fill="white"/>
<path d="M44.4637 90.9052C43.917 91.0946 44.0301 91.0709 44.0584 91.5066C44.2375 94.0968 46.434 95.9531 45.2085 99.0406C44.7748 100.125 44.1715 100.21 43.5823 101.029C45.6469 102.753 47.0232 98.7517 47.0327 97.118C47.0468 94.5609 45.7506 92.9556 44.4637 90.9052Z" fill="white"/>
<path d="M29.8797 73.0527C29.1539 75.0415 29.8703 76.6137 29.9033 78.4321C29.9175 79.1945 29.399 80.4825 29.5074 81.0413C29.7289 82.1873 30.436 81.5385 30.8366 80.8424C32.5948 77.7691 30.007 74.4401 31.6898 71.2248C30.879 71.1585 30.1201 72.3945 29.8797 73.0527Z" fill="white"/>
<path d="M136.488 99.893C135.338 99.5378 134.16 105.419 134.225 106.201C134.461 109.037 137.605 109.236 137.355 108.492C137.101 107.597 136.158 107.1 135.988 106.167C135.88 105.566 137.27 100.139 136.488 99.8977V99.893Z" fill="white"/>
<path d="M18.7084 81.8037C20.132 80.5536 18.5435 78.7873 18.1617 77.5182C17.5819 75.5956 17.5347 71.6936 15.3759 71.4426C15.9557 72.7165 15.8473 76.1402 16.3469 77.1346L18.7037 81.8037H18.7084Z" fill="white"/>
<path d="M84.6805 106.759C84.5532 106.622 84.0677 106.537 83.865 106.698C82.4981 107.792 86.0616 113.938 87.8905 112.437C88.3713 112.044 89.6769 108.483 88.4042 108.824C87.9187 108.957 87.1504 111.646 86.5942 110.543C86.1558 109.672 85.1707 107.285 84.6852 106.755L84.6805 106.759Z" fill="white"/>
<path d="M152.661 108.156C152.882 107.545 150.473 107.934 150.139 106.182C149.903 104.955 152.024 100.726 151.986 99.6183C151.972 99.1258 151.567 98.5813 151.232 98.7423C150.916 98.8938 148.781 104.538 148.682 105.268C148.234 108.464 152.566 108.431 152.665 108.156H152.661Z" fill="white"/>
<path d="M31.8359 86.5439C31.7888 86.5249 31.1901 86.7522 31.1383 87.0884C30.8885 88.6132 33.8062 90.8957 34.4755 92.3447C35.027 93.5286 34.4755 94.5467 35.1637 95.6406C38.0202 92.018 34.6358 90.0197 32.4393 87.5856C32.2083 87.3252 31.8925 86.5675 31.8359 86.5486V86.5439Z" fill="white"/>
<path d="M152.689 135.749C152.873 138.302 155.206 138.61 156.747 139.694C157.426 140.172 159.118 142.507 159.773 141.977C160.575 141.328 158.015 137.956 156.974 137.71L152.689 135.745V135.749Z" fill="white"/>
<path d="M132.948 166.747C132.533 166.861 132.463 167.131 132.382 167.505C131.628 170.919 138.072 174.272 139.524 170.697C140.179 169.087 137.747 170.626 137.45 170.673C135.456 171.009 133.485 168.429 132.948 166.747Z" fill="white"/>
<path d="M119.858 82.4193C119.783 82.6135 119.844 83.4611 120.023 83.5227C121.414 81.941 123.86 81.5622 125.75 82.3483C126.387 82.6135 128.216 84.7302 128.348 83.4185C128.517 81.7374 125.609 80.5772 124.266 80.4589C122.861 80.3357 120.405 81.0034 119.858 82.4146V82.4193Z" fill="white"/>
<path d="M204.35 91.033C203.671 89.9344 202.125 90.3464 201.197 90.1049C200.575 89.9439 199.693 89.6787 199.113 89.4183C198.444 89.1199 194.881 86.3971 195.936 88.8169C197.039 91.3503 201.979 92.2548 204.35 91.0378V91.033Z" fill="white"/>
<path d="M182.022 86.2219C182.059 86.0987 181.626 85.4263 181.39 85.27C180.707 84.8296 179.971 85.862 179.844 84.7681C179.641 83.0207 181.97 82.1683 181.616 80.402C179.877 81.458 177.52 82.604 178.095 85.0475C178.67 87.4909 181.838 86.8422 182.026 86.2219H182.022Z" fill="white"/>
<path d="M26.1418 58.9838C25.3641 58.8417 25.6233 61.1526 25.5291 61.6214C24.9493 64.51 22.2154 66.4563 23.6813 69.1176C24.0678 66.6315 26.2597 65.1256 26.7216 62.6443C26.8583 61.9197 26.9856 59.1353 26.1418 58.9838Z" fill="white"/>
<path d="M135.932 159.512C136.135 158.877 133.047 156.609 132.637 155.913C132.17 155.113 132.665 152.593 131.355 153.266C128.946 154.502 133.424 160.871 135.927 159.512H135.932Z" fill="white"/>
<path d="M119.363 86.828C118.223 86.3639 116.578 86.5344 115.743 85.0711C114.702 87.5856 118.864 87.7419 119.839 88.9258C120.905 90.2185 119.901 90.6447 120.448 91.8759C122.922 90.2327 121.857 87.8366 119.368 86.828H119.363Z" fill="white"/>
<path d="M125.119 163.75C124.119 164.295 124.897 165.905 125.317 166.648C126.236 168.282 128.758 171.066 130.455 171.819C129.62 168.689 126.627 166.615 125.119 163.75Z" fill="white"/>
<path d="M152.307 134.992C153.848 134.381 153.297 131.729 152.585 130.654C151.459 128.954 146.99 129.087 148.706 130.9C149.154 131.369 150.026 131.08 150.469 131.308C151.657 131.914 152.043 134.907 152.307 134.992Z" fill="white"/>
<path d="M13.1605 57.6626C12.6561 57.4921 12.1848 59.7272 12.2083 60.1913C12.2366 60.8164 13.3679 65.8927 13.6083 66.5557C14.1032 67.91 14.6453 66.8351 14.7301 65.8643C14.9328 63.5156 13.9477 62.3175 13.3349 60.3523C13.0332 59.3816 13.3726 58.5765 13.1652 57.6673L13.1605 57.6626Z" fill="white"/>
<path d="M30.9403 60.3476C30.4407 60.4754 30.5114 60.7311 30.4407 61.1289C30.2521 62.147 31.7511 68.8334 32.8729 68.2415C34.0843 67.6022 31.6427 61.361 30.9403 60.3476Z" fill="white"/>
<path d="M131.609 174.727C129.62 176.057 125.472 178.534 127.362 181.328C128.267 181.086 127.447 180.438 127.768 179.831C128.395 178.643 131.298 177.288 131.972 175.839C132.161 175.432 131.741 175.091 131.609 174.727Z" fill="white"/>
<path d="M122.413 107.058C120.98 106.565 123.304 110.117 123.313 110.401C123.323 110.699 122.748 112.233 122.536 112.484C122.173 112.911 120.627 113.166 121.569 113.843C123.148 114.98 125.637 110.874 124.261 108.848C124.181 108.734 122.536 107.1 122.418 107.062L122.413 107.058Z" fill="white"/>
<path d="M16.8748 45.6157C15.0035 46.7901 15.885 50.7016 16.3988 52.5105C16.6816 53.5191 17.0351 55.4606 18.1852 54.4709C16.9832 51.696 17.0869 48.5801 16.8748 45.6157Z" fill="white"/>
<path d="M130.304 164.072C130.139 163.101 128.366 161.813 127.81 160.909C127.509 160.421 127.334 158.304 126.25 159.379C125.213 160.407 128.366 164.617 129.724 164.744C130.205 164.792 130.37 164.46 130.304 164.072Z" fill="white"/>
<path d="M110.657 76.8741C110.591 76.8599 110.139 77.0162 110.219 77.253C111.049 79.6349 113.594 78.5742 114.277 79.6396C114.702 80.3026 114.136 81.8227 114.466 81.9079C115.201 82.102 115.852 80.402 115.734 79.6917C115.371 77.4803 113.226 77.968 111.591 77.5182C111.096 77.3808 110.704 76.8884 110.648 76.8741H110.657Z" fill="white"/>
<path d="M163.115 130.754C163.431 129.736 159.509 126.336 158.058 126.667C157.346 128.31 159.363 128.817 160.471 129.551C160.829 129.788 162.757 131.904 163.115 130.754Z" fill="white"/>
<path d="M153.867 144.349C153.961 144.387 154.862 143.823 155.823 144.524C155.998 144.652 158.006 148.35 158.67 146.982C158.736 146.849 157.742 144.472 157.591 144.197C156.997 143.123 154.357 142.052 153.669 143.34C153.509 143.643 153.683 144.278 153.872 144.349H153.867Z" fill="white"/>
<path d="M12.4629 45.6394C10.5538 46.3166 7.95663 54.2578 11.1242 53.9311C11.8218 53.8601 10.4172 51.4687 10.8791 50.9099C11.0912 50.2706 11.0629 49.5698 11.2656 48.9305C11.3976 48.5091 12.9861 45.7957 12.4629 45.6394Z" fill="white"/>
<path d="M23.2005 73.8103C21.8147 73.441 22.0363 76.8173 22.1635 77.575C22.4228 79.114 23.3325 80.5678 22.9931 82.1636C24.7466 82.4998 23.3089 76.912 23.2382 76.2443C23.1911 75.8039 23.3844 73.8624 23.2005 73.8151V73.8103Z" fill="white"/>
<path d="M196.031 90.1996C195.371 90.5405 195.135 91.3408 194.414 91.6486C193.735 91.9375 190.252 91.3503 190.568 92.5105C191.02 94.1726 197.572 93.5049 196.035 90.1996H196.031Z" fill="white"/>
<path d="M38.2087 76.0028C36.8229 76.4906 37.7515 78.309 37.4074 79.4218L35.8566 83.2243C38.5528 82.2062 39.3966 78.4747 38.2087 75.9981V76.0028Z" fill="white"/>
<path d="M148.216 108.928C147.56 108.668 145.609 108.545 145.039 108.066C144.6 107.702 145.896 107.096 145.095 106.935C144.294 106.774 142.988 108.445 144.355 109.53C144.723 109.818 148.272 110.472 148.588 110.088C148.974 109.619 148.748 109.141 148.216 108.928Z" fill="white"/>
<path d="M40.5373 64.9788C39.2269 64.8178 40.2215 67.0861 40.2827 67.7348C40.4194 69.1649 40.2497 70.6329 40.3252 72.063C42.1258 71.5137 41.8005 65.1351 40.5373 64.9788Z" fill="white"/>
<path d="M156.134 120.667C156.026 121.325 159.099 123.698 159.759 124.02C160.15 124.209 160.443 124.356 160.81 124.001C161.951 122.898 157.402 119.91 156.134 120.672V120.667Z" fill="white"/>
</svg>
