<svg width="447" height="50" viewBox="0 0 447 50" fill="none" xmlns="http://www.w3.org/2000/svg">
<path d="M8 7H441V42H8V7Z" fill="white"/>
<path d="M18.8953 49.9882C17.7797 50.0841 16.2051 49.5653 14.8891 49.538C11.9203 49.4734 9.95798 49.3393 8 49.1974L0.927716 49.3183L0.802617 42C0.924199 40.3221 1.05148 38.6475 1.14561 36.3457C1.44859 28.95 0.766691 7.00055 4.3711 7C4.37119 7 4.37128 7 4.37137 7C4.40671 7.00001 4.44246 7.00212 4.47863 7.00638C5.1653 7.08331 5.91493 8.95022 6.69153 9.22727C7.46841 9.50388 12.4838 9.29645 12.7658 11.948C13.1373 15.7926 11.8513 25.0153 11.9083 27.0658C11.9476 28.4676 12.4035 30.1935 12.4845 31.986C12.6718 36.135 12.5528 38.864 12.929 42L8 37.071C9.23249 36.9232 10.5279 36.6989 11.9969 36.3495C14.0798 37.0021 16.1626 37.6548 18.2454 38.3075C20.9629 38.0049 25.0817 38.8656 26.7326 38.8182C28.087 38.7792 28.8809 38.2631 30.2925 38.2391C31.8757 38.2093 34.3073 38.7664 37.1873 38.6825C41.9087 38.5475 42.7488 37.2011 45.5817 37.0301C48.5193 36.8532 53.0878 37.585 56.8361 37.1112C57.3062 36.9631 57.7763 36.815 58.2464 36.6669C57.9097 36.3319 57.5728 35.9969 57.236 35.662C59.124 35.506 59.9358 36.1925 61.6706 36.2049C63.7118 36.2199 64.7531 35.5691 66.1267 35.5721C67.2518 35.5752 68.7774 36.097 70.2364 36.0643C72.3633 36.0193 71.8983 35.2658 73.0428 35.1249C73.4995 35.0701 81.9429 34.6543 82.4192 34.6483C86.0418 34.6186 86.3574 35.6499 89.2461 35.7401C97.2581 35.9861 105.483 35.1527 112.894 34.8378C116.203 34.6969 119.656 34.7568 122.956 34.9217C117.758 37.5612 129.26 39.6154 124.959 35.4852C128.63 36.0728 131.233 34.9578 134.714 35.1463C136.965 35.2693 138.523 35.842 141.737 35.827C147.44 35.7967 153.679 34.1689 155.319 37.1112C162.015 36.5925 167.813 37.6598 170.226 35.0624C171.953 34.9037 176.377 36.4508 178.314 36.661C180.145 36.859 194.196 37.5576 196.495 37.5965C198.794 37.6355 202.818 37.6779 204.754 37.4501C207.186 37.1681 208.886 34.4744 213.216 37.6239C218.251 37.369 220.045 37.4592 224.728 37.8251C225.575 37.8912 225.671 38.3588 226.166 38.3592C227.187 38.3592 228.923 38.0137 230.744 37.9715C233.739 37.9026 235.448 38.8864 235.114 37.3837C237.089 37.1317 239.063 36.8797 241.038 36.6278C241.731 36.9178 242.423 37.2079 243.116 37.4979C244.172 37.1818 245.227 36.8658 246.283 36.5497C245.043 38.7243 252.473 37.441 250.061 36.1932C253.888 36.6431 257.716 37.093 261.544 37.5428C261.009 40.0143 269.948 37.8281 269.195 36.4842C269.633 36.4862 270.071 36.4881 270.509 36.4901C274.344 37.147 277.865 36.6097 282.539 37.0506C287.212 37.4916 286.773 37.7322 288.194 38.869C289.294 38.8039 290.394 38.7388 291.493 38.6737C297.264 35.5572 296.244 40.953 306.126 38.5624C309.283 40.5211 317.065 39.4922 322.225 38.8983C322.826 38.8293 322.836 38.4491 323.636 38.3319C325.591 38.05 330.58 38.5387 330.409 37.3124C332.136 37.6672 333.863 38.022 335.59 38.3768C337.001 38.1538 338.413 37.9309 339.825 37.7079C339.818 37.3251 339.81 36.9422 339.803 36.5594C342.646 37.8641 347.112 37.3627 349.315 37.6747C349.754 37.7379 349.848 38.266 351.211 38.41C352.804 38.581 355.772 38.4247 357.67 38.5897C358.408 38.0048 359.146 37.4198 359.884 36.8348C363.278 36.5175 364.471 38.0615 366.465 38.1815C366.823 38.2024 373.371 38.0914 373.724 38.0585C376.612 37.7972 375.793 36.4818 384.146 36.7635C385.633 36.8145 386.836 37.2697 388.181 37.288C390.556 37.3209 397.712 36.2887 398.275 35.3348C401.155 36.5286 408.862 36.0407 411.132 36.3856C411.818 36.4917 411.972 37.2521 414.078 37.4139C415.785 37.5459 420.182 36.937 422.348 37.0389C424.646 37.1499 425.467 37.7887 426.496 37.8339C427.469 37.8758 428.366 37.3602 429.692 37.3631C433.831 37.3811 437.579 38.2112 440.85 38.2264C440.9 38.2267 440.95 38.2268 441 38.2267L437.227 42C437.218 37.3306 435.716 33.1981 435.046 29.2816C435.145 28.2991 435.472 27.3338 435.475 26.3037C435.499 20.1299 435.577 13.5731 435.688 7L441 12.3118C434.006 12.1932 426.995 12.0368 420.406 11.8683C414.473 11.7181 399.719 9.64572 403.657 13.1037C401.595 13.7092 386.603 12.3151 383.751 12.2941C380.9 12.2733 378.64 12.8933 376.399 12.9025C369.637 12.9295 364.874 12.4827 356.643 13.0226C354.517 13.1638 352.239 13.8983 350.98 13.8898C349.464 13.8778 347.832 13.1673 345.867 13.1222C341.184 13.0202 332.457 13.2539 327.964 13.131C327.144 13.107 326.856 12.4832 325.683 12.2882C321.114 11.5264 315.993 11.5925 316.899 13.5841C311.043 12.4534 305.626 13.4848 300.2 13.548C288.725 13.677 267.824 13.2121 257.828 14.049C251.525 14.5769 251.686 15.4702 242.407 14.6994C240.347 14.5284 238.296 14.2978 235.797 14.0939C229.941 13.614 224.569 11.9638 220.105 13.9523C213.601 13.4366 208.42 13.8023 203.594 12.1017C203.026 12.5096 202.457 12.9175 201.888 13.3253C201.09 13.3354 200.293 13.3455 199.495 13.3556C199.247 12.9666 198.998 12.5776 198.749 12.1886C193.037 12.0839 185.789 13.6827 180.954 13.671C172.846 13.653 151.964 13.0319 144.277 12.507C140.195 12.2282 139.976 13.0614 137.639 11.3488C136.726 11.4679 135.813 11.587 134.9 11.7062C134.329 12.0812 133.758 12.4562 133.187 12.8312C127.95 12.8462 121.74 12.2637 116.751 12.2697C107.661 12.2817 94.0119 13.3138 84.8839 12.6359C82.5952 12.4649 79.7342 11.6916 77.4929 11.7003C74.2309 11.7123 73.438 12.9957 69.2984 13.0197C62.1639 13.0587 48.8771 11.5678 42.1336 11.6818C40.1307 11.7148 39.1962 12.1923 37.8132 12.2433C32.014 12.4623 27.2529 12.4234 21.6921 13.1613C15.7213 11.9315 16.2371 10.3441 14.3867 8.74231C12.9844 7.5334 8.6844 4.73175 8.07399 3.67297C7.64522 2.92911 9.24613 1.97223 8.64528 1.15343C15.7988 0.499546 18.8041 1.21939 24.6128 2.37121C35.34 2.32531 46.0672 2.27941 56.7943 2.23351C57.7703 2.68045 58.7462 3.12739 59.7222 3.57433C59.7222 3.57531 59.7222 3.57629 59.7222 3.57726C63.8418 4.09306 65.5878 2.94205 67.8095 2.68078C89.0796 0.179153 130.944 2.1371 154.36 2.41906C159.406 2.47903 175.82 1.87677 179.283 2.60265C180.179 2.7917 180.428 3.48086 181.382 3.51086C189.903 3.10102 198.423 2.69119 206.944 2.28136C224.465 3.35219 242.579 2.46782 260.234 2.30285C308.001 1.85592 355.29 1.31268 402.275 1.47765C411.355 1.51064 422.878 0.994308 431.768 1.32726C435.24 1.45646 436.817 2.43416 441 1.88273L446.028 1.79677L446.117 7C446.155 7.28645 446.2 7.58512 446.253 7.89746C445.955 7.94863 445.656 7.99981 445.358 8.05099C445.718 12.3043 446.397 15.0224 446.466 19.791C446.523 23.8066 446.567 34.431 446.453 37.9795C446.396 39.82 445.839 39.1343 445.842 40.8502C445.843 41.1913 445.854 41.5775 445.873 42L445.955 46.7885L441 46.8732C437.784 47.0192 432.465 47.621 428.882 47.621C425.209 47.621 419.019 46.9792 416.195 47.0722C406.028 47.4021 394.953 48.3535 384.117 48.0985C381.124 48.0264 377.275 47.304 376.337 47.3241C374.506 47.3661 373.961 48.0679 372.731 48.1581C366.484 48.614 356.746 47.78 350.622 47.747C330.668 47.639 309.53 47.9453 289.662 47.8163C277.11 47.7353 256.251 47.8588 244.662 47.3309C242.163 47.217 242.829 46.4481 240.731 46.4481C238.404 46.4483 237.144 46.9677 236.057 47.0097C228.531 47.3036 211.917 47.8286 204.811 47.2977C203.457 47.1958 202.476 46.5934 201.665 46.5956C201.255 46.5956 200.329 47.0067 199.041 47.0487C187.671 47.4207 179.382 47.1809 168.241 47.0399C146.905 46.773 122.183 47.5378 99.7685 47.1239C94.885 47.0339 91.536 45.8424 90.8493 45.8544C89.3423 45.8784 88.3776 46.6799 85.3256 46.8778C75.1776 47.5285 61.5108 46.6733 51.8587 47.0751C47.0902 47.273 40.5374 48.2904 35.8447 48.5155C32.0968 48.6955 23.2451 48.2964 21.5839 48.7431C20.5732 49.0129 20.1057 49.8797 18.8953 49.9882ZM145.161 36.496C144.493 37.8818 151.511 36.7301 148.878 35.9862C148.285 35.8187 145.334 36.1362 145.161 36.496ZM437.902 9.2507C437.506 9.31497 437.111 9.37924 436.715 9.44351C436.879 10.3647 437.044 11.2859 437.209 12.2071C437.447 11.6894 437.685 11.1717 437.923 10.6539C437.916 10.1862 437.909 9.71844 437.902 9.2507Z" fill="white"/>
</svg>
