<svg width="1232" height="124" viewBox="0 0 1232 124" fill="none" xmlns="http://www.w3.org/2000/svg">
<path d="M2 40H1202V91H2V40Z" fill="#FFCA05"/>
<path d="M2.12355 4.94717C18.6975 0.688572 35.2496 -1.13143 52.2983 0.723419C56.1831 1.14287 55.817 4.43433 57.4141 4.96671C60.3494 5.94993 65.2753 2.39827 65.9659 2.39827C70.2516 2.35301 68.5769 8.11406 69.1537 8.33594C75.5843 10.6749 73.7334 4.11285 79.8816 3.48229C87.888 2.65958 98.1618 3.83339 107.808 4.15614C111.196 4.28517 109.688 8.67099 117 8.30176C122.179 8.04364 138.068 3.04489 145.385 8.38477C145.428 10.4011 144.504 12.6273 144.115 14.7082C154.603 6.30431 158.357 6.67302 173.226 8.72169C175.578 9.04435 177.805 5.5917 181.949 6.86617C186.091 8.1417 186.266 13.4641 194.595 13.3996C197.55 13.3639 199.342 9.61051 203.873 9.44925C216.757 8.9816 241.296 13.6435 251.871 13.8048C272.697 14.1273 284.028 7.72142 302.523 9.94732C303.948 10.1086 300.819 14.2221 303.43 14.3029C306.063 14.3836 308.805 8.93377 309.452 8.8047C316.444 7.40195 331.219 14.7028 335.108 13.8195C344.561 11.6577 335.245 9.25612 348.346 8.22363C360.82 7.24112 378.042 14.3366 390.408 15.7238C404.737 17.336 409.357 7.02938 420.148 17.7893C458.044 17.1602 496.092 16.7753 534.032 16.2268C533.924 18.3718 533.798 20.5176 533.669 22.6625C536.669 21.1783 539.669 19.692 542.669 18.2239C542.216 19.8206 541.786 21.4189 541.333 22.9994C555.423 16.8384 567.982 13.6601 584.445 15.3527C584.767 15.3848 583.92 19.6616 584.187 19.7718C587.899 20.5784 592.047 17.2884 595.306 18.0628C603.184 19.918 616.565 29.2436 610.673 17.8382C629.038 20.1931 650.618 16.337 668.12 18.5462C675.694 19.4978 677.963 26.2571 681.588 26.647C685.209 27.0337 683.366 21.2255 684.651 21.0023C692.377 19.7118 705.092 19.9514 706.432 26.4517C707.985 23.8552 709.629 21.2271 711.204 18.6146C710.281 25.8218 734.155 22.8428 740.419 23.019C741.563 23.0512 741.723 26.2105 742.586 26.1782C752.207 25.7736 754.559 20.8217 762.801 19.1761C765.693 18.5953 761.208 24.1629 768.632 21.7592C769.279 21.5481 768.935 16.5461 777.804 16.5784C791.962 16.6266 819.046 14.6428 835.901 17.1106C837.282 17.3041 833.077 22.7567 839.394 21.4857C841.682 21.034 840.586 17.1624 846.133 17.1301C867.628 16.9689 890.548 21.4202 912.476 17.7259C911.676 22.0976 903.866 27.0016 915.606 24.2592C917.482 23.8065 916.082 19.9023 916.923 19.7572C923.742 18.629 929.654 21.4178 937.033 19.9183C939.213 19.4666 939.754 16.401 942.474 15.675C946.487 14.5947 948.263 18.9658 952.925 17.1106C960.215 14.1908 961.341 10.0472 970.381 18.1751C1021.62 17.6588 1072.61 15.3704 1123.67 18.9515C1138.43 16.6285 1152.06 14.033 1167.44 13.1456C1171.98 12.8875 1172.84 18.4359 1180.07 16.5979C1181.69 16.1946 1193.24 10.2396 1194.92 21.4515C1197.77 20.5959 1199.68 20.4716 1202 20.0412L1221.3 19.4241L1221.96 40C1222.01 40.3022 1222.08 40.6112 1222.15 40.93C1222.39 40.6212 1222.63 40.311 1222.87 40L1222.19 18.4801L1202 19.1256C1200.2 17.7186 1198.38 16.3005 1196.67 14.884C1198.49 15.1645 1200.27 15.3041 1202 15.3328L1225.85 14.57L1226.67 40C1226.51 49.3244 1229.57 57.4558 1231.15 66.1558C1232.52 73.7503 1227.71 68.3579 1228.2 73.0182C1228.66 77.6798 1229.74 79.7995 1223.99 85.6263C1226.73 87.5164 1227.55 89.1447 1227.55 91L1228.34 115.704L1202 116.546C1199.36 116.545 1196.27 114.897 1191.32 114.793C1190.41 114.777 1185.17 117.353 1180.79 116.839C1177.64 116.468 1176.71 112.325 1171.71 112.967C1170.89 113.063 1160.31 118.197 1156.94 118.665C1151.7 119.407 1143.36 114.096 1142.35 114.031C1127.61 113.096 1121.93 118.34 1111.46 109.71C1109.35 114.839 1100.61 117.84 1093.56 117.342C1084.64 116.712 1066.77 106.225 1064.33 117.307C1054.02 112.372 1055.14 115.418 1042.91 115.515C1031.77 115.612 1002.29 111.373 993.265 111.985C984.244 112.582 988.639 118.746 985.057 119.568C979.193 120.936 982.36 116.388 978.347 116.453C966.996 116.647 957.131 117.516 946.297 119.5C945.714 116.307 945.088 113.098 944.484 109.905C943.923 110.969 943.364 112.034 942.804 113.098C940.473 113.066 937.861 113.132 935.703 113.035C953.914 127.052 918.113 111.998 907.365 111.643C898.301 111.353 883.213 118.001 873.263 119.436C870.849 119.79 872.509 116.339 872.013 116.419C866.186 117.403 865.302 119.759 857.467 119.436C853.324 119.259 849.095 114.938 845.06 114.856C815.428 114.275 786.832 118.617 757.395 119.085C752.388 119.166 748.069 113.891 743.861 113.777C737.841 113.616 734.042 117.934 728.389 118.001C722.757 118.065 714.638 112.904 710.818 113.694C706.998 114.468 713.535 119.47 706.542 118.099C703.331 117.468 709.003 113.744 705.034 113.631C692.647 113.276 675.166 117.888 661.98 113.421C662.562 114.533 663.358 115.535 664.07 116.599C650.02 116.164 637.608 113.486 623.105 113.098C618.034 112.954 608.887 116.224 603.902 116.209C598.918 116.193 596.65 112.645 592.659 112.547C591.018 112.498 591.66 115.678 590.559 115.613C576.793 114.773 569.239 109.114 554.825 109.758C502.013 112.114 447.557 114.148 393.926 116.277C391.769 116.361 390.318 120.503 387.168 121.116C382.317 122.065 382.079 118.403 381.432 118.274C377.204 117.469 378.928 120.857 373.253 120.857C360.757 120.857 340.599 117.855 328.146 118.113C299.442 118.71 275.314 121.938 247.171 123.567C245.143 123.696 246.518 118.793 243.001 118.728C218.207 118.213 212.958 122.908 182.098 121.585C151.235 120.262 92.9842 117.292 56.8567 116.614C56.8567 116.603 56.8567 116.591 56.8567 116.58C45.4839 125.645 30.7699 123.391 18.555 116.536C88.9988 94.1763 156.398 104.127 231.633 103.24C310.708 102.32 395.006 86.0736 475.139 88.2832C482.671 88.4929 485.697 93.6562 492.042 92.5753C493.115 92.3925 490.337 88.4134 493.636 88.0098C538.957 82.5893 587.28 91.6586 631.781 89.1426C643.78 88.465 645.662 84.0282 656.215 82.8827C654.36 84.9792 653.147 87.1715 651.529 89.2842C699.7 95.834 747.94 92.9141 796.737 93.8498C798.937 93.8992 799.219 98.2394 801.528 98.4007C806.145 98.7387 810.569 93.9636 814.604 93.8009C819.87 93.5912 820.781 97.0445 825.637 96.8186C828.007 96.703 827.298 93.3844 832.452 93.9474C832.883 93.9958 833.165 97.4776 836.594 97.0286C845.981 95.7865 865.168 92.8657 872.939 91.9942C882.864 90.8813 890.829 96.1262 894.586 96.467C904.727 97.3864 904.516 92.0156 913.102 92.0138C974.222 91.9815 1032.65 98.0926 1095.22 98.0442C1099.15 98.0418 1113.69 92.0622 1120.96 92.3019C1123.4 92.3986 1136.14 93.9781 1138.05 94.1086C1145.8 94.6087 1152.5 98.2235 1156.77 98.9817C1165.06 100.465 1174.32 94.8196 1178.83 94.255C1185.57 93.4039 1196.77 93.8154 1202 94.0461L1205.14 93.9457L1205.05 91C1205.09 90.0872 1205.12 89.356 1205.14 88.8618C1205.5 80.8333 1212.48 83.486 1210.85 77.7236C1210.36 76.0211 1205.01 77.8041 1205.01 71.806C1205.03 66.7804 1209.06 64.7474 1209.79 61.3168C1210.51 57.8859 1204.27 51.5915 1204.43 49.4531C1204.72 45.791 1205.35 42.7976 1206.07 40L1205.94 35.8027L1202 35.9286C1196.26 34.4384 1191.34 32.545 1183.15 32.404C1173.05 32.2433 1126.33 35.1013 1122.44 36.5692C1105.05 43.1286 1134.02 40.1858 1135.65 40.4072C1144.48 41.6816 1143.19 44.1984 1151.99 39.3915C1159.87 54.217 1187.32 31.1335 1194.36 48.7179C1197.02 44.4376 1199.52 42.5101 1202 41.9025L1200.1 40C1201.15 44.3059 1198.23 48.5429 1196.73 53.4045C1193.48 63.9942 1200.3 55.9299 1200.35 63.6551C1200.37 66.701 1195.05 75.5262 1195.79 80.1001C1196.46 84.2134 1199.82 86.1855 1200.66 91L1202 89.6584C1201.46 89.7517 1200.89 89.8133 1200.27 89.836C1189.33 90.2547 1180.53 88.3507 1171.33 83.4637C1169.65 85.6249 1168.08 87.7871 1166.42 89.9483C1160.07 87.6252 1153.7 85.3165 1147.36 83.0096C1148.37 84.8971 1149.39 86.801 1150.4 88.6885C1148.55 88.9627 1146.69 89.2214 1144.83 89.4795C1138.66 86.6405 1132.76 84.0119 1126.42 81.076C1109.18 91.9942 1114.18 82.5444 1104.6 81.1248C1095.02 79.7067 1089.48 86.0274 1082.08 86.0615C1072.1 86.1099 1067.53 86.8988 1057.47 86.4472C1051.64 86.1891 1041.76 80.09 1049.87 89.753C1031.68 90.5273 1006.77 93.2239 990.497 89.3037C985.692 88.1599 992.099 85.1165 991.28 84.7382C987.202 82.9479 983.766 87.8817 979.559 87.1748C972.568 85.9973 958.951 82.1559 953.446 81.2517C945.525 79.945 933.072 86.3358 931.799 86.8037C924.68 89.3997 922.775 84.0937 920.489 84.4598C907.476 86.5892 904.603 88.8176 900.503 77.6237C897.134 82.4635 883.021 90.6072 879.61 82.4627C879.523 89.818 867.806 88.578 860.598 90.417C859.26 88.2875 857.899 86.1709 856.561 84.0253C841.519 97.1889 811.564 87.6269 791.773 86.0615C791.277 86.0292 790.39 91.5421 787.412 90.2999C787.223 90.198 787.529 87.7206 785.531 87.3994C778.949 86.3664 753.833 80.178 750.943 80.1238C740.303 79.9141 738.443 84.0287 731.969 84.4159C723.445 84.932 722.213 81.2188 714.101 81.7498C710.304 81.9917 706.848 86.8792 700.873 86.1884C697.335 85.7853 696.985 81.947 694.182 81.6375C684.212 80.5244 676.889 82.9466 668.04 77.946C665.731 90.1556 661.502 81.1562 657.121 80.2361C639.339 76.4774 617.175 81.6368 601.917 80.5242C554.308 77.0235 512.092 69.4935 465.585 67.7992C458.031 67.525 456.211 73.6553 448.291 73.2681C444.73 73.0887 441.06 68.6499 435.234 68.5854C430.552 68.5217 423.844 70.7782 417.997 70.7632C416.443 70.7632 416.304 66.601 414.017 66.5687C396.666 66.3273 379.723 69.2824 362.2 71.3149C355.706 72.0713 351.689 66.5564 352.79 76.1539C350.308 73.7989 347.895 71.7481 345.564 69.4252C336.63 75.4749 329.332 69.1705 317.246 70.7192C315.943 70.9038 306.818 77.5392 301.641 72.7505C301.275 76.1697 302.078 79.0731 301.928 82.1697C296.814 83.4763 288.956 79.5272 285.502 79.1228C282.053 78.72 279.744 83.1615 278.706 83.2049C274.756 83.3179 275.677 77.4764 275.375 77.3796C256.968 71.7826 258.906 74.8946 247.792 83.6542C245.008 85.8637 226.111 79.4464 222.289 86.3642C222.117 83.5423 223.17 81.0588 223.473 78.3659C217.797 77.64 212.077 76.8946 206.379 76.1686C207.587 78.8789 209.038 81.5918 210.139 84.3182C198.508 81.9632 188.837 88.3494 179.321 88.1416C173.882 88.0125 174.545 82.0251 171.351 83.3319C170.725 83.5908 171.783 87.6363 169.929 87.9609C154.8 90.5905 148.171 86.3163 133.021 85.5097C125.922 85.1244 119.708 92.4778 109.522 87.6386C108.593 87.1856 98.6003 80.6562 92.4286 90.0118C90.4647 87.0595 88.7326 85.5087 87.265 83.0243C74.769 96.9144 78.2224 83.3015 61.3235 80.075C52.579 78.3983 23.1659 80.8322 13.6493 82.3162C7.9812 83.2204 8.08461 88.68 7.07324 88.8984C4.67129 89.3986 3.22372 88.8638 2 88.0924L4.90756 91C6.07676 89.1451 7.78955 87.8052 7.2657 84.4386C6.39454 78.8489 0.408423 71.7874 0.95693 66.0466C1.37939 61.649 7.95434 65.1156 5.66409 58.6211C5.16834 57.2759 -0.411386 61.1193 1.77727 54.2688C2.11605 53.1897 8.15141 42.2446 9.45815 40C12.9589 45.763 17.5261 62.4675 18.9457 68.7477C20.5282 75.7272 22.0097 83.1636 23.3957 91L2 69.6043C115.588 49.5142 313.2 49.4769 421.232 52.3593C431.957 52.6344 438.97 58.3778 445.962 58.8781C452.954 59.3782 447.042 54.1162 453.387 54.5518C459.732 55.0035 464.355 58.7166 470.29 59.0392C510.301 61.2331 550.614 63.5553 590.301 64.5716C600.596 64.8297 608.823 60.5529 618.19 60.5529C621.835 60.5555 621.948 66.0702 624.537 66.0218C652.441 65.5858 678.255 60.2788 706.008 60.924C717.531 61.199 729.983 65.8448 741.398 66.2806C750.806 66.6516 760.56 63.4751 769.02 63.4094C773.612 63.3611 776.034 67.5612 777.696 67.892C783.48 68.989 781.458 63.8587 784.415 63.8587C792.571 63.876 796.628 70.0701 804.267 69.5864C807.266 69.3929 806.88 65.4457 811.234 64.8304C816.758 64.0562 814.715 67.6976 818.66 67.8285C818.897 67.8446 818.124 65.0223 820.216 64.9085C833.683 64.1664 850.498 61.9414 863.49 62.135C890.359 62.5223 916.882 67.9599 941.916 69.0248C948.24 69.283 946.561 65.6036 948.569 65.4261C958.235 64.5883 961.688 68.9894 971.809 67.4086C973.493 67.1496 980.272 62.0555 986.746 63.346C990.241 64.0407 994.21 67.2183 997.188 67.9604C1000.16 68.7022 1000.64 64.0231 1004.22 64.0198C1010.74 64.0037 1008.84 67.2468 1018.17 66.6664C1021.92 66.4405 1034.46 62.0075 1044.13 62.345C1059.92 62.8935 1079.5 66.9436 1098.13 67.0082C1104.52 67.0404 1112.72 62.2322 1122.63 62.1838C1134.74 62.1196 1157.05 63.2129 1169.45 63.2776C1175.8 63.3099 1176.26 68.3464 1177.01 68.5561C1181.87 69.9571 1179.91 64.33 1183.16 64.5521C1187.63 64.8586 1191.8 69.0094 1195.85 69.2836C1198.44 69.4591 1198.85 65.3119 1199.41 65.2796C1200.28 65.2224 1201.14 65.1683 1202 65.117L1176.12 91C1175.06 73.3557 1175.22 57.3457 1174.96 40L1202 67.0426C1199.97 67.0737 1197.92 67.1106 1195.85 67.156C1085.2 69.5436 973.489 74.8674 863.055 72.4637C853.796 72.2702 853.448 67.0414 845.312 67.864C837.175 68.6706 829.315 79.9634 822.625 67.4929C822.409 70.0096 822.43 71.8038 822.214 74.0946C805.403 70.5463 788.589 74.2191 772.145 74.6708C759.974 75.0094 749.181 74.6081 737.938 74.3339C727.972 74.0749 728.832 69.69 720.204 75.413C677.321 71.8316 633.977 72.7036 591.46 66.7507C581.489 76.1237 571.932 70.2182 558.141 68.8308C556.438 68.6553 558.265 72.0753 553.216 71.785C546.874 71.4278 543.593 66.2028 532.915 66.4919C530.088 66.5726 509.147 72.3656 501.399 69.3972C493.651 66.4293 482.429 64.6873 474.379 61.8482C475.523 64.0903 476.971 66.2352 478.245 68.4451C474.23 68.8322 470.195 69.2054 466.181 69.5926C465.598 66.8984 465.014 64.202 464.453 61.4918C462.122 64.0567 459.79 66.5901 457.438 69.1873C452.367 55.3471 457.566 59.8613 446.281 63.3619C440.626 65.1042 436.137 62.6861 430.332 64.0895C428.24 64.6053 426.902 68.6807 424.596 69.2019C418.943 70.46 422.237 64.8508 418.745 64.8805C415.227 64.9289 410.177 71.0899 403.875 68.3474C410.454 57.3635 391.438 60.9466 390.532 69.4803C388.268 69.496 386.371 69.1414 383.87 69.3826C386.179 47.8295 374.325 63.1246 369.62 66.0768C364.918 69.0248 365.109 63.2338 364.008 63.4596C360.838 64.0891 363.147 66.4937 360.925 66.5749C346.206 67.0589 332.348 63.5234 317.823 63.2008C315.733 63.1549 317.587 66.4274 315.15 66.1061C312.712 65.7835 310.375 62.5257 306.77 62.7516C305.803 62.8088 305.5 65.6836 303.993 65.6862C272.419 65.5571 242.439 63.108 210.239 62.7369C207.325 62.7046 205.038 67.816 199.406 67.6394C193.774 67.462 185.228 62.8492 178.236 62.4928C176.38 62.396 175.877 66.6537 173.416 66.5407C165.044 66.1528 157.832 62.6862 149.136 62.1217C134.44 61.1707 119.054 63.7681 104.143 61.2525C101.317 60.7847 101.768 57.2337 97.6914 56.2328C90.6556 54.5066 93.3032 59.6847 91.8788 60.3784C87.2188 62.6192 85.7544 55.7371 81.2464 57.5073C80.5571 57.781 81.5403 61.8624 80.9219 61.9263C71.3395 62.6362 70.8364 53.0705 60.6497 58.2006C51.5908 52.7007 66.7219 50.8271 68.2756 47.9074C72.0705 40.8102 62.0387 32.4702 56.1256 29.7916C51.0335 27.4852 51.0709 31.9039 49.0437 31.9059C38.3183 31.9221 22.3463 32.7622 14.1876 30.6657C9.24535 29.4073 18.1539 27.5667 15.6288 26.1148C13.1261 24.6648 11.5059 27.9856 8.93823 24.3569C6.36997 20.7271 1.13077 10.0451 2.12355 4.94717ZM903.17 28.7271C886.724 46.1496 843.111 44.3296 819.695 42.668C800.271 41.2806 783.526 27.8565 787.54 47.3117C808.537 47.4405 825.521 45.4894 847.727 46.086C850.036 46.1506 863.809 47.9558 868.6 48.2785C871.297 48.4565 871.384 51.6702 875.052 51.638C875.851 51.6216 880.277 47.4234 881.895 47.5363C887.44 47.9082 903.931 54.3533 906.234 54.1673C912.619 53.6191 910.168 48.624 912.924 47.7169C922.183 44.7163 923.203 52.2184 932.376 49.7824C934.016 49.3469 939.455 42.8091 946.253 43.6641C949.016 44.0196 953.721 47.3948 955.836 47.2335C967.36 46.3621 980.224 41.8917 990.778 42.6338C999.429 43.2477 997.102 48.2944 1001.68 48.9719C1006.25 49.6311 1011.78 43.7782 1014.91 43.4395C1019.91 42.9085 1026 46.2321 1027.55 46.1837C1058.15 45.1995 1085.37 41.3453 1114.89 39.9579C1094.84 37.651 1074.82 35.5338 1054.9 33.1462C1043.59 38.3729 1049.22 33.4721 1041.77 31.8425C1035.88 30.5521 1034.46 39.4054 1026.71 38.4247C1026.72 38.4247 1026.73 38.4247 1026.73 38.4247C1022.74 37.9084 1014.08 31.7775 1005.58 34.3425C1005.28 34.4403 1004.52 39.0349 998.155 39.1962C983.848 39.5511 961.923 41.9081 945.824 40.9248C941.097 40.6344 942.06 35.8086 936.47 35.2117C932.393 34.78 927.669 39.2419 921.285 38.244C913.278 36.9695 909.437 29.2943 903.933 39.9579C903.48 36.1506 903.709 32.4376 903.17 28.7271ZM460.912 38.0048C459.788 37.5833 444.725 25.6804 449.192 38.3905C469.435 43.9078 491.322 41.1673 512.624 44.2647C505.35 31.6974 493.046 36.6506 478.111 37.5702C478.105 37.5702 478.098 37.5702 478.092 37.5702C477.387 37.613 480.334 34.3285 476.326 34.9236C474.384 35.214 466.934 40.2472 460.912 38.0048Z" fill="#FFCA05"/>
</svg>
