<svg width="302" height="49" viewBox="0 0 302 49" fill="none" xmlns="http://www.w3.org/2000/svg">
<path d="M8 7H296V42H8V7Z" fill="white"/>
<path d="M0.0118222 38.6756C-0.0841293 37.9056 0.434689 36.8189 0.462019 35.9106C0.581995 32.1059 0.941639 30.696 1.14561 27.2535C1.44859 22.1493 0.766691 7.00038 4.3711 7C4.37119 7 4.37128 7 4.37137 7C4.40671 7 4.44246 7.00147 4.47863 7.0044C5.1653 7.05751 5.91493 8.34597 6.69153 8.5372C7.46841 8.7281 12.4838 8.58494 12.7658 10.415C13.1373 13.0684 11.8513 19.4336 11.9083 20.8488C11.9476 21.8163 12.4035 23.0075 12.4845 24.2446C12.7454 28.2335 12.412 30.3208 13.6505 33.9145C12.9979 35.3521 12.3452 36.7896 11.6925 38.2271C11.8707 39.3312 11.6456 40.7704 11.4401 42L8 38.5599C8.85917 38.7036 9.61603 38.8377 10.0847 38.8182C11.0195 38.7792 11.5673 38.2631 12.5416 38.2391C13.6343 38.2093 15.3125 38.7664 17.3002 38.6825C20.5588 38.5475 21.1385 37.2011 23.0938 37.0301C25.1212 36.8532 28.2742 37.585 30.8612 37.1112C31.1857 36.9631 31.5102 36.815 31.8346 36.6669C31.6022 36.3319 31.3696 35.9969 31.1372 35.662C32.4402 35.506 33.0006 36.1925 34.1979 36.2049C35.6067 36.2199 36.3254 35.5691 37.2733 35.5721C38.0499 35.5752 39.1028 36.097 40.1097 36.0643C41.5778 36.0193 41.2567 35.2658 42.0467 35.1249C42.3618 35.0701 48.1892 34.6543 48.5179 34.6483C51.0182 34.6186 51.2359 35.6499 53.2297 35.7401C58.7593 35.9861 64.4358 35.1527 69.5507 34.8378C71.8347 34.6969 74.2178 34.7568 76.4951 34.9217C72.9081 37.5612 80.8464 39.6154 77.8776 35.4852C80.4114 36.0728 82.2079 34.9578 84.6101 35.1463C86.1636 35.2693 87.2389 35.842 89.4573 35.827C93.3937 35.7967 97.6994 34.1689 98.8315 37.1112C103.452 36.5925 107.455 37.6598 109.12 35.0624C110.312 34.9037 113.365 36.4508 114.702 36.661C115.965 36.859 125.663 37.5576 127.25 37.5965C128.836 37.6355 131.613 37.6779 132.95 37.4501C134.628 37.1681 135.801 34.4744 138.79 37.6239C142.265 37.369 143.503 37.4592 146.735 37.8251C147.32 37.8912 147.386 38.3588 147.728 38.3592C148.432 38.3592 149.63 38.0137 150.887 37.9715C152.954 37.9026 154.134 38.8864 153.904 37.3837C155.266 37.1317 156.629 36.8797 157.992 36.6278C158.47 36.9178 158.948 37.2079 159.426 37.4979C160.155 37.1818 160.883 36.8658 161.612 36.5497C160.756 38.7243 165.884 37.441 164.219 36.1932C166.861 36.6431 169.503 37.093 172.144 37.5428C171.776 40.0143 177.945 37.8281 177.425 36.4842C177.728 36.4862 178.03 36.4881 178.332 36.4901C180.979 37.147 183.409 36.6097 186.634 37.0506C189.86 37.4916 189.557 37.7322 190.538 38.869C191.297 38.8039 192.056 38.7388 192.815 38.6737C196.798 35.5572 196.094 40.953 202.914 38.5624C205.093 40.5211 210.464 39.4922 214.025 38.8983C214.44 38.8293 214.447 38.4491 214.999 38.3319C216.348 38.05 219.791 38.5387 219.673 37.3124C220.865 37.6672 222.057 38.022 223.249 38.3768C224.223 38.1538 225.197 37.9309 226.172 37.7079C226.167 37.3251 226.162 36.9422 226.157 36.5594C228.119 37.8641 231.201 37.3627 232.722 37.6747C233.024 37.7379 233.09 38.266 234.03 38.41C235.13 38.581 237.178 38.4247 238.488 38.5897C238.998 38.0048 239.507 37.4198 240.016 36.8348C242.359 36.5175 243.182 38.0615 244.558 38.1815C244.806 38.2024 249.324 38.0914 249.568 38.0585C251.561 37.7972 250.996 36.4818 256.761 36.7635C257.788 36.8145 258.618 37.2697 259.546 37.288C261.185 37.3209 266.124 36.2887 266.512 35.3348C268.5 36.5286 273.819 36.0407 275.386 36.3856C275.859 36.4917 275.966 37.2521 277.419 37.4139C278.598 37.5459 281.632 36.937 283.127 37.0389C284.713 37.1499 285.279 37.7887 285.99 37.8339C286.662 37.8758 287.281 37.3602 288.196 37.3631C291.052 37.3811 293.639 38.2112 295.897 38.2264C295.931 38.2267 295.966 38.2268 296 38.2267L292.227 42C292.218 38.7773 290.716 35.9252 290.046 33.2221C290.145 32.5441 290.472 31.8778 290.475 31.1669C290.517 23.4762 290.738 14.9244 291.011 7L296 11.9889C294.862 11.9497 293.738 11.9093 292.631 11.8683C288.536 11.7181 278.353 9.64572 281.071 13.1037C279.648 13.7092 269.3 12.3151 267.332 12.2941C265.365 12.2733 263.805 12.8933 262.258 12.9025C257.591 12.9295 254.304 12.4827 248.623 13.0226C247.156 13.1638 245.584 13.8983 244.715 13.8898C243.668 13.8778 242.542 13.1673 241.186 13.1222C237.954 13.0202 231.931 13.2539 228.83 13.131C228.264 13.107 228.065 12.4832 227.255 12.2882C224.102 11.5264 220.568 11.5925 221.193 13.5841C217.152 12.4534 213.413 13.4848 209.668 13.548C201.748 13.677 187.323 13.2121 180.424 14.049C176.074 14.5769 176.185 15.4702 169.781 14.6994C168.359 14.5284 166.944 14.2978 165.219 14.0939C161.177 13.614 157.469 11.9638 154.389 13.9523C149.9 13.4366 146.324 13.8023 142.994 12.1017C142.601 12.5096 142.208 12.9175 141.816 13.3253C141.265 13.3354 140.715 13.3455 140.165 13.3556C139.993 12.9666 139.821 12.5776 139.65 12.1886C135.707 12.0839 130.705 13.6827 127.368 13.671C121.772 13.653 107.36 13.0319 102.054 12.507C99.2374 12.2282 99.0858 13.0614 97.4731 11.3488C96.843 11.4679 96.213 11.587 95.583 11.7062C95.1887 12.0812 94.7944 12.4562 94.4001 12.8312C90.7862 12.8462 86.4998 12.2637 83.0569 12.2697C76.7834 12.2817 67.363 13.3138 61.0631 12.6359C59.4834 12.4649 57.5088 11.6916 55.962 11.7003C53.7106 11.7123 53.1634 12.9957 50.3064 13.0197C45.3824 13.0587 36.2122 11.5678 31.558 11.6818C30.1757 11.7148 29.5307 12.1923 28.5762 12.2433C24.5738 12.4623 21.2878 12.4234 17.4499 13.1613C13.329 11.9315 13.685 10.3441 12.4079 8.74231C11.4401 7.5334 8.47235 4.73175 8.05107 3.67297C7.75514 2.92911 8.86004 1.97223 8.44536 1.15343C13.3825 0.499546 15.4567 1.21939 19.4657 2.37121C26.8693 2.32531 34.2729 2.27941 41.6764 2.23351C42.35 2.68045 43.0236 3.12739 43.6972 3.57433C43.6972 3.57531 43.6972 3.57629 43.6972 3.57726C46.5404 4.09306 47.7454 2.94205 49.2788 2.68078C63.9588 0.179153 92.8523 2.1371 109.013 2.41906C112.496 2.47903 123.825 1.87677 126.214 2.60265C126.833 2.7917 127.005 3.48086 127.663 3.51086C133.544 3.10102 139.424 2.69119 145.305 2.28136C157.398 3.35219 169.9 2.46782 182.085 2.30285C215.052 1.85592 247.69 1.31268 280.117 1.47765C284.945 1.50307 290.773 1.2025 296 1.2153L301.638 1.07566L301.785 7C301.781 8.5583 301.749 10.0632 301.673 11.4722C301.535 14.0328 300.428 15.0996 301.253 18.4634C300.955 18.4987 300.656 18.5341 300.358 18.5694C300.718 21.5049 301.397 23.3808 301.466 26.672C301.523 29.4435 301.567 36.7761 301.453 39.2251C301.396 40.4954 300.839 40.0222 300.842 41.2064C300.843 41.4419 300.854 41.7084 300.873 42L300.991 46.7496L296 46.8732C293.781 47.0192 290.109 47.621 287.636 47.621C285.102 47.621 280.829 46.9792 278.881 47.0722C271.863 47.4021 264.22 48.3535 256.741 48.0985C254.676 48.0264 252.019 47.304 251.372 47.3241C250.108 47.3661 249.732 48.0679 248.883 48.1581C244.571 48.614 237.85 47.78 233.624 47.747C219.852 47.639 205.263 47.9453 191.551 47.8163C182.888 47.7353 168.491 47.8588 160.493 47.3309C158.768 47.217 159.228 46.4481 157.78 46.4481C156.174 46.4483 155.305 46.9677 154.554 47.0097C149.36 47.3036 137.893 47.8286 132.989 47.2977C132.055 47.1958 131.377 46.5934 130.818 46.5956C130.535 46.5956 129.895 47.0067 129.007 47.0487C121.16 47.4207 115.439 47.1809 107.75 47.0399C93.0241 46.773 75.9616 47.5378 60.4919 47.1239C57.1215 47.0339 54.8101 45.8424 54.3361 45.8544C53.2961 45.8784 52.6303 46.6799 50.5239 46.8778C43.52 47.5285 34.0876 46.6733 27.426 47.0751C24.1348 47.273 19.6124 48.2904 16.3736 48.5155C14.3799 48.6542 10.2937 48.4489 8 48.552L1.61416 48.7102L1.44796 42C1.4173 41.3177 1.35935 40.794 1.25694 40.5312C0.987083 39.8336 0.120329 39.5109 0.0118222 38.6756ZM91.8206 36.496C91.3598 37.8818 96.2028 36.7301 94.3859 35.9862C93.9767 35.8187 91.9397 36.1362 91.8206 36.496ZM292.902 19.3974C292.506 19.4417 292.111 19.4861 291.715 19.5305C291.879 20.1662 292.044 20.802 292.209 21.4378C292.447 21.0805 292.685 20.7232 292.923 20.3659C292.916 20.043 292.909 19.7202 292.902 19.3974Z" fill="white"/>
</svg>
