<svg width="357" height="139" viewBox="0 0 357 139" fill="none" xmlns="http://www.w3.org/2000/svg">
<path d="M27 21H337V117H27V21Z" fill="#9DDBF1"/>
<path d="M0.0399017 60.8151C-0.283937 59.8473 1.46708 58.4813 1.55931 57.3397C1.96423 52.5572 3.17803 50.7851 3.86645 46.458C4.88899 40.0421 2.58758 21.0005 14.7524 21C14.7528 21 14.7531 21 14.7534 21C14.8726 21 14.9933 21.0018 15.1154 21.0055C17.4329 21.0723 19.9629 22.6919 22.5839 22.9322C25.2059 23.1722 42.1328 22.9922 43.0844 25.2925C44.3385 28.6278 39.9983 36.6286 40.1906 38.4075C40.3232 39.6236 41.862 41.1209 42.1352 42.6759C43.0158 47.6898 41.8905 50.3134 46.0705 54.8307C43.8678 56.6376 41.665 58.4445 39.4622 60.2514C40.4836 62.6089 37.5785 66.1819 37.7385 67.6142C37.8701 68.7892 39.612 69.4778 39.6929 70.7025C39.7936 72.076 37.9134 74.1854 38.1966 76.6838C38.6522 80.7797 43.1962 81.5086 43.7733 83.9661C44.3704 86.5146 41.9007 90.4778 43.4997 93.7296C43.9996 94.1374 44.4995 94.5453 44.9994 94.9531C46.1299 94.6609 47.2603 94.3687 48.3908 94.0765C48.9171 95.7143 46.6003 96.4187 46.5583 97.9236C46.5077 99.6944 48.7042 100.598 48.6941 101.789C48.6838 102.765 46.9226 104.089 47.0329 105.355C47.1848 107.2 49.7278 106.796 50.2036 107.789C50.3884 108.186 51.7918 115.51 51.812 115.923C51.8248 116.326 51.779 116.681 51.6886 117L27 92.3114C29.1729 92.9268 29.6607 95.6074 31.8459 95.8728C38.7966 96.7029 45.9316 93.8904 52.361 92.8274C55.2318 92.3519 58.2273 92.5542 61.0898 93.1109C56.5811 102.019 66.5592 108.952 62.8276 95.0126C66.0125 96.9957 68.2707 93.2327 71.29 93.8689C73.2428 94.284 74.5944 96.2168 77.3829 96.1662C82.3307 96.064 87.7428 90.57 89.1659 100.5C94.9742 98.7497 100.005 102.352 102.098 93.5855C103.596 93.0499 107.434 98.2715 109.114 98.9809C110.703 99.649 122.893 102.007 124.887 102.138C126.881 102.27 130.372 102.413 132.051 101.644C134.161 100.692 135.636 91.601 139.393 102.231C143.76 101.37 145.317 101.675 149.379 102.91C150.115 103.133 150.198 104.711 150.627 104.712C151.512 104.712 153.018 103.546 154.598 103.404C157.197 103.171 158.679 106.492 158.39 101.42C160.103 100.569 161.816 99.7192 163.529 98.8688C164.13 99.8477 164.73 100.827 165.331 101.805C166.247 100.739 167.163 99.6719 168.079 98.6051C167.003 105.944 173.449 101.613 171.356 97.4021C174.677 98.9204 177.997 100.439 181.318 101.957C180.854 110.298 188.609 102.92 187.956 98.3843C188.336 98.3909 188.716 98.3975 189.096 98.4041C192.422 100.621 195.477 98.8078 199.531 100.296C203.585 101.784 203.205 102.596 204.438 106.433C205.392 106.213 206.346 105.993 207.3 105.774C212.306 95.2555 211.421 113.466 219.994 105.398C222.732 112.009 229.484 108.536 233.96 106.532C234.481 106.299 234.49 105.016 235.184 104.62C236.88 103.669 241.208 105.318 241.06 101.179C242.558 102.377 244.056 103.574 245.555 104.772C246.779 104.019 248.004 103.267 249.228 102.514C249.222 101.222 249.216 99.9301 249.21 98.6381C251.675 103.041 255.55 101.349 257.461 102.402C257.842 102.615 257.924 104.398 259.106 104.884C260.488 105.461 263.063 104.933 264.71 105.49C265.35 103.516 265.99 101.542 266.63 99.5675C269.575 98.4967 270.61 103.708 272.339 104.113C272.65 104.183 278.33 103.809 278.636 103.697C281.142 102.815 280.432 98.3761 287.678 99.3269C288.968 99.499 290.012 101.035 291.178 101.097C293.239 101.208 299.447 97.7243 299.935 94.505C302.434 98.5342 309.12 96.8872 311.089 98.0514C311.684 98.4093 311.818 100.976 313.645 101.522C315.126 101.967 318.94 99.9125 320.819 100.256C322.812 100.631 323.524 102.787 324.418 102.939C325.262 103.081 326.04 101.341 327.19 101.351C330.781 101.411 334.032 104.213 336.87 104.264C336.913 104.265 336.957 104.265 337 104.265L324.265 117C324.237 112.949 319.168 109.364 316.904 105.966C317.239 105.114 318.345 104.277 318.355 103.383C318.517 92.3287 319.466 79.8586 320.569 68.7712C321.076 63.6241 328.071 50.8243 316.4 54.2407C314.356 52.4519 319.062 39.4458 319.132 36.9719C319.203 34.4986 317.11 32.538 317.079 30.594C317.025 27.1156 317.533 24.2473 317.576 21L337 40.4239C334.77 40.3945 332.362 40.5845 329.455 41.3263C327.611 41.8027 325.635 44.2819 324.543 44.253C323.227 44.2125 321.811 41.8148 320.107 41.6624C316.044 41.3183 308.473 42.107 304.576 41.6921C303.864 41.6111 303.614 39.5058 302.597 38.8477C298.633 36.2766 294.191 36.4996 294.977 43.2214C289.897 39.4052 285.197 42.8862 280.489 43.0995C270.535 43.5348 252.403 41.9658 243.731 44.7903C238.263 46.5721 238.403 49.5868 230.353 46.9853C228.566 46.4084 226.787 45.6302 224.619 44.9419C219.539 43.3221 214.878 37.7527 211.005 44.464C205.363 42.7234 200.869 43.9577 196.682 38.2182C196.189 39.5948 195.695 40.9714 195.202 42.348C194.51 42.3821 193.818 42.4161 193.126 42.4502C192.911 41.1373 192.695 39.8244 192.479 38.5116C187.523 38.158 181.236 43.5541 177.041 43.5147C170.008 43.454 151.892 41.3576 145.223 39.586C141.682 38.6452 141.492 41.4571 139.465 35.6771C138.673 36.0792 137.881 36.4813 137.089 36.8834C136.593 38.149 136.098 39.4146 135.602 40.6803C131.059 40.7309 125.672 38.765 121.344 38.7851C113.458 38.8256 101.617 42.3089 93.6985 40.0211C91.7129 39.4441 89.2309 36.8341 87.2866 36.8636C84.4567 36.9041 83.7689 41.2354 80.1777 41.3164C73.9883 41.448 62.4617 36.4163 56.6116 36.801C54.8741 36.9124 54.0634 38.524 52.8636 38.6961C47.8327 39.4351 43.7023 39.3039 38.8782 41.7943C33.6984 37.6437 34.1459 32.2862 32.5406 26.8803C31.3241 22.8002 27.5937 13.3447 27.0642 9.77126C26.6922 7.26074 28.081 4.03126 27.5598 1.26782C33.7656 -0.939032 36.3728 1.49043 41.412 5.37782C50.718 5.22291 60.0241 5.068 69.3301 4.9131C70.1768 6.42152 71.0234 7.92995 71.8701 9.43837C71.8701 9.44167 71.8701 9.44497 71.8701 9.44826C75.4439 11.1891 76.9586 7.30441 78.886 6.42262C97.3383 -2.02036 133.656 4.58771 153.97 5.53932C158.348 5.74171 172.588 3.70911 175.591 6.15895C176.369 6.79697 176.585 9.12291 177.413 9.22414C184.804 7.84096 192.196 6.45778 199.588 5.07459C214.788 8.68864 230.502 5.70389 245.819 5.1471C276.418 4.03327 306.792 2.74219 337 2.36717L354.317 1.21554L355.633 21C355.766 31.7005 355.784 42.3803 355.638 53.0419C355.527 60.9193 357.269 70.9157 356.146 78.6276C355.68 81.8461 351.944 83.1872 354.728 87.4153C353.722 87.4597 352.716 87.5041 351.709 87.5485C352.924 91.2384 355.214 93.5963 355.447 97.7332C355.639 101.217 355.789 110.434 355.404 113.512C355.212 115.109 353.331 114.514 353.341 116.003C353.344 116.298 353.382 116.633 353.447 117L354.464 132.286L337 133.447C334.21 133.94 329.595 135.971 326.487 135.971C323.301 135.971 317.931 133.805 315.482 134.119C306.661 135.232 297.053 138.443 287.653 137.583C285.057 137.339 281.717 134.901 280.904 134.969C279.315 135.111 278.842 137.479 277.775 137.784C272.356 139.322 263.908 136.508 258.595 136.396C241.285 136.032 222.947 137.065 205.711 136.63C194.822 136.357 176.726 136.774 166.673 134.992C164.505 134.607 165.083 132.012 163.262 132.012C161.244 132.013 160.151 133.766 159.208 133.908C152.678 134.9 138.265 136.672 132.101 134.88C130.927 134.536 130.075 132.503 129.372 132.51C129.016 132.51 128.212 133.898 127.095 134.039C117.232 135.295 110.041 134.486 100.376 134.01C81.8662 133.109 60.4191 135.69 40.9744 134.293C36.7378 133.99 33.8325 129.968 33.2368 130.009C31.9295 130.09 31.0926 132.795 28.4449 133.463C27.9716 133.581 27.4898 133.684 27 133.774L11.4103 134.811L10.2259 117C8.63925 108.377 11.1547 97.335 9.87159 89.4116C9.20351 85.2748 5.76991 79.5901 5.01013 75.5191C4.40279 72.2676 5.74969 64.5887 4.24218 63.1476C3.33141 62.2708 0.406113 61.8651 0.0399017 60.8151ZM80.3534 98.4239C79.7742 103.101 85.8617 99.214 83.578 96.7034C83.0636 96.1381 80.5031 97.2098 80.3534 98.4239ZM326.545 88.5893C325.209 88.645 323.873 88.7008 322.537 88.7565C323.093 89.5557 323.649 90.3549 324.205 91.154C325.008 90.7049 325.811 90.2558 326.614 89.8066C326.591 89.4008 326.568 88.9951 326.545 88.5893Z" fill="#9DDBF1"/>
</svg>
