<svg width="1313" height="90" viewBox="0 0 1313 90" fill="none" xmlns="http://www.w3.org/2000/svg">
<path d="M1 40H1286V57H1V40Z" fill="#FFFDFA"/>
<path d="M1.12858 4.94717C18.3782 0.688572 35.6051 -1.13143 53.3489 0.723419C57.392 1.14287 57.011 4.43433 58.6732 4.96671C61.7281 5.94993 66.8549 2.39827 67.5736 2.39827C72.034 2.35301 70.291 8.11406 70.8914 8.33594C77.5842 10.6749 75.6578 4.11285 82.0566 3.48229C90.3894 2.65958 101.082 3.83339 111.122 4.15614C114.648 4.28517 113.078 8.67099 120.688 8.30176C126.079 8.04364 142.615 3.04489 150.23 8.38477C150.275 10.4011 149.313 12.6273 148.909 14.7082C159.824 6.30431 163.731 6.67302 179.206 8.72169C181.654 9.04435 183.972 5.5917 188.285 6.86617C192.596 8.1417 192.778 13.4641 201.447 13.3996C204.522 13.3639 206.388 9.61051 211.102 9.44925C224.512 8.9816 250.052 13.6435 261.058 13.8048C282.732 14.1273 294.526 7.72142 313.775 9.94732C315.257 10.1086 312.001 14.2221 314.718 14.3029C317.459 14.3836 320.313 8.93377 320.986 8.8047C328.263 7.40195 343.64 14.7028 347.688 13.8195C357.526 11.6577 347.831 9.25612 361.465 8.22363C374.448 7.24112 392.373 14.3366 405.242 15.7238C420.155 17.336 424.964 7.02938 436.195 17.7893C475.636 17.1602 515.235 16.7753 554.721 16.2268C554.609 18.3718 554.478 20.5176 554.344 22.6625C557.466 21.1783 560.589 19.692 563.711 18.2239C563.239 19.8206 562.792 21.4189 562.32 22.9994C576.985 16.8384 590.055 13.6601 607.19 15.3527C607.525 15.3848 606.644 19.6616 606.922 19.7718C610.785 20.5784 615.102 17.2884 618.494 18.0628C626.693 19.918 640.619 29.2436 634.487 17.8382C653.601 20.1931 676.061 16.337 694.276 18.5462C702.159 19.4978 704.521 26.2571 708.293 26.647C712.062 27.0337 710.143 21.2255 711.481 21.0023C719.522 19.7118 732.755 19.9514 734.149 26.4517C735.766 23.8552 737.477 21.2271 739.116 18.6146C738.155 25.8218 763.003 22.8428 769.523 23.019C770.713 23.0512 770.879 26.2105 771.777 26.1782C781.791 25.7736 784.239 20.8217 792.817 19.1761C795.826 18.5953 791.159 24.1629 798.886 21.7592C799.559 21.5481 799.202 16.5461 808.432 16.5784C823.167 16.6266 851.354 14.6428 868.897 17.1106C870.334 17.3041 865.958 22.7567 872.533 21.4857C874.914 21.034 873.773 17.1624 879.546 17.1301C901.918 16.9689 925.772 21.4202 948.593 17.7259C947.762 22.0976 939.633 27.0016 951.851 24.2592C953.804 23.8065 952.346 19.9023 953.222 19.7572C960.319 18.629 966.472 21.4178 974.152 19.9183C976.421 19.4666 976.984 16.401 979.814 15.675C983.992 14.5947 985.84 18.9658 990.691 17.1106C998.279 14.1908 999.451 10.0472 1008.86 18.1751C1062.18 17.6588 1115.26 15.3704 1168.4 18.9515C1183.76 16.6285 1197.94 14.033 1213.96 13.1456C1218.67 12.8875 1219.57 18.4359 1227.1 16.5979C1228.78 16.1946 1240.8 10.2396 1242.55 21.4515C1245.9 20.4843 1248.01 20.4516 1250.89 19.8548C1248.71 18.2093 1246.46 16.5456 1244.37 14.884C1256.5 16.6746 1266.41 12.722 1277.14 10.8507C1285.05 9.48025 1279.43 14.2883 1284.29 13.8048C1284.89 13.7461 1285.46 13.6777 1286 13.6144L1311.55 12.8294L1312.39 40C1312.83 43.7514 1313.02 46.1042 1307.99 51.4072C1310.73 53.3744 1311.55 55.0691 1311.55 57L1312.31 81.7375L1286 82.5456C1283.26 82.5445 1280.04 80.8969 1274.88 80.7927C1273.94 80.7767 1268.49 83.3531 1263.93 82.8387C1260.65 82.4678 1259.68 78.3246 1254.47 78.9665C1253.62 79.0633 1242.61 84.1969 1239.1 84.6649C1233.65 85.407 1224.97 80.0955 1223.92 80.031C1208.58 79.0963 1202.66 84.3399 1191.77 75.7096C1189.57 80.8385 1180.48 83.8404 1173.14 83.3416C1163.86 82.7125 1145.26 72.2253 1142.72 83.3075C1131.98 78.3716 1133.15 81.4179 1120.42 81.5154C1108.83 81.6122 1078.15 77.373 1068.76 77.985C1059.37 78.582 1063.94 84.7455 1060.21 85.5683C1054.11 86.9361 1057.41 82.3884 1053.23 82.4529C1041.42 82.6466 1031.15 83.5157 1019.87 85.4999C1019.27 82.3069 1018.61 79.0979 1017.99 75.9049C1017.4 76.969 1016.82 78.0343 1016.24 79.0984C1013.81 79.0661 1011.09 79.1316 1008.85 79.0349C1027.8 93.0516 990.54 77.9981 979.354 77.6432C969.92 77.3529 954.217 84.0006 943.862 85.4364C941.349 85.7896 943.076 82.3394 942.56 82.4188C936.496 83.4029 935.575 85.7591 927.422 85.4364C923.11 85.2588 918.708 80.9381 914.508 80.8562C883.669 80.2755 853.906 84.6168 823.269 85.0849C818.059 85.1655 813.563 79.891 809.184 79.7771C802.918 79.6158 798.964 83.9344 793.081 84.0008C787.219 84.0654 778.77 78.9043 774.794 79.6941C770.818 80.4684 777.621 85.4698 770.344 84.0985C767.001 83.4683 772.905 79.7439 768.774 79.6306C755.882 79.2757 737.688 83.8882 723.964 79.4206C724.571 80.5334 725.399 81.535 726.14 82.5994C711.518 82.1638 698.599 79.4855 683.505 79.0984C678.227 78.9544 668.707 82.2242 663.519 82.2088C658.332 82.1927 655.971 78.6449 651.818 78.5466C650.11 78.4982 650.778 81.6776 649.632 81.6131C635.305 80.7735 627.443 75.1138 612.441 75.7584C557.477 78.1138 500.8 80.1477 444.983 82.2772C442.738 82.3614 441.228 86.5034 437.95 87.1162C432.901 88.0647 432.653 84.4033 431.98 84.2743C427.579 83.4685 429.374 86.8574 423.467 86.8574C410.461 86.8573 389.482 83.855 376.521 84.1131C346.647 84.7101 321.536 87.938 292.246 89.5674C290.134 89.6965 291.566 84.7929 287.905 84.7284C262.1 84.2128 256.638 88.9077 224.519 87.5849C192.398 86.262 131.772 83.2916 94.1721 82.6141C94.1721 82.6027 94.1721 82.5913 94.1721 82.5799C82.336 91.6455 67.0219 89.3907 54.3091 82.536C127.625 60.1763 197.772 70.127 276.074 69.2397C358.373 68.3199 446.107 52.0736 529.507 54.2832C537.346 54.4929 540.495 59.6562 547.099 58.5753C548.215 58.3925 545.325 54.4134 548.758 54.0098C595.927 48.5893 646.219 57.6586 692.535 55.1426C705.023 54.465 706.982 50.0282 717.965 48.8827C716.034 50.9792 714.771 53.1715 713.087 55.2842C763.222 61.834 813.429 58.9141 864.215 59.8498C866.505 59.8992 866.799 64.2394 869.202 64.4007C874.007 64.7387 878.611 59.9636 882.811 59.8009C888.291 59.5912 889.24 63.0445 894.294 62.8186C896.76 62.703 896.023 59.3844 901.386 59.9474C901.835 59.9958 902.129 63.4776 905.697 63.0286C915.467 61.7865 935.436 58.8657 943.524 57.9942C953.854 56.8813 962.144 62.1262 966.053 62.467C976.608 63.3864 976.389 58.0156 985.324 58.0138C1048.94 57.9815 1109.75 64.0926 1174.86 64.0442C1178.96 64.0418 1194.09 58.0622 1201.66 58.3019C1204.19 58.3986 1217.46 59.9781 1219.45 60.1086C1227.51 60.6087 1234.48 64.2235 1238.93 64.9817C1247.55 66.4646 1257.19 60.8196 1261.88 60.255C1268.9 59.4039 1280.56 59.8154 1286 60.0461L1289.14 59.9498L1289.05 57C1289.09 56.05 1289.12 55.289 1289.14 54.7747C1289.5 46.4188 1296.48 49.1796 1294.85 43.1823C1294.47 41.7837 1291.05 42.6453 1289.63 40L1289.51 36.2641L1286 36.3721C1285.29 36.7516 1284.34 36.9891 1283.02 36.9891C1277.79 36.9708 1275.68 32.9393 1272.11 32.2136C1268.54 31.4921 1261.98 37.7265 1259.76 37.5702C1248.12 36.699 1242.98 32.6137 1230.31 32.404C1219.79 32.2433 1171.16 35.1013 1167.12 36.5692C1149.01 43.1286 1179.17 40.1858 1180.87 40.4072C1190.05 41.6816 1188.71 44.1984 1197.87 39.3915C1206.07 54.217 1234.65 31.1335 1241.97 48.7179C1249.54 37.0057 1255.9 42.9103 1263.87 45.2657C1274.89 48.521 1266.5 41.6958 1274.54 41.6474C1276.68 41.6389 1281.58 44.0708 1286 45.4155L1280.58 40C1279.94 42.1127 1279.55 44.1157 1279.79 45.6557C1280.46 49.9367 1283.82 51.9892 1284.66 57L1286 55.6584C1285.44 55.7517 1284.84 55.8133 1284.2 55.836C1272.82 56.2547 1263.65 54.3507 1254.08 49.4637C1252.33 51.6249 1250.7 53.7871 1248.97 55.9483C1242.36 53.6252 1235.73 51.3165 1229.13 49.0096C1230.19 50.8971 1231.24 52.801 1232.3 54.6885C1230.37 54.9627 1228.43 55.2214 1226.5 55.4795C1220.08 52.6405 1213.94 50.0119 1207.34 47.076C1189.39 57.9942 1194.6 48.5444 1184.63 47.1248C1174.66 45.7067 1168.89 52.0274 1161.19 52.0615C1150.81 52.1099 1146.04 52.8988 1135.58 52.4472C1129.51 52.1891 1119.23 46.09 1127.67 55.753C1108.74 56.5273 1082.81 59.2239 1065.87 55.3037C1060.87 54.1599 1067.54 51.1165 1066.69 50.7382C1062.44 48.9479 1058.87 53.8817 1054.49 53.1748C1047.21 51.9973 1033.04 48.1559 1027.31 47.2517C1019.07 45.945 1006.11 52.3358 1004.78 52.8037C997.375 55.3997 995.392 50.0937 993.012 50.4598C979.469 52.5892 976.479 54.8176 972.212 43.6237C968.706 48.4635 954.017 56.6072 950.467 48.4627C950.376 55.818 938.182 54.578 930.68 56.417C929.287 54.2875 927.871 52.1709 926.478 50.0253C910.823 63.1889 879.647 53.6269 859.05 52.0615C858.533 52.0292 857.61 57.5421 854.51 56.2999C854.314 56.198 854.633 53.7206 852.553 53.3994C845.702 52.3664 819.562 46.178 816.554 46.1238C805.481 45.9141 803.545 50.0287 796.807 50.4159C787.935 50.932 786.653 47.2188 778.211 47.7498C774.259 47.9917 770.662 52.8792 764.443 52.1884C760.761 51.7853 760.397 47.947 757.48 47.6375C747.103 46.5244 739.481 48.9466 730.272 43.946C727.869 56.1556 723.468 47.1562 718.908 46.2361C700.4 42.4774 677.333 47.6368 661.453 46.5242C611.904 43.0235 567.967 35.4935 519.563 33.7992C511.702 33.525 509.807 39.6553 501.564 39.2681C497.859 39.0887 494.038 34.6499 487.975 34.5854C483.102 34.5217 476.12 36.7782 470.035 36.7632C468.418 36.7632 468.274 32.601 465.893 32.5687C447.835 32.3273 430.201 35.2824 411.964 37.3149C405.204 38.0713 401.024 32.5564 402.169 42.1539C399.587 39.7989 397.075 37.7481 394.65 35.4252C385.35 41.4749 377.756 35.1705 365.177 36.7192C363.821 36.9038 354.324 43.5392 348.936 38.7505C348.555 42.1697 349.391 45.0731 349.234 48.1697C343.911 49.4763 335.733 45.5272 332.138 45.1228C328.549 44.72 326.146 49.1615 325.066 49.2049C320.955 49.3179 321.913 43.4764 321.599 43.3796C302.442 37.7826 304.459 40.8946 292.891 49.6542C289.993 51.8637 270.327 45.4464 266.349 52.3642C266.17 49.5423 267.266 47.0588 267.581 44.3659C261.673 43.64 255.72 42.8946 249.79 42.1686C251.048 44.8789 252.558 47.5918 253.704 50.3182C241.598 47.9632 231.533 54.3494 221.629 54.1416C215.968 54.0125 216.658 48.0251 213.334 49.3319C212.683 49.5908 213.783 53.6363 211.854 53.9609C196.108 56.5905 189.21 52.3163 173.441 51.5097C166.052 51.1244 159.586 58.4778 148.985 53.6386C148.017 53.1856 137.618 46.6562 131.194 56.0118C129.15 53.0595 127.348 51.5087 125.82 49.0243C112.815 62.9144 116.409 49.3015 98.821 46.075C89.72 44.3983 59.1078 46.8322 49.2034 48.3162C43.304 49.2204 43.4119 54.68 42.3591 54.8984C36.0706 56.1566 36.0656 50.8649 30.2502 51.7343C24.4326 52.6055 17.0833 58.5916 11.1084 58.0431C6.53162 57.6206 10.1393 51.0457 3.38025 53.3359C2.15172 53.7709 5.08142 58.1207 1 57.701L0.321214 57.7218L0.299039 57C0.357631 56.4303 0.509165 55.7239 0.777265 54.8505C1.11605 53.7274 7.15141 42.3361 8.45815 40C10.43 43.3784 12.7402 50.3697 14.6356 57L1 43.3644C6.14118 41.8947 11.0648 40.6743 13.9197 40.0543C126.477 15.5332 353.21 15.278 473.402 18.3593C484.564 18.6344 491.863 24.3778 499.14 24.8781C506.418 25.3782 500.264 20.1162 506.868 20.5518C513.472 21.0035 518.284 24.7166 524.46 25.0392C566.102 27.2331 608.059 29.5553 649.364 30.5716C660.078 30.8297 668.641 26.5529 678.39 26.5529C682.183 26.5555 682.301 32.0702 684.995 32.0218C714.037 31.5858 740.903 26.2788 769.787 26.924C781.781 27.199 794.74 31.8448 806.621 32.2806C816.412 32.6516 826.564 29.4751 835.368 29.4094C840.148 29.3611 842.668 33.5612 844.398 33.892C850.418 34.989 848.314 29.8587 851.391 29.8587C859.88 29.876 864.102 36.0701 872.053 35.5864C875.174 35.3929 874.772 31.4457 879.304 30.8304C885.053 30.0562 882.926 33.6976 887.032 33.8285C887.279 33.8446 886.474 31.0223 888.651 30.9085C902.668 30.1664 920.168 27.9414 933.69 28.135C961.654 28.5223 989.258 33.9599 1015.31 35.0248C1021.89 35.283 1020.15 31.6036 1022.24 31.4261C1032.3 30.5883 1035.89 34.9894 1046.42 33.4086C1048.18 33.1496 1055.23 28.0555 1061.97 29.346C1065.61 30.0407 1069.74 33.2183 1072.84 33.9604C1075.94 34.7022 1076.43 30.0231 1080.16 30.0198C1086.94 30.0037 1084.97 33.2468 1094.67 32.6664C1098.58 32.4405 1111.63 28.0075 1121.69 28.345C1138.13 28.8935 1158.51 32.9436 1177.89 33.0082C1184.54 33.0404 1193.08 28.2322 1203.39 28.1838C1215.99 28.1196 1239.21 29.2129 1252.13 29.2776C1258.73 29.3099 1259.21 34.3464 1259.99 34.5561C1265.04 35.9571 1263 30.33 1266.39 30.5521C1271.04 30.8586 1275.38 35.0094 1279.6 35.2836C1282.3 35.4591 1282.72 31.3119 1283.31 31.2796C1284.21 31.2224 1285.11 31.1683 1286 31.117L1260.12 57C1259.78 51.196 1259.57 45.5618 1259.43 40L1286 66.5705C1271.9 66.9314 1258.27 66.8456 1243.52 67.156C1128.36 69.5436 1012.09 74.8674 897.158 72.4637C887.522 72.2702 887.159 67.0414 878.691 67.864C870.223 68.6706 862.043 79.9634 855.079 67.4929C854.855 70.0096 854.877 71.8038 854.652 74.0946C837.155 70.5463 819.657 74.2191 802.541 74.6708C789.875 75.0094 778.641 74.6081 766.94 74.3339C756.568 74.0749 757.463 69.69 748.483 75.413C703.852 71.8316 658.741 72.7036 614.491 66.7507C604.113 76.1237 594.166 70.2182 579.813 68.8308C578.041 68.6553 579.942 72.0753 574.687 71.785C568.087 71.4278 564.672 66.2028 553.559 66.4919C550.616 66.5726 528.822 72.3656 520.759 69.3972C512.695 66.4293 501.014 64.6873 492.637 61.8482C493.827 64.0903 495.335 66.2352 496.66 68.4451C492.482 68.8322 488.282 69.2054 484.104 69.5926C483.498 66.8984 482.89 64.202 482.306 61.4918C479.88 64.0567 477.453 66.5901 475.005 69.1873C469.727 55.3471 475.138 59.8613 463.393 63.3619C457.508 65.1042 452.836 62.6861 446.794 64.0895C444.617 64.6053 443.224 68.6807 440.824 69.2019C434.94 70.46 438.369 64.8508 434.735 64.8805C431.073 64.9289 425.817 71.0899 419.258 68.3474C426.106 57.3635 406.315 60.9466 405.371 69.4803C403.015 69.496 401.04 69.1414 398.438 69.3826C400.841 47.8295 388.504 63.1246 383.607 66.0768C378.714 69.0248 378.911 63.2338 377.766 63.4596C374.467 64.0891 376.87 66.4937 374.558 66.5749C359.239 67.0589 344.815 63.5234 329.698 63.2008C327.524 63.1549 329.452 66.4274 326.917 66.1061C324.379 65.7835 321.946 62.5257 318.195 62.7516C317.189 62.8088 316.872 65.6836 315.305 65.6862C282.443 65.5571 251.241 63.108 217.728 62.7369C214.696 62.7046 212.315 67.816 206.454 67.6394C200.592 67.462 191.698 62.8492 184.421 62.4928C182.489 62.396 181.965 66.6537 179.405 66.5407C170.691 66.1528 163.185 62.6862 154.134 62.1217C138.84 61.1707 122.826 63.7681 107.307 61.2525C104.365 60.7847 104.836 57.2337 100.592 56.2328C93.2699 54.5066 96.0255 59.6847 94.543 60.3784C89.693 62.6192 88.1689 55.7371 83.4771 57.5073C82.7597 57.781 83.783 61.8624 83.1393 61.9263C73.1663 62.6362 72.6427 53.0705 62.0406 58.2006C52.6125 52.7007 68.3604 50.8271 69.9775 47.9074C73.927 40.8102 63.4864 32.4702 57.3322 29.7916C52.0324 27.4852 52.0714 31.9039 49.9615 31.9059C38.7989 31.9221 22.1757 32.7622 13.6845 30.6657C8.54072 29.4073 17.8125 27.5667 15.1844 26.1148C12.5797 24.6648 10.8934 27.9856 8.22108 24.3569C5.54812 20.7271 0.0953376 10.0451 1.12858 4.94717ZM938.908 28.7271C921.792 46.1496 876.401 44.3296 852.03 42.668C831.815 41.2806 814.387 27.8565 818.564 47.3117C840.417 47.4405 858.094 45.4894 881.205 46.086C883.608 46.1506 897.943 47.9558 902.929 48.2785C905.736 48.4565 905.826 51.6702 909.644 51.638C910.475 51.6216 915.082 47.4234 916.766 47.5363C922.538 47.9082 939.701 54.3533 942.097 54.1673C948.742 53.6191 946.192 48.624 949.06 47.7169C958.696 44.7163 959.758 52.2184 969.305 49.7824C971.012 49.3469 976.672 42.8091 983.748 43.6641C986.623 44.0196 991.52 47.3948 993.721 47.2335C1005.72 46.3621 1019.1 41.8917 1030.09 42.6338C1039.09 43.2477 1036.67 48.2944 1041.43 48.9719C1046.19 49.6311 1051.94 43.7782 1055.2 43.4395C1060.41 42.9085 1066.74 46.2321 1068.36 46.1837C1100.21 45.1995 1128.54 41.3453 1159.26 39.9579C1138.4 37.651 1117.55 35.5338 1096.82 33.1462C1085.05 38.3729 1090.91 33.4721 1083.16 31.8425C1077.03 30.5521 1075.55 39.4054 1067.49 38.4247C1067.49 38.4247 1067.5 38.4247 1067.51 38.4247C1063.35 37.9084 1054.34 31.7775 1045.49 34.3425C1045.18 34.4403 1044.39 39.0349 1037.77 39.1962C1022.88 39.5511 1000.06 41.9081 983.301 40.9248C978.382 40.6344 979.384 35.8086 973.566 35.2117C969.323 34.78 964.407 39.2419 957.762 38.244C949.428 36.9695 945.431 29.2943 939.703 39.9579C939.231 36.1506 939.47 32.4376 938.908 28.7271ZM478.621 38.0048C477.45 37.5833 461.774 25.6804 466.422 38.3905C487.492 43.9078 510.271 41.1673 532.44 44.2647C524.871 31.6974 512.065 36.6506 496.521 37.5702C496.514 37.5702 496.508 37.5702 496.501 37.5702C495.767 37.613 498.835 34.3285 494.663 34.9236C492.642 35.214 484.888 40.2472 478.621 38.0048Z" fill="#FFFDFA"/>
</svg>
